<svg width="654" height="580" viewBox="0 0 654 580" fill="none" xmlns="http://www.w3.org/2000/svg">
<path d="M609.069 458.959H40.7324V461.565H609.069V458.959Z" fill="url(#paint0_linear_3397_28264)"/>
<path opacity="0.05" d="M324.901 579.868C484.9 579.868 614.606 450.163 614.606 290.164C614.606 130.164 484.9 0.458984 324.901 0.458984C164.902 0.458984 35.1963 130.164 35.1963 290.164C35.1963 450.163 164.902 579.868 324.901 579.868Z" fill="url(#paint1_radial_3397_28264)"/>
<path opacity="0.05" d="M321.963 577.271C480.527 577.271 609.069 448.729 609.069 290.165C609.069 131.6 480.527 3.05859 321.963 3.05859C163.398 3.05859 34.8564 131.6 34.8564 290.165C34.8564 448.729 163.398 577.271 321.963 577.271Z" fill="url(#paint2_radial_3397_28264)" fill-opacity="0.2"/>
<path opacity="0.05" d="M327.366 575.464L0.969727 387.019L327.357 198.578L653.755 387.025L327.366 575.464Z" fill="#53A5F8"/>
<path opacity="0.1" d="M327.366 541.835L0.969727 353.389L327.357 164.949L653.755 353.394L327.366 541.835Z" fill="#53A5F8"/>
<path opacity="0.1" d="M327.365 482.312L104.066 353.391L327.358 224.473L550.656 353.395L327.365 482.312Z" fill="#53A5F8"/>
<path d="M614.606 406.688L611.938 411.01L566.329 281.008C562.773 270.872 546.449 262.873 529.775 262.873H120.027C103.352 262.873 87.0285 270.872 83.4733 281.008L38.4885 409.23L35.2046 405.966L35.1963 421.864L35.2018 421.86C35.1991 433.725 47.0887 442.741 65.0269 442.741H584.774C602.674 442.741 614.553 433.763 614.6 421.936L614.604 421.942V406.688H614.606Z" fill="#53A5F8"/>
<path d="M566.329 265.617L613.426 399.86C618.674 414.819 605.925 427.351 584.775 427.351H65.0269C43.8767 427.351 31.1274 414.819 36.3758 399.86L83.4732 265.617C87.0285 255.482 103.352 247.482 120.027 247.482H529.774C546.448 247.481 562.772 255.482 566.329 265.617Z" fill="#A7EAFD"/>
<path d="M561.689 266.695L606.914 398.329C611.493 411.66 600.034 422.788 581.181 422.788H68.621C49.769 422.788 38.3086 411.66 42.8883 398.329L88.1126 266.693C91.2469 257.568 105.894 250.346 120.9 250.346H528.902C543.908 250.347 558.554 257.57 561.689 266.695Z" fill="url(#paint3_radial_3397_28264)"/>
<path opacity="0.2" d="M444.766 250.348H120.9C105.894 250.348 91.247 257.569 88.1126 266.695L42.8884 398.331C38.3086 411.662 49.7677 422.79 68.621 422.79H78.7995C222.256 357.104 350.603 298.589 444.766 250.348Z" fill="#482BB8"/>
<path d="M85.6796 314.376L77.4906 339.601C77.2304 340.405 76.037 341.059 74.827 341.059C73.6169 341.059 72.8513 340.405 73.1172 339.601L81.4501 314.376C81.698 313.626 82.8429 313.02 84.0086 313.02C85.1757 313.02 85.9233 313.626 85.6796 314.376Z" fill="#320C54"/>
<path opacity="0.15" d="M325.137 449.552C428.579 449.552 512.434 401.137 512.434 341.415C512.434 281.694 428.579 233.279 325.137 233.279C221.696 233.279 137.84 281.694 137.84 341.415C137.84 401.137 221.696 449.552 325.137 449.552Z" fill="url(#paint4_radial_3397_28264)"/>
<path d="M325.586 482.52L325.58 479.446C326.603 479.444 327.626 479.44 328.647 479.433L328.669 482.508C327.639 482.515 326.612 482.519 325.586 482.52ZM319.414 482.487C318.387 482.475 317.359 482.46 316.328 482.441L316.385 479.367C317.406 479.386 318.43 479.4 319.45 479.412L319.414 482.487ZM334.837 482.426L334.774 479.351C335.795 479.331 336.818 479.309 337.838 479.281L337.92 482.356C336.89 482.383 335.862 482.407 334.837 482.426ZM310.16 482.292C309.132 482.262 308.103 482.226 307.074 482.188L307.188 479.116C308.21 479.153 309.231 479.189 310.253 479.22L310.16 482.292ZM344.083 482.155L343.964 479.083C344.985 479.044 346.006 479.001 347.025 478.954L347.164 482.026C346.138 482.073 345.111 482.116 344.083 482.155ZM300.908 481.922C299.881 481.87 298.853 481.816 297.826 481.759L297.996 478.69C299.018 478.746 300.04 478.8 301.062 478.85L300.908 481.922ZM353.32 481.711L353.142 478.641C354.161 478.582 355.181 478.519 356.2 478.454L356.395 481.524C355.371 481.589 354.345 481.651 353.32 481.711ZM291.664 481.375C290.637 481.305 289.61 481.233 288.582 481.155L288.813 478.089C289.834 478.166 290.854 478.238 291.874 478.309L291.664 481.375ZM362.548 481.09L362.312 478.024C363.328 477.946 364.347 477.865 365.362 477.779L365.62 480.842C364.597 480.927 363.572 481.01 362.548 481.09ZM282.428 480.651C281.403 480.56 280.378 480.466 279.354 480.37L279.642 477.309C280.66 477.405 281.681 477.499 282.701 477.588L282.428 480.651ZM371.76 480.293L371.462 477.232C372.478 477.135 373.493 477.032 374.508 476.927L374.825 479.986C373.803 480.091 372.781 480.192 371.76 480.293ZM273.209 479.749C272.184 479.638 271.16 479.525 270.137 479.408L270.486 476.353C271.502 476.469 272.52 476.583 273.538 476.691L273.209 479.749ZM380.95 479.314L380.592 476.261C381.606 476.142 382.619 476.02 383.631 475.896L384.005 478.949C382.988 479.075 381.97 479.196 380.95 479.314ZM264.004 478.663C262.981 478.533 261.959 478.399 260.939 478.262L261.349 475.215C262.362 475.352 263.377 475.483 264.393 475.613L264.004 478.663ZM390.117 478.157L389.703 475.109C390.714 474.972 391.723 474.831 392.731 474.686L393.166 477.73C392.151 477.874 391.136 478.017 390.117 478.157ZM254.82 477.395C253.801 477.243 252.782 477.088 251.764 476.931L252.234 473.893C253.246 474.049 254.259 474.204 255.273 474.354L254.82 477.395ZM399.262 476.818L398.783 473.782C399.792 473.623 400.798 473.461 401.804 473.296L402.301 476.329C401.288 476.494 400.275 476.659 399.262 476.818ZM245.662 475.94C244.644 475.768 243.628 475.593 242.613 475.414L243.148 472.385C244.155 472.564 245.165 472.737 246.175 472.908L245.662 475.94ZM408.373 475.288L407.831 472.262C408.836 472.082 409.837 471.9 410.838 471.713L411.4 474.737C410.393 474.924 409.382 475.108 408.373 475.288ZM236.533 474.297C235.518 474.102 234.506 473.906 233.495 473.704L234.095 470.689C235.098 470.888 236.104 471.083 237.11 471.276L236.533 474.297ZM417.446 473.574L416.846 470.559C417.845 470.358 418.842 470.156 419.84 469.951L420.462 472.961C419.461 473.168 418.454 473.373 417.446 473.574ZM227.437 472.46C226.426 472.244 225.418 472.025 224.412 471.802L225.075 468.801C226.075 469.021 227.076 469.238 228.078 469.453L227.437 472.46ZM426.485 471.668L425.818 468.666C426.813 468.446 427.806 468.22 428.797 467.993L429.484 470.989C428.486 471.219 427.485 471.445 426.485 471.668ZM218.383 470.426C217.378 470.188 216.374 469.946 215.373 469.703L216.101 466.716C217.095 466.959 218.092 467.199 219.09 467.433L218.383 470.426ZM435.479 469.565L434.746 466.58C435.735 466.336 436.722 466.091 437.708 465.841L438.465 468.82C437.47 469.072 436.476 469.321 435.479 469.565ZM209.373 468.189C208.372 467.928 207.375 467.665 206.378 467.398L207.174 464.428C208.164 464.693 209.155 464.955 210.148 465.213L209.373 468.189ZM444.419 467.26L443.619 464.291C444.602 464.027 445.584 463.757 446.564 463.484L447.386 466.448C446.401 466.721 445.411 466.992 444.419 467.26ZM200.414 465.746C199.423 465.465 198.434 465.179 197.447 464.888L198.316 461.938C199.294 462.226 200.274 462.51 201.257 462.791L200.414 465.746ZM453.306 464.75L452.435 461.802C453.411 461.513 454.386 461.221 455.358 460.926L456.251 463.868C455.271 464.165 454.291 464.46 453.306 464.75ZM191.538 463.098C190.555 462.792 189.574 462.483 188.595 462.169L189.534 459.241C190.504 459.552 191.479 459.858 192.453 460.164L191.538 463.098ZM462.145 462.024L461.2 459.098C462.172 458.784 463.143 458.468 464.112 458.149L465.077 461.066C464.103 461.388 463.125 461.708 462.145 462.024ZM182.729 460.238C181.753 459.907 180.78 459.573 179.811 459.234L180.821 456.329C181.783 456.665 182.75 456.995 183.718 457.325L182.729 460.238ZM470.925 459.075L469.909 456.174C470.873 455.837 471.836 455.496 472.794 455.151L473.835 458.045C472.868 458.391 471.899 458.734 470.925 459.075ZM173.996 457.152C173.028 456.796 172.065 456.436 171.104 456.075L172.188 453.198C173.142 453.558 174.097 453.915 175.056 454.267L173.996 457.152ZM479.629 455.903L478.536 453.029C479.493 452.665 480.445 452.299 481.394 451.93L482.511 454.793C481.554 455.168 480.595 455.538 479.629 455.903ZM165.345 453.836C164.387 453.455 163.433 453.069 162.48 452.679L163.646 449.834C164.589 450.219 165.534 450.602 166.483 450.98L165.345 453.836ZM488.247 452.496L487.076 449.654C488.021 449.265 488.963 448.871 489.901 448.474L491.096 451.308C490.15 451.708 489.201 452.104 488.247 452.496ZM156.786 450.284C155.839 449.874 154.896 449.461 153.956 449.045L155.202 446.236C156.132 446.648 157.067 447.058 158.006 447.462L156.786 450.284ZM496.765 448.852L495.515 446.043C496.45 445.628 497.38 445.21 498.306 444.787L499.583 447.584C498.648 448.01 497.71 448.433 496.765 448.852ZM148.331 446.487C147.395 446.053 146.464 445.611 145.536 445.167L146.865 442.395C147.783 442.834 148.705 443.27 149.63 443.702L148.331 446.487ZM505.176 444.96L503.845 442.189C504.766 441.747 505.683 441.3 506.595 440.849L507.954 443.606C507.032 444.062 506.106 444.513 505.176 444.96ZM139.993 442.439C139.071 441.974 138.153 441.505 137.24 441.031L138.654 438.301C139.556 438.771 140.465 439.234 141.376 439.694L139.993 442.439ZM513.471 440.811L512.05 438.085C512.955 437.612 513.859 437.137 514.758 436.659L516.204 439.371C515.296 439.855 514.385 440.335 513.471 440.811ZM131.781 438.13C130.873 437.635 129.969 437.136 129.069 436.632L130.573 433.949C131.462 434.447 132.355 434.941 133.253 435.43L131.781 438.13ZM521.626 436.4L520.117 433.72C521.006 433.219 521.893 432.714 522.775 432.206L524.31 434.869C523.421 435.384 522.527 435.894 521.626 436.4ZM525.613 434.113L524.058 431.461C524.943 430.943 525.821 430.424 526.689 429.902L528.271 432.538C527.392 433.065 526.506 433.59 525.613 434.113ZM123.712 433.55C122.819 433.024 121.933 432.494 121.056 431.961L122.654 429.336C123.519 429.862 124.393 430.384 125.273 430.904L123.712 433.55ZM533.536 429.291L531.891 426.693C532.755 426.146 533.611 425.596 534.46 425.042L536.139 427.619C535.281 428.178 534.411 428.736 533.536 429.291ZM115.806 428.69C114.934 428.133 114.069 427.57 113.212 427.007L114.901 424.439C115.748 424.994 116.602 425.551 117.465 426.103L115.806 428.69ZM541.281 424.173L539.536 421.642C540.378 421.062 541.213 420.478 542.038 419.892L543.817 422.402C542.978 422.995 542.134 423.586 541.281 424.173ZM108.087 423.539C107.234 422.946 106.391 422.352 105.556 421.753L107.349 419.254C108.171 419.845 109.002 420.432 109.841 421.015L108.087 423.539ZM548.816 418.751L546.972 416.294C547.789 415.681 548.598 415.063 549.396 414.443L551.281 416.874C550.468 417.503 549.647 418.13 548.816 418.751ZM100.576 418.079C99.7496 417.452 98.9341 416.822 98.1242 416.188L100.02 413.767C100.817 414.391 101.623 415.012 102.437 415.632L100.576 418.079ZM556.119 413.009L554.164 410.635C554.955 409.984 555.734 409.333 556.504 408.678L558.495 411.019C557.713 411.685 556.921 412.347 556.119 413.009ZM93.305 412.297C92.5075 411.634 91.7198 410.965 90.9404 410.297L92.9436 407.965C93.7106 408.624 94.4873 409.281 95.2723 409.937L93.305 412.297ZM563.152 406.928L561.087 404.651C561.842 403.966 562.589 403.276 563.324 402.585L565.43 404.825C564.681 405.529 563.921 406.229 563.152 406.928ZM86.308 406.177C85.5424 405.473 84.7879 404.767 84.0444 404.06L86.1626 401.832C86.895 402.529 87.6371 403.222 88.3888 403.914L86.308 406.177ZM569.874 400.502L567.689 398.338C568.406 397.614 569.116 396.884 569.814 396.155L572.036 398.28C571.326 399.023 570.605 399.764 569.874 400.502ZM79.6253 399.704C78.8985 398.961 78.1827 398.216 77.4752 397.467L79.7125 395.359C80.4061 396.094 81.1094 396.826 81.8224 397.556L79.6253 399.704ZM576.239 393.711L573.936 391.675C574.611 390.909 575.279 390.143 575.931 389.375L578.272 391.366C577.606 392.149 576.929 392.933 576.239 393.711ZM73.3053 392.873C72.62 392.09 71.9485 391.301 71.2854 390.51L73.6445 388.539C74.291 389.314 74.95 390.082 75.6201 390.851L73.3053 392.873ZM582.195 386.552L579.772 384.661C580.4 383.857 581.016 383.051 581.618 382.244L584.081 384.082C583.466 384.909 582.836 385.731 582.195 386.552ZM67.3993 385.669C66.7638 384.844 66.1436 384.016 65.533 383.187L68.0098 381.365C68.6065 382.177 69.2157 382.987 69.8373 383.796L67.3993 385.669ZM587.689 379.019L585.146 377.292C585.717 376.451 586.275 375.607 586.821 374.761L589.405 376.423C588.847 377.292 588.276 378.157 587.689 379.019ZM61.9681 378.09C61.3908 377.222 60.8259 376.352 60.2735 375.481L62.8721 373.836C63.4107 374.687 63.9617 375.537 64.5252 376.383L61.9681 378.09ZM592.646 371.116L589.983 369.58C590.491 368.698 590.986 367.818 591.467 366.932L594.168 368.401C593.676 369.306 593.168 370.213 592.646 371.116ZM57.0782 370.145C56.5646 369.237 56.0648 368.327 55.5789 367.412L58.2952 365.971C58.7673 366.861 59.2532 367.746 59.753 368.63L57.0782 370.145ZM597.002 362.853L594.227 361.528C594.665 360.613 595.087 359.695 595.496 358.776L598.305 360.022C597.885 360.969 597.452 361.912 597.002 362.853ZM52.8003 361.843C52.36 360.897 51.9336 359.95 51.5238 358.999L54.3453 357.779C54.7454 358.703 55.158 359.625 55.5872 360.544L52.8003 361.843ZM600.673 354.259L597.799 353.172C598.158 352.223 598.501 351.274 598.829 350.321L601.737 351.328C601.397 352.306 601.043 353.284 600.673 354.259ZM49.2118 353.212C48.8519 352.232 48.5085 351.252 48.1804 350.269L51.096 349.295C51.4145 350.248 51.7481 351.202 52.097 352.151L49.2118 353.212ZM603.596 345.376L600.635 344.545C600.907 343.572 601.165 342.596 601.406 341.62L604.391 342.355C604.143 343.364 603.878 344.371 603.596 345.376ZM46.3848 344.296C46.1134 343.287 45.8601 342.279 45.6219 341.267L48.6151 340.564C48.8449 341.542 49.0914 342.521 49.353 343.497L46.3848 344.296ZM605.699 336.254L602.673 335.707C602.853 334.713 603.017 333.716 603.164 332.722L606.206 333.173C606.055 334.201 605.885 335.227 605.699 336.254ZM44.3829 335.152C44.2084 334.122 44.0506 333.09 43.908 332.059L46.9538 331.639C47.0908 332.639 47.2445 333.637 47.4134 334.635L44.3829 335.152ZM606.928 326.977L603.865 326.719C603.949 325.717 604.016 324.713 604.067 323.709L607.139 323.863C607.085 324.903 607.014 325.94 606.928 326.977ZM43.2601 325.844C43.1853 324.803 43.1272 323.763 43.087 322.722L46.1591 322.603C46.1979 323.61 46.2546 324.616 46.3266 325.623L43.2601 325.844ZM604.176 317.668C604.161 316.66 604.132 315.653 604.083 314.645L607.155 314.5C607.204 315.54 607.237 316.582 607.251 317.622L604.176 317.668ZM46.1203 316.559L43.0469 316.477C43.0746 315.439 43.1175 314.4 43.1798 313.359L46.2491 313.541C46.1896 314.547 46.148 315.552 46.1203 316.559ZM603.603 308.616C603.489 307.612 603.361 306.612 603.217 305.611L606.258 305.17C606.408 306.203 606.542 307.237 606.658 308.27L603.603 308.616ZM46.7987 307.524L43.7474 307.146C43.8748 306.117 44.0201 305.09 44.1807 304.061L47.2182 304.538C47.0618 305.533 46.9233 306.528 46.7987 307.524ZM602.156 299.648C601.951 298.663 601.726 297.68 601.487 296.699L604.475 295.972C604.723 296.985 604.953 298.002 605.166 299.018L602.156 299.648ZM48.3438 298.597L45.3423 297.93C45.568 296.918 45.8088 295.906 46.065 294.896L49.0443 295.654C48.7965 296.632 48.5625 297.614 48.3438 298.597ZM599.877 290.865C599.58 289.905 599.268 288.943 598.94 287.985L601.85 286.99C602.188 287.978 602.509 288.967 602.814 289.957L599.877 290.865ZM50.7167 289.836L47.79 288.898C48.1056 287.91 48.4379 286.926 48.7854 285.942L51.6844 286.966C51.348 287.922 51.0254 288.88 50.7167 289.836ZM596.816 282.312C596.438 281.38 596.042 280.451 595.634 279.523L598.446 278.283C598.868 279.238 599.274 280.196 599.663 281.154L596.816 282.312ZM53.8663 281.316L51.0296 280.13C51.4297 279.176 51.845 278.222 52.2756 277.272L55.0749 278.54C54.6582 279.463 54.2553 280.389 53.8663 281.316ZM593.04 274.045C592.584 273.147 592.115 272.251 591.632 271.357L594.335 269.896C594.831 270.813 595.312 271.73 595.781 272.652L593.04 274.045ZM57.7248 273.082L54.9946 271.668C55.4695 270.75 55.9596 269.837 56.4635 268.923L59.1549 270.407C58.6648 271.296 58.1872 272.187 57.7248 273.082ZM588.614 266.092C588.09 265.23 587.554 264.372 587.006 263.517L589.594 261.857C590.156 262.734 590.705 263.615 591.241 264.495L588.614 266.092ZM62.2214 265.171L59.6076 263.551C60.1503 262.673 60.7069 261.798 61.2773 260.928L63.8495 262.61C63.2944 263.458 62.7517 264.315 62.2214 265.171ZM583.612 258.48C583.029 257.656 582.433 256.838 581.827 256.018L584.295 254.188C584.916 255.024 585.525 255.862 586.12 256.702L583.612 258.48ZM67.2899 257.597L64.7937 255.801C65.396 254.965 66.012 254.13 66.6392 253.298L69.0924 255.15C68.4791 255.963 67.8783 256.778 67.2899 257.597ZM578.097 251.216C577.46 250.435 576.812 249.653 576.155 248.873L578.502 246.888C579.173 247.683 579.835 248.479 580.483 249.277L578.097 251.216ZM72.8595 250.375L70.4852 248.421C71.14 247.626 71.8073 246.834 72.4843 246.043L74.8171 248.047C74.1526 248.821 73.5005 249.597 72.8595 250.375ZM572.132 244.309C571.449 243.564 570.756 242.822 570.052 242.083L572.28 239.963C572.997 240.716 573.7 241.472 574.397 242.231L572.132 244.309ZM78.8722 243.507L76.6197 241.414C77.3188 240.661 78.0304 239.912 78.7517 239.161L80.9682 241.292C80.258 242.03 79.5602 242.768 78.8722 243.507ZM565.772 237.746C565.049 237.04 564.317 236.337 563.573 235.637L565.684 233.401C566.439 234.115 567.185 234.829 567.92 235.549L565.772 237.746ZM85.2724 236.989L83.139 234.774C83.8783 234.061 84.6287 233.352 85.3873 232.643L87.4848 234.89C86.7386 235.59 86.0006 236.287 85.2724 236.989ZM559.071 231.529C558.314 230.862 557.544 230.194 556.767 229.531L558.762 227.193C559.553 227.867 560.333 228.545 561.103 229.224L559.071 231.529ZM92.0133 230.812L89.9948 228.491C90.7687 227.819 91.5523 227.146 92.3456 226.477L94.3309 228.824C93.5486 229.485 92.7761 230.147 92.0133 230.812ZM552.066 225.645C551.276 225.014 550.479 224.382 549.671 223.755L551.557 221.327C552.377 221.965 553.188 222.605 553.989 223.247L552.066 225.645ZM99.0518 224.964L97.1427 222.555C97.947 221.917 98.7611 221.283 99.5834 220.65L101.459 223.087C100.647 223.711 99.8451 224.337 99.0518 224.964ZM544.797 220.08C543.982 219.48 543.157 218.885 542.322 218.291L544.104 215.786C544.948 216.389 545.787 216.992 546.614 217.597L544.797 220.08ZM106.349 219.436L104.545 216.945C105.377 216.343 106.216 215.743 107.064 215.147L108.833 217.661C107.997 218.249 107.167 218.842 106.349 219.436ZM537.299 214.821C536.46 214.257 535.61 213.695 534.753 213.134L536.435 210.56C537.303 211.128 538.163 211.698 539.013 212.269L537.299 214.821ZM113.874 214.211L112.171 211.651C113.026 211.083 113.888 210.517 114.758 209.954L116.427 212.536C115.568 213.092 114.717 213.65 113.874 214.211ZM529.593 209.855C528.732 209.321 527.863 208.789 526.986 208.263L528.573 205.63C529.46 206.166 530.339 206.702 531.212 207.242L529.593 209.855ZM121.597 209.28L119.992 206.659C120.867 206.123 121.748 205.591 122.639 205.06L124.213 207.701C123.334 208.223 122.461 208.751 121.597 209.28ZM521.714 205.169C520.831 204.665 519.942 204.163 519.049 203.666L520.545 200.981C521.447 201.484 522.346 201.99 523.239 202.501L521.714 205.169ZM129.5 204.625L127.984 201.95C128.88 201.442 129.78 200.94 130.685 200.441L132.166 203.134C131.273 203.628 130.385 204.125 129.5 204.625ZM513.672 200.749C512.774 200.272 511.87 199.802 510.963 199.336L512.369 196.602C513.287 197.074 514.201 197.55 515.111 198.031L513.672 200.749ZM137.556 200.24L136.13 197.517C137.042 197.04 137.957 196.568 138.877 196.098L140.274 198.838C139.363 199.302 138.457 199.77 137.556 200.24ZM505.496 196.592C504.582 196.145 503.664 195.702 502.742 195.265L504.061 192.488C504.995 192.931 505.923 193.379 506.848 193.832L505.496 196.592ZM145.751 196.115L144.409 193.349C145.335 192.9 146.266 192.454 147.2 192.015L148.508 194.798C147.585 195.232 146.666 195.67 145.751 196.115ZM497.19 192.691C496.261 192.272 495.33 191.855 494.397 191.445L495.636 188.631C496.581 189.047 497.52 189.467 498.457 189.89L497.19 192.691ZM154.07 192.241L152.814 189.435C153.751 189.015 154.694 188.599 155.64 188.187L156.87 191.005C155.933 191.413 155 191.824 154.07 192.241ZM488.774 189.033C487.833 188.642 486.89 188.253 485.943 187.866L487.101 185.019C488.054 185.406 489.007 185.798 489.957 186.194L488.774 189.033ZM162.501 188.611L161.327 185.769C162.277 185.377 163.229 184.988 164.184 184.602L165.335 187.452C164.388 187.834 163.442 188.222 162.501 188.611ZM480.252 185.611C479.301 185.244 478.348 184.881 477.391 184.521L478.473 181.645C479.438 182.007 480.4 182.373 481.358 182.742L480.252 185.611ZM171.032 185.216L169.935 182.345C170.895 181.978 171.857 181.617 172.822 181.256L173.899 184.135C172.941 184.492 171.984 184.852 171.032 185.216ZM471.642 182.42C470.681 182.078 469.717 181.74 468.752 181.408L469.759 178.501C470.732 178.838 471.703 179.179 472.672 179.524L471.642 182.42ZM179.654 182.053L178.631 179.154C179.602 178.812 180.573 178.474 181.548 178.139L182.545 181.049C181.579 181.377 180.615 181.712 179.654 182.053ZM462.949 179.453C461.98 179.136 461.009 178.823 460.036 178.513L460.969 175.582C461.951 175.896 462.93 176.212 463.907 176.533L462.949 179.453ZM188.353 179.112L187.406 176.187C188.383 175.87 189.363 175.557 190.346 175.247L191.27 178.179C190.295 178.487 189.322 178.798 188.353 179.112ZM454.185 176.702C453.208 176.409 452.229 176.119 451.248 175.831L452.11 172.881C453.1 173.169 454.087 173.461 455.07 173.757L454.185 176.702ZM197.126 176.388L196.25 173.44C197.23 173.148 198.214 172.862 199.2 172.577L200.054 175.53C199.077 175.812 198.1 176.099 197.126 176.388ZM445.34 174.159C444.353 173.888 443.365 173.619 442.372 173.356L443.164 170.385C444.162 170.651 445.157 170.922 446.153 171.193L445.34 174.159ZM205.938 173.879L205.131 170.912C206.119 170.644 207.109 170.378 208.102 170.118L208.885 173.089C207.901 173.352 206.918 173.613 205.938 173.879ZM436.426 171.821C435.433 171.571 434.439 171.326 433.444 171.085L434.165 168.098C435.17 168.341 436.174 168.588 437.175 168.838L436.426 171.821ZM214.807 171.577L214.07 168.592C215.064 168.347 216.061 168.103 217.059 167.865L217.775 170.856C216.782 171.092 215.794 171.332 214.807 171.577ZM427.466 169.684C426.466 169.457 425.468 169.236 424.465 169.017L425.123 166.013C426.132 166.234 427.14 166.459 428.145 166.686L427.466 169.684ZM223.729 169.474L223.058 166.472C224.057 166.25 225.06 166.028 226.062 165.811L226.713 168.815C225.716 169.031 224.722 169.25 223.729 169.474ZM418.457 167.748C417.455 167.543 416.451 167.342 415.443 167.144L416.038 164.126C417.052 164.327 418.064 164.527 419.073 164.734L418.457 167.748ZM232.698 167.566L232.091 164.551C233.097 164.349 234.102 164.149 235.108 163.953L235.698 166.971C234.696 167.167 233.696 167.364 232.698 167.566ZM409.412 166.002C408.403 165.818 407.397 165.639 406.386 165.462L406.916 162.433C407.931 162.61 408.947 162.791 409.961 162.975L409.412 166.002ZM241.708 165.847L241.164 162.82C242.173 162.639 243.182 162.46 244.194 162.286L244.719 165.315C243.714 165.49 242.71 165.665 241.708 165.847ZM400.332 164.447C399.323 164.285 398.311 164.127 397.299 163.971L397.764 160.932C398.784 161.087 399.803 161.249 400.819 161.411L400.332 164.447ZM250.754 164.314L250.273 161.278C251.285 161.119 252.299 160.961 253.314 160.806L253.776 163.845C252.768 164 251.76 164.155 250.754 164.314ZM391.226 163.081C390.213 162.938 389.198 162.801 388.183 162.665L388.588 159.618C389.609 159.754 390.632 159.894 391.651 160.036L391.226 163.081ZM259.831 162.968L259.412 159.924C260.427 159.783 261.444 159.647 262.463 159.513L262.865 162.56C261.853 162.693 260.842 162.83 259.831 162.968ZM382.092 161.897C381.077 161.775 380.059 161.657 379.043 161.542L379.387 158.487C380.411 158.602 381.433 158.722 382.457 158.844L382.092 161.897ZM268.94 161.804L268.578 158.751C269.597 158.631 270.618 158.513 271.639 158.4L271.98 161.455C270.965 161.569 269.952 161.684 268.94 161.804ZM372.941 160.892C371.923 160.792 370.904 160.692 369.885 160.598L370.169 157.537C371.193 157.631 372.219 157.731 373.244 157.834L372.941 160.892ZM278.069 160.82L277.768 157.759C278.79 157.659 279.812 157.562 280.835 157.469L281.115 160.53C280.1 160.623 279.084 160.719 278.069 160.82ZM363.773 160.069C362.753 159.989 361.731 159.912 360.71 159.835L360.938 156.769C361.963 156.845 362.989 156.923 364.017 157.006L363.773 160.069ZM287.219 160.013L286.979 156.946C288.002 156.866 289.025 156.79 290.05 156.715L290.273 159.781C289.254 159.855 288.235 159.932 287.219 160.013ZM354.591 159.424C353.572 159.362 352.549 159.302 351.529 159.247L351.694 156.178C352.722 156.233 353.749 156.293 354.778 156.355L354.591 159.424ZM296.385 159.38L296.202 156.311C297.228 156.25 298.254 156.193 299.28 156.139L299.442 159.208C298.423 159.262 297.403 159.319 296.385 159.38ZM345.403 158.952C344.381 158.911 343.358 158.87 342.336 158.834L342.444 155.762C343.471 155.798 344.499 155.839 345.527 155.88L345.403 158.952ZM305.562 158.923L305.441 155.851C306.467 155.811 307.492 155.772 308.52 155.737L308.625 158.81C307.603 158.844 306.583 158.882 305.562 158.923ZM336.209 158.656C335.185 158.632 334.164 158.613 333.142 158.596L333.19 155.522C334.218 155.538 335.246 155.558 336.275 155.581L336.209 158.656ZM314.751 158.641L314.686 155.566C315.713 155.544 316.742 155.526 317.769 155.51L317.815 158.585C316.793 158.599 315.773 158.619 314.751 158.641ZM327.009 158.534L325.129 158.53L323.947 158.531L323.935 155.456L325.129 155.455L327.023 155.459L327.009 158.534Z" fill="#76D6FD"/>
<path d="M442.785 159.698C442.784 159.705 442.784 159.713 442.782 159.72C442.736 159.95 442.666 160.177 442.577 160.403C442.547 160.48 442.504 160.557 442.469 160.634C442.401 160.782 442.332 160.929 442.246 161.074C442.184 161.18 442.108 161.283 442.036 161.387C441.953 161.506 441.873 161.624 441.777 161.74C441.647 161.899 441.496 162.053 441.342 162.207C441.261 162.288 441.189 162.373 441.1 162.452C441.032 162.513 440.955 162.572 440.881 162.632C440.722 162.765 440.557 162.898 440.379 163.025C440.282 163.094 440.179 163.161 440.077 163.227C439.933 163.321 439.782 163.411 439.628 163.503C439.219 163.742 438.782 163.971 438.297 164.177L391.487 183.941C391.036 184.132 390.557 184.285 390.074 184.431C389.654 184.557 389.221 184.66 388.783 184.752C388.538 184.805 388.299 184.87 388.048 184.912C387.893 184.938 387.737 184.955 387.58 184.977C387.129 185.04 386.673 185.092 386.215 185.122C386.095 185.13 385.976 185.14 385.855 185.146C385.3 185.172 384.742 185.175 384.187 185.153C384.089 185.148 383.99 185.141 383.892 185.137C383.322 185.106 382.754 185.056 382.197 184.974C382.142 184.966 382.09 184.955 382.034 184.946C381.525 184.867 381.028 184.762 380.539 184.642C380.427 184.614 380.312 184.589 380.201 184.559C379.656 184.411 379.125 184.242 378.619 184.041C378.061 183.819 377.529 183.567 377.035 183.282L355.305 170.736C353.124 169.477 352.008 167.811 352.012 166.137L351.596 313.262C351.59 314.936 352.707 316.603 354.888 317.861L376.618 330.407C377.112 330.692 377.644 330.944 378.202 331.166C378.21 331.169 378.216 331.174 378.224 331.177C378.659 331.349 379.112 331.501 379.575 331.634C379.643 331.653 379.715 331.666 379.783 331.685C379.895 331.715 380.007 331.74 380.121 331.768C380.331 331.821 380.539 331.879 380.754 331.923C381.036 331.981 381.325 332.028 381.615 332.073C381.67 332.081 381.725 332.093 381.781 332.102C381.807 332.106 381.833 332.111 381.86 332.116C382.218 332.167 382.581 332.207 382.946 332.237C383.121 332.251 383.298 332.255 383.474 332.265C383.574 332.271 383.671 332.277 383.77 332.282C383.862 332.286 383.953 332.294 384.044 332.296C384.422 332.305 384.803 332.304 385.181 332.29C385.267 332.287 385.351 332.277 385.437 332.273C385.559 332.268 385.678 332.257 385.8 332.248C386.006 332.235 386.214 332.228 386.419 332.207C386.669 332.182 386.916 332.138 387.163 332.103C387.32 332.081 387.476 332.064 387.631 332.038C387.702 332.026 387.775 332.021 387.846 332.008C388.025 331.976 388.191 331.916 388.367 331.877C388.804 331.783 389.236 331.684 389.657 331.556C389.75 331.529 389.849 331.515 389.941 331.486C390.327 331.361 390.705 331.221 391.07 331.066L437.88 311.302C438.367 311.095 438.802 310.867 439.212 310.628C439.262 310.598 439.324 310.575 439.372 310.546C439.475 310.484 439.563 310.416 439.662 310.352C439.764 310.286 439.867 310.219 439.963 310.15C440.142 310.023 440.305 309.891 440.465 309.758C440.537 309.697 440.616 309.639 440.683 309.577C440.701 309.56 440.724 309.545 440.742 309.528C440.809 309.465 440.859 309.397 440.924 309.333C441.078 309.179 441.229 309.024 441.359 308.865C441.382 308.837 441.413 308.811 441.435 308.783C441.504 308.695 441.554 308.602 441.618 308.513C441.69 308.408 441.766 308.306 441.83 308.199C441.846 308.172 441.87 308.144 441.886 308.116C441.952 308 441.999 307.879 442.053 307.762C442.089 307.684 442.131 307.607 442.162 307.528C442.169 307.511 442.179 307.496 442.184 307.479C442.263 307.27 442.323 307.06 442.365 306.848V306.847C442.367 306.837 442.367 306.827 442.368 306.818C442.407 306.614 442.432 306.411 442.439 306.206C442.44 306.172 442.44 306.141 442.44 306.107L442.857 158.982C442.856 159.221 442.831 159.46 442.785 159.698Z" fill="#63BDFE"/>
<path d="M439.561 154.384C444.426 157.193 443.82 161.845 438.296 164.179L391.486 183.943C387.059 185.811 380.929 185.53 377.036 183.283L355.305 170.737C351.429 168.499 350.917 164.972 354.086 162.407L387.808 135.086C391.802 131.85 399.872 131.47 404.745 134.283L439.561 154.384Z" fill="#8CE2FE"/>
<path d="M382.185 191.639C378.57 191.639 374.974 190.825 372.222 189.236L345.706 173.926C343.091 172.416 341.555 170.377 341.382 168.18C341.227 166.21 342.205 164.264 344.133 162.701L385.282 129.365C390.331 125.27 400.531 124.779 406.677 128.327L449.163 152.857C452.069 154.535 453.647 156.896 453.496 159.339C453.33 162.022 451.16 164.435 447.548 165.96L390.429 190.077C387.944 191.124 385.057 191.639 382.185 191.639ZM396.723 127.211C392.673 127.211 388.661 128.284 386.091 130.365L344.943 163.702C343.331 165.008 342.544 166.521 342.666 168.077C342.804 169.838 344.111 171.517 346.347 172.809L372.863 188.118C377.41 190.746 384.743 191.074 389.925 188.89L447.043 164.772C450.188 163.443 452.071 161.433 452.206 159.258C452.329 157.295 451.018 155.418 448.516 153.974L406.032 129.444C403.433 127.943 400.066 127.211 396.723 127.211Z" fill="#A0F5FE"/>
<g opacity="0.8">
<path d="M382.185 180.516C378.57 180.516 374.974 179.701 372.222 178.112L345.706 162.803C343.091 161.292 341.555 159.253 341.382 157.056C341.227 155.086 342.205 153.141 344.133 151.578L385.282 118.242C390.331 114.148 400.531 113.655 406.677 117.203L449.163 141.733C452.069 143.411 453.647 145.773 453.496 148.215C453.33 150.898 451.16 153.311 447.548 154.837L390.429 178.954C387.944 180 385.057 180.516 382.185 180.516ZM396.723 116.088C392.673 116.088 388.661 117.161 386.091 119.241L344.943 152.579C343.331 153.884 342.544 155.398 342.666 156.954C342.804 158.713 344.111 160.394 346.347 161.686L372.863 176.995C377.41 179.62 384.743 179.951 389.925 177.766L447.043 153.649C450.188 152.32 452.071 150.31 452.206 148.135C452.329 146.172 451.018 144.294 448.516 142.85L406.032 118.319C403.433 116.82 400.066 116.088 396.723 116.088Z" fill="#A0F5FE"/>
</g>
<g opacity="0.4">
<path d="M382.185 169.39C378.57 169.39 374.974 168.576 372.222 166.987L345.706 151.678C343.091 150.167 341.555 148.128 341.382 145.932C341.227 143.962 342.205 142.017 344.133 140.454L385.282 107.117C390.331 103.023 400.531 102.53 406.677 106.08L449.163 130.608C452.069 132.286 453.647 134.648 453.496 137.09C453.33 139.773 451.16 142.186 447.548 143.712L390.429 167.829C387.944 168.875 385.057 169.39 382.185 169.39ZM396.723 104.962C392.673 104.962 388.662 106.035 386.091 108.116L344.943 141.455C343.331 142.76 342.544 144.274 342.666 145.83C342.804 147.589 344.111 149.269 346.347 150.56L372.863 165.87C377.41 168.495 384.743 168.825 389.925 166.641L447.043 142.524C450.188 141.195 452.071 139.184 452.206 137.009C452.329 135.046 451.018 133.169 448.516 131.725L406.032 107.195C403.433 105.695 400.066 104.962 396.723 104.962Z" fill="#A0F5FE"/>
</g>
<g opacity="0.2">
<path d="M382.184 158.266C378.569 158.266 374.974 157.452 372.222 155.864L345.706 140.555C343.089 139.044 341.555 137.004 341.382 134.807C341.228 132.837 342.204 130.893 344.133 129.33L385.281 95.9938C390.33 91.8999 400.531 91.4071 406.676 94.9554L449.162 119.485C452.068 121.162 453.647 123.523 453.496 125.966C453.329 128.649 451.161 131.062 447.548 132.587L390.429 156.706C387.944 157.752 385.057 158.266 382.184 158.266ZM396.722 93.8396C392.673 93.8396 388.661 94.9125 386.091 96.9933L344.943 130.331C343.331 131.636 342.543 133.149 342.665 134.706C342.804 136.465 344.111 138.146 346.347 139.438L372.863 154.747C377.407 157.37 384.74 157.701 389.925 155.518L447.043 131.4C450.188 130.07 452.071 128.06 452.205 125.885C452.327 123.922 451.017 122.046 448.516 120.602L406.031 96.0713C403.433 94.5705 400.066 93.8396 396.722 93.8396Z" fill="#A0F5FE"/>
</g>
<path d="M438.296 164.174L391.486 183.939C387.059 185.806 380.928 185.525 377.035 183.278L355.305 170.732C353.468 169.672 352.398 168.322 352.104 166.922C351.701 168.845 352.79 170.838 355.305 172.29L377.035 184.836C380.928 187.084 387.059 187.364 391.486 185.496L438.296 165.732C441.714 164.288 443.244 161.958 442.765 159.725C442.419 161.434 440.919 163.067 438.296 164.174Z" fill="#DCFBFF"/>
<path d="M303.07 166.395C303.059 166.508 303.052 166.623 303.031 166.737C303.013 166.834 302.984 166.929 302.958 167.026C302.929 167.137 302.902 167.248 302.864 167.356C302.832 167.447 302.788 167.536 302.749 167.626C302.698 167.743 302.646 167.861 302.584 167.976C302.538 168.059 302.484 168.142 302.433 168.224C302.353 168.352 302.268 168.481 302.174 168.609C302.119 168.683 302.057 168.758 301.996 168.831C301.853 169.004 301.695 169.173 301.525 169.339C301.461 169.4 301.403 169.464 301.337 169.524C301.229 169.621 301.11 169.715 300.992 169.809C300.891 169.891 300.793 169.974 300.683 170.052C300.556 170.145 300.416 170.234 300.279 170.322C300.14 170.412 300.009 170.505 299.861 170.591L278.272 183.137C277.834 183.392 277.359 183.613 276.869 183.817C276.718 183.879 276.562 183.933 276.407 183.991C276.094 184.107 275.771 184.211 275.443 184.309C275.04 184.429 274.625 184.527 274.204 184.617C273.936 184.674 273.673 184.739 273.399 184.783C273.224 184.811 273.048 184.833 272.872 184.856C272.422 184.916 271.968 184.963 271.509 184.991C271.406 184.996 271.305 185.007 271.203 185.011C270.645 185.035 270.084 185.032 269.526 185.007C269.424 185.003 269.321 184.998 269.217 184.991C268.66 184.956 268.104 184.901 267.558 184.818C267.472 184.805 267.387 184.787 267.3 184.773C266.788 184.687 266.284 184.581 265.791 184.451C265.715 184.431 265.637 184.416 265.563 184.395C264.984 184.235 264.422 184.045 263.885 183.822L216.609 164.2C216.101 163.99 215.634 163.76 215.208 163.514C213.854 162.732 212.911 161.786 212.396 160.777C212.087 160.172 211.932 159.545 211.933 158.916L211.517 306.041C211.512 307.717 212.623 309.387 214.791 310.639C215.217 310.885 215.684 311.115 216.192 311.325L263.468 330.947C263.541 330.978 263.615 331.008 263.689 331.037C264.127 331.21 264.581 331.362 265.045 331.495C265.078 331.505 265.113 331.511 265.146 331.52C265.221 331.541 265.298 331.556 265.374 331.576C265.653 331.649 265.931 331.722 266.215 331.782C266.435 331.828 266.659 331.861 266.883 331.898C266.969 331.912 267.054 331.93 267.139 331.942C267.198 331.951 267.253 331.965 267.311 331.973C267.668 332.024 268.028 332.064 268.39 332.093C268.525 332.104 268.662 332.107 268.798 332.116C268.902 332.121 269.003 332.128 269.107 332.132C269.231 332.138 269.357 332.149 269.482 332.153C269.863 332.163 270.243 332.161 270.623 332.147C270.677 332.146 270.729 332.139 270.783 332.136C270.886 332.132 270.987 332.122 271.089 332.116C271.347 332.1 271.604 332.089 271.859 332.064C272.06 332.045 272.254 332.008 272.452 331.981C272.629 331.958 272.805 331.936 272.979 331.908C273.081 331.891 273.188 331.883 273.291 331.865C273.461 331.835 273.616 331.778 273.783 331.743C274.206 331.655 274.62 331.555 275.024 331.436C275.137 331.403 275.262 331.385 275.374 331.349C275.586 331.281 275.783 331.195 275.987 331.117C276.142 331.059 276.299 331.005 276.45 330.943C276.94 330.739 277.415 330.518 277.852 330.263L299.441 317.717C299.488 317.69 299.534 317.663 299.58 317.636C299.679 317.576 299.764 317.511 299.859 317.449C299.996 317.359 300.138 317.27 300.265 317.177C300.373 317.098 300.47 317.017 300.571 316.935C300.689 316.841 300.809 316.747 300.917 316.649C300.939 316.628 300.968 316.608 300.991 316.588C301.033 316.547 301.064 316.505 301.105 316.463C301.276 316.297 301.433 316.128 301.576 315.956C301.608 315.918 301.651 315.882 301.681 315.843C301.709 315.807 301.728 315.769 301.755 315.733C301.85 315.606 301.935 315.477 302.015 315.347C302.05 315.29 302.095 315.236 302.127 315.181C302.142 315.155 302.151 315.127 302.165 315.101C302.227 314.984 302.278 314.868 302.328 314.75C302.358 314.681 302.398 314.615 302.423 314.546C302.432 314.523 302.434 314.501 302.443 314.479C302.482 314.37 302.508 314.259 302.538 314.148C302.559 314.071 302.588 313.995 302.605 313.918C302.609 313.899 302.608 313.88 302.612 313.86C302.632 313.745 302.641 313.63 302.652 313.516C302.659 313.437 302.677 313.359 302.678 313.28C302.68 313.247 302.68 313.215 302.68 313.182L303.096 166.057C303.099 166.172 303.081 166.283 303.07 166.395Z" fill="#63BDFE"/>
<path d="M265.521 134.276C265.932 134.512 266.317 134.771 266.672 135.052L300.946 162.23C304.185 164.801 303.729 168.347 299.861 170.594L278.272 183.139C274.42 185.378 268.326 185.667 263.886 183.823L216.61 164.202C216.102 163.991 215.636 163.761 215.209 163.515C210.933 161.045 210.768 156.946 215.177 154.383L249.768 134.281C254.169 131.724 261.242 131.804 265.521 134.276Z" fill="#93EDFE"/>
<path d="M299.858 170.594L278.269 183.14C274.417 185.379 268.323 185.668 263.883 183.824L216.607 164.202C216.099 163.992 215.633 163.762 215.206 163.516C213.384 162.464 212.317 161.116 212.022 159.717C211.626 161.638 212.711 163.632 215.206 165.073C215.633 165.32 216.099 165.549 216.607 165.76L263.883 185.382C268.325 187.226 274.417 186.935 278.269 184.698L299.858 172.152C302.34 170.709 303.409 168.734 303.006 166.823C302.718 168.209 301.666 169.544 299.858 170.594Z" fill="#DCFBFF"/>
<path d="M299.858 188.424L278.269 200.97C274.417 203.209 268.323 203.498 263.883 201.654L216.607 182.032C216.099 181.822 215.633 181.592 215.206 181.346C213.384 180.294 212.317 178.945 212.022 177.547C211.626 179.468 212.711 181.462 215.206 182.903C215.633 183.15 216.099 183.38 216.607 183.59L263.883 203.212C268.325 205.056 274.417 204.765 278.269 202.528L299.858 189.982C302.34 188.539 303.409 186.564 303.006 184.653C302.718 186.039 301.666 187.374 299.858 188.424Z" fill="#DCFBFF"/>
<path d="M299.858 206.26L278.269 218.806C274.417 221.045 268.323 221.334 263.883 219.49L216.607 199.868C216.099 199.658 215.633 199.428 215.206 199.182C213.384 198.13 212.317 196.781 212.022 195.383C211.626 197.304 212.711 199.298 215.206 200.739C215.633 200.986 216.099 201.215 216.607 201.426L263.883 221.048C268.325 222.892 274.417 222.601 278.269 220.364L299.858 207.818C302.34 206.375 303.409 204.4 303.006 202.489C302.718 203.875 301.666 205.21 299.858 206.26Z" fill="#DCFBFF"/>
<path d="M299.858 224.092L278.269 236.638C274.417 238.877 268.323 239.166 263.883 237.322L216.607 217.7C216.099 217.49 215.633 217.26 215.206 217.014C213.384 215.962 212.317 214.615 212.022 213.215C211.626 215.136 212.711 217.13 215.206 218.571C215.633 218.818 216.099 219.047 216.607 219.258L263.883 238.88C268.325 240.724 274.417 240.433 278.269 238.196L299.858 225.65C302.34 224.207 303.409 222.232 303.006 220.321C302.718 221.707 301.666 223.042 299.858 224.092Z" fill="#DCFBFF"/>
<path d="M299.858 241.924L278.269 254.47C274.417 256.709 268.323 256.998 263.883 255.154L216.607 235.532C216.099 235.322 215.633 235.092 215.206 234.846C213.384 233.794 212.317 232.445 212.022 231.047C211.626 232.968 212.711 234.962 215.206 236.403C215.633 236.65 216.099 236.88 216.607 237.09L263.883 256.712C268.325 258.556 274.417 258.265 278.269 256.028L299.858 243.482C302.34 242.039 303.409 240.064 303.006 238.153C302.718 239.539 301.666 240.874 299.858 241.924Z" fill="#DCFBFF"/>
<path d="M263.262 141.169C263.557 141.34 263.834 141.525 264.087 141.727L288.694 161.24C291.02 163.085 290.692 165.631 287.915 167.244L272.416 176.251C269.651 177.859 265.275 178.066 262.088 176.743L228.147 162.656C227.783 162.505 227.448 162.34 227.14 162.163C224.07 160.391 223.952 157.448 227.117 155.608L251.951 141.176C255.112 139.338 260.19 139.396 263.262 141.169Z" fill="#53A5F8"/>
<path d="M257.751 414.08C257.69 414.08 257.633 414.079 257.575 414.077C257.316 414.074 257.173 414.066 257.029 414.057L256.391 414.021C256.091 413.998 255.868 413.971 255.642 413.942L255.216 413.893C254.878 413.847 254.573 413.791 254.272 413.733L253.903 413.659C253.528 413.575 253.183 413.494 252.847 413.399L252.668 413.342C252.263 413.219 251.906 413.098 251.557 412.967L251.24 412.84C250.603 412.577 250.107 412.338 249.666 412.082L214.85 391.98C212.463 390.604 211.152 388.723 211.157 386.687L211.574 358.344L213.19 358.358C213.185 359.79 214.21 361.172 216.073 362.249L216.076 362.251L250.889 382.351C251.267 382.569 251.716 382.783 252.259 383.006L252.552 383.127C252.858 383.244 253.177 383.351 253.503 383.446L253.482 384.287L253.703 383.51C254.007 383.597 254.317 383.671 254.632 383.739L254.625 384.568L254.794 383.779L254.836 384.607L254.989 383.813C255.278 383.87 255.566 383.921 255.858 383.961L256.179 383.997C256.43 384.027 256.682 384.057 256.935 384.079L257.362 384.101C257.586 384.114 257.803 384.128 258.021 384.132L258.538 384.129C258.736 384.128 258.933 384.126 259.13 384.118C259.323 384.11 259.517 384.094 259.71 384.081L260.276 384.038C260.697 383.995 261.118 383.935 261.532 383.863L261.829 384.625L261.681 383.831C262.354 383.705 262.98 383.55 263.539 383.372C263.934 383.244 264.31 383.099 264.677 382.94L264.883 382.846C265.254 382.674 265.509 382.542 265.754 382.403L266.045 382.238C266.351 382.048 266.649 381.85 266.92 381.63L300.642 354.309C300.882 354.114 301.077 353.908 301.271 353.702C301.415 353.554 301.463 353.504 301.506 353.451C301.69 353.228 301.858 352.998 301.988 352.764C302.132 352.476 302.214 352.267 302.277 352.056L302.406 352.061L302.407 351.923L302.323 351.901C302.381 351.658 302.413 351.448 302.418 351.254V351.188L304.034 351.201C304.034 351.23 304.033 351.259 304.033 351.289L303.617 379.544C303.608 379.912 303.579 380.168 303.527 380.427L303.419 380.815C303.368 381.004 303.345 381.09 303.313 381.177C303.238 381.375 303.141 381.571 303.039 381.766L302.964 381.921C302.819 382.181 302.645 382.436 302.448 382.689L302.333 382.817C302.265 382.898 302.187 382.978 302.11 383.059L301.941 383.243C301.855 383.34 301.769 383.438 301.667 383.531C301.534 383.654 301.391 383.779 301.242 383.899L267.521 411.218L266.2 412.289L266.201 412.11C266.196 412.113 266.19 412.115 266.185 412.118C265.857 412.302 265.562 412.453 265.256 412.597L264.896 412.761C264.485 412.936 264.06 413.103 263.615 413.245C262.994 413.446 262.301 413.618 261.559 413.755L261.37 413.792C260.945 413.87 260.486 413.933 260.023 413.98L259.505 414.021C259.263 414.04 259.022 414.059 258.778 414.069L258.316 414.08L258.138 414.079C257.987 414.077 257.864 414.08 257.751 414.08ZM261.118 412.194L261.414 412.957L261.266 412.164C261.941 412.037 262.566 411.883 263.124 411.703C263.52 411.577 263.896 411.43 264.263 411.271L264.479 411.174C264.84 411.007 265.095 410.874 265.339 410.735L265.638 410.564C265.936 410.379 266.235 410.18 266.507 409.959L300.227 382.639C300.349 382.541 300.462 382.443 300.57 382.343C300.63 382.288 300.678 382.231 300.728 382.174L300.855 382.033C300.997 381.886 301.046 381.835 301.088 381.782L301.186 381.677C301.323 381.504 301.451 381.316 301.557 381.126C301.681 380.876 301.75 380.743 301.801 380.606L301.862 380.387L302.693 380.421L301.908 380.23L301.951 380.085C301.98 379.94 301.999 379.771 302.003 379.603L302.367 354.892C302.121 355.148 301.909 355.359 301.663 355.558L267.94 382.877C267.618 383.14 267.262 383.381 266.891 383.61L266.614 383.769C266.273 383.963 265.981 384.112 265.675 384.256L265.315 384.421C264.904 384.597 264.479 384.762 264.036 384.904C263.413 385.105 262.721 385.277 261.982 385.414L261.674 384.654L261.814 385.448C261.364 385.529 260.906 385.592 260.442 385.641L259.922 385.681C259.625 385.704 259.412 385.718 259.197 385.728C258.983 385.736 258.768 385.738 258.554 385.739L257.999 385.742C257.756 385.738 257.517 385.724 257.277 385.71L256.815 385.686C256.534 385.663 256.262 385.631 255.991 385.599L255.633 385.559C255.315 385.515 255 385.458 254.686 385.399L254.291 385.317C253.943 385.241 253.6 385.159 253.264 385.063L253.12 385.019C252.678 384.885 252.321 384.764 251.972 384.633L251.753 384.544C251.036 384.249 250.525 384.004 250.084 383.751L215.266 363.647L215.431 363.361L215.265 363.647C214.415 363.157 213.702 362.602 213.136 362L212.772 386.703C212.767 388.124 213.792 389.506 215.655 390.583L250.473 410.685C250.851 410.903 251.285 411.112 251.842 411.34L251.983 411.408L251.842 412.214L252.13 411.459C252.441 411.578 252.76 411.685 253.085 411.78L253.319 411.857C253.588 411.933 253.899 412.005 254.213 412.073L254.212 412.095H254.389L254.564 412.179L254.569 412.146C254.848 412.199 255.126 412.253 255.408 412.294L255.763 412.331C256.041 412.366 256.24 412.392 256.441 412.408L257.5 412.466C257.748 412.466 257.895 412.464 258.04 412.463L258.598 412.46C258.933 412.442 259.152 412.426 259.371 412.408L259.783 412.38C260.284 412.326 260.704 412.268 261.118 412.194ZM254.393 412.535L254.423 412.939L254.566 412.19L254.393 412.535Z" fill="#53A5F8"/>
<path d="M258.36 385.733C255.383 385.733 252.393 385.083 250.085 383.752L215.268 363.65C212.796 362.224 211.453 360.195 211.585 358.084C211.729 355.776 213.568 353.711 216.631 352.416L263.439 332.652C268.116 330.678 274.496 330.972 278.61 333.348L300.339 345.893C302.567 347.179 303.876 348.931 304.024 350.828C304.159 352.538 303.32 354.219 301.664 355.559L267.942 382.878C265.624 384.761 262.002 385.733 258.36 385.733ZM270.309 332.974C268.122 332.974 265.924 333.358 264.069 334.14L217.263 353.904C214.784 354.951 213.303 356.511 213.199 358.185C213.107 359.682 214.128 361.126 216.078 362.253L250.895 382.355C255.522 385.025 263.162 384.679 266.928 381.628L300.649 354.309C301.898 353.298 302.508 352.141 302.416 350.958C302.309 349.607 301.286 348.307 299.533 347.294L277.803 334.749C275.773 333.577 273.047 332.974 270.309 332.974Z" fill="#6BD2FE"/>
<path d="M397.643 414.08C397.485 414.08 397.368 414.078 397.251 414.076L396.665 414.073C396.298 414.055 396.057 414.035 395.818 414.016L395.378 413.987C394.833 413.927 394.373 413.864 393.921 413.782L393.741 413.746C393.016 413.609 392.324 413.437 391.702 413.239C391.259 413.097 390.834 412.931 390.419 412.753L390.164 412.638C389.754 412.447 389.459 412.295 389.175 412.133C389.152 412.122 389.131 412.111 389.11 412.101V412.279L354.073 383.891C353.925 383.771 353.782 383.647 353.648 383.522C353.551 383.432 353.464 383.337 353.379 383.241L353.285 383.136C353.126 382.97 353.052 382.891 352.986 382.812C352.947 382.775 352.908 382.735 352.878 382.696C352.672 382.433 352.5 382.177 352.353 381.918L352.274 381.754C352.175 381.565 352.076 381.369 352.003 381.171C351.971 381.083 351.948 381 351.927 380.915L351.84 380.616C351.815 380.536 351.799 380.481 351.788 380.425C351.737 380.164 351.707 379.907 351.698 379.65L351.282 351.294C351.28 351.261 351.28 351.227 351.28 351.194L352.895 351.182L352.896 351.259C352.901 351.445 352.932 351.652 352.99 351.89L353.022 352.001C353.099 352.262 353.18 352.469 353.289 352.675C353.457 352.993 353.623 353.222 353.808 353.447C353.851 353.498 353.901 353.549 353.951 353.6C354.235 353.902 354.431 354.107 354.671 354.302L388.392 381.621C388.663 381.843 388.962 382.044 389.272 382.233L389.47 382.347C389.802 382.537 390.059 382.667 390.322 382.79L390.632 382.932C391.003 383.092 391.378 383.238 391.771 383.363C392.33 383.543 392.958 383.698 393.632 383.824L393.641 384.652L393.781 383.857C394.195 383.929 394.618 383.989 395.041 384.033L395.515 384.068C395.796 384.09 395.99 384.104 396.183 384.112C396.38 384.12 396.575 384.122 396.773 384.123L397.294 384.126C397.51 384.122 397.73 384.108 397.947 384.095L398.386 384.072C398.632 384.051 398.883 384.022 399.134 383.992L399.455 383.957C399.748 383.915 400.038 383.864 400.324 383.807L400.691 384.562L400.537 383.77L400.856 384.523L400.684 383.734C400.998 383.666 401.309 383.591 401.613 383.506L402.044 384.217L401.814 383.442C402.139 383.346 402.459 383.238 402.769 383.121L402.944 383.049C403.601 382.779 404.048 382.563 404.426 382.345L439.242 362.245C441.107 361.168 442.13 359.786 442.128 358.353L443.742 358.339L444.159 386.673C444.165 388.719 442.854 390.6 440.468 391.976L405.652 412.078C405.211 412.334 404.713 412.572 404.087 412.83C404.025 412.861 403.972 412.888 403.915 412.911L403.784 412.956C403.413 413.095 403.056 413.216 402.692 413.324L402.448 413.401C402.156 413.483 401.839 413.561 401.518 413.631L401.504 413.645L401.046 413.729C400.744 413.786 400.439 413.844 400.132 413.887L399.862 413.918L399.571 413.137L399.672 413.938C399.448 413.968 399.225 413.994 398.999 414.013L398.288 414.052C398.144 414.062 398.003 414.07 397.859 414.074C397.78 414.08 397.709 414.08 397.643 414.08ZM388.811 409.958C389.084 410.177 389.382 410.379 389.693 410.569L389.969 410.727C390.225 410.873 390.479 411.005 390.742 411.127L391.055 411.269C391.424 411.427 391.799 411.575 392.193 411.701C392.751 411.881 393.377 412.035 394.055 412.162L394.062 412.989L394.204 412.194C394.618 412.267 395.037 412.326 395.461 412.37L395.937 412.405C396.167 412.424 396.384 412.442 396.603 412.45L397.191 412.46C397.418 412.461 397.566 412.468 397.71 412.463L398.799 412.411C399.075 412.391 399.273 412.366 399.471 412.339L399.873 412.295C400.179 412.254 400.452 412.202 400.719 412.151L400.776 412.096L401.106 412.094L401.102 412.072C401.417 412.004 401.727 411.931 402.031 411.845L402.231 411.782C402.556 411.685 402.876 411.578 403.186 411.459L403.471 411.341C404.03 411.111 404.466 410.904 404.843 410.685L439.659 390.583C441.525 389.507 442.548 388.126 442.544 386.693L442.18 362C441.614 362.603 440.901 363.157 440.051 363.647L405.233 383.749C404.786 384.008 404.289 384.245 403.67 384.501L403.349 384.633C402.995 384.768 402.638 384.887 402.272 384.997L402.053 385.066C401.717 385.16 401.374 385.243 401.028 385.319L400.701 385.389C400.32 385.46 400.003 385.517 399.685 385.562L399.447 385.591C399.056 385.635 398.785 385.668 398.512 385.689L398.039 385.714C397.803 385.728 397.562 385.742 397.321 385.744L396.763 385.742C396.55 385.74 396.334 385.739 396.12 385.73C395.905 385.721 395.691 385.706 395.479 385.689L394.879 385.645C394.411 385.596 393.954 385.531 393.503 385.451L393.366 385.423C392.596 385.278 391.905 385.106 391.281 384.907C390.835 384.764 390.41 384.598 389.998 384.421L389.748 384.307C389.333 384.113 389.04 383.964 388.756 383.802L388.428 383.612C388.053 383.381 387.698 383.14 387.373 382.877L353.657 355.561C353.392 355.346 353.166 355.122 352.953 354.895L353.314 379.518C353.321 379.773 353.339 379.941 353.374 380.11L353.493 380.518C353.569 380.745 353.638 380.879 353.709 381.012L353.801 381.213C353.868 381.317 353.994 381.505 354.139 381.691C354.269 381.833 354.316 381.882 354.365 381.93L354.592 382.178C354.64 382.233 354.687 382.29 354.746 382.343C354.855 382.445 354.97 382.543 355.087 382.639L388.811 409.958ZM401.119 412.488L401.275 412.863L401.119 412.139V412.488Z" fill="#53A5F8"/>
<path d="M396.962 385.733C393.32 385.733 389.699 384.763 387.379 382.881L353.657 355.562C352.001 354.222 351.162 352.541 351.296 350.831C351.444 348.935 352.754 347.181 354.98 345.896L376.71 333.351C380.826 330.974 387.205 330.684 391.88 332.655L438.688 352.419C441.753 353.714 443.593 355.779 443.737 358.087C443.867 360.197 442.526 362.225 440.054 363.653L405.237 383.755C402.929 385.084 399.937 385.733 396.962 385.733ZM355.789 347.293C354.035 348.305 353.012 349.606 352.906 350.957C352.814 352.138 353.424 353.296 354.673 354.308L388.394 381.627C392.161 384.68 399.803 385.023 404.426 382.354L439.243 362.252C441.192 361.126 442.214 359.682 442.121 358.184C442.017 356.51 440.536 354.95 438.058 353.903L391.25 334.139C387.069 332.381 381.168 332.638 377.516 334.747L355.789 347.293Z" fill="#6BD2FE"/>
<path d="M303.114 233.297C303.097 233.362 303.078 233.427 303.058 233.491C302.981 233.751 302.88 234.009 302.745 234.264C302.729 234.295 302.718 234.329 302.7 234.362C302.547 234.637 302.352 234.907 302.132 235.173C302.052 235.27 301.955 235.364 301.865 235.46C301.648 235.691 301.427 235.922 301.156 236.141L267.435 263.462C267.137 263.702 266.811 263.923 266.47 264.133C266.369 264.195 266.264 264.252 266.16 264.312C265.896 264.462 265.622 264.604 265.336 264.735C265.224 264.786 265.115 264.84 265 264.889C264.611 265.056 264.209 265.213 263.791 265.346L263.789 265.347C263.163 265.548 262.505 265.706 261.834 265.832C261.78 265.841 261.728 265.855 261.674 265.865C261.243 265.941 260.802 266.003 260.359 266.049C260.194 266.066 260.028 266.075 259.862 266.088C259.631 266.106 259.398 266.125 259.166 266.134C258.961 266.142 258.755 266.142 258.55 266.145C258.37 266.146 258.191 266.15 258.011 266.147C257.781 266.143 257.553 266.129 257.323 266.117C257.174 266.109 257.023 266.104 256.875 266.093C256.612 266.073 256.35 266.042 256.088 266.01C255.976 265.996 255.861 265.988 255.749 265.973C255.443 265.93 255.14 265.875 254.839 265.816C254.769 265.803 254.697 265.794 254.628 265.779C254.572 265.768 254.518 265.751 254.463 265.739C254.133 265.667 253.805 265.589 253.485 265.499C253.415 265.48 253.347 265.454 253.276 265.433C252.932 265.331 252.593 265.217 252.263 265.091C252.159 265.051 252.058 265.007 251.957 264.965C251.446 264.756 250.951 264.528 250.491 264.262L215.674 244.16L215.672 244.574L215.674 244.158C213.46 242.88 212.381 241.218 212.385 239.566L211.969 337.506C211.965 339.157 213.043 340.819 215.257 342.098L250.074 362.2C250.534 362.466 251.031 362.693 251.54 362.903C251.596 362.926 251.643 362.957 251.698 362.98C251.747 362.999 251.799 363.011 251.848 363.029C252.177 363.155 252.515 363.269 252.861 363.371C252.919 363.389 252.973 363.413 253.031 363.43C253.044 363.434 253.058 363.435 253.07 363.439C253.39 363.529 253.718 363.607 254.049 363.679C254.102 363.69 254.153 363.706 254.207 363.717C254.21 363.717 254.211 363.717 254.214 363.719C254.284 363.733 254.356 363.742 254.427 363.756C254.716 363.812 255.008 363.867 255.303 363.908C255.314 363.91 255.325 363.911 255.335 363.913C255.447 363.928 255.562 363.936 255.674 363.95C255.911 363.979 256.148 364.01 256.386 364.029C256.411 364.032 256.436 364.03 256.461 364.033C256.612 364.044 256.762 364.05 256.913 364.057C257.104 364.068 257.294 364.083 257.487 364.087C257.524 364.088 257.56 364.086 257.597 364.087C257.779 364.091 257.959 364.086 258.14 364.084C258.305 364.083 258.469 364.088 258.633 364.082C258.673 364.08 258.713 364.075 258.753 364.073C258.987 364.064 259.218 364.044 259.45 364.026C259.59 364.015 259.731 364.012 259.871 363.998C259.897 363.996 259.92 363.99 259.947 363.987C260.391 363.942 260.831 363.881 261.263 363.803C261.283 363.801 261.302 363.799 261.321 363.795C261.355 363.789 261.385 363.777 261.42 363.771C262.093 363.645 262.752 363.488 263.377 363.287C263.797 363.153 264.197 362.996 264.587 362.829C264.702 362.78 264.812 362.726 264.924 362.675C265.209 362.542 265.483 362.401 265.748 362.25C265.814 362.213 265.89 362.182 265.955 362.143C265.991 362.121 266.022 362.095 266.058 362.073C266.398 361.864 266.725 361.644 267.023 361.401L300.745 334.081C300.879 333.971 301.007 333.862 301.128 333.75C301.252 333.636 301.344 333.516 301.454 333.4C301.544 333.304 301.639 333.21 301.72 333.113C301.75 333.076 301.793 333.04 301.822 333.002C301.994 332.785 302.143 332.562 302.269 332.338C302.276 332.327 302.279 332.314 302.286 332.302C302.304 332.268 302.315 332.235 302.333 332.202C302.419 332.037 302.503 331.872 302.565 331.705C302.6 331.614 302.617 331.522 302.644 331.429C302.664 331.364 302.684 331.301 302.7 331.236C302.712 331.183 302.734 331.132 302.744 331.079C302.787 330.867 302.81 330.654 302.817 330.441C302.817 330.409 302.819 330.376 302.819 330.344L303.235 232.404C303.231 232.703 303.184 233.001 303.114 233.297Z" fill="#53A5F8"/>
<path d="M299.935 227.801C303.811 230.039 304.332 233.57 301.154 236.141L267.434 263.461C263.439 266.697 255.37 267.077 250.488 264.26L215.671 244.158C210.814 241.354 211.42 236.701 216.944 234.368L263.752 214.604C268.18 212.737 274.31 213.008 278.203 215.255L299.935 227.801Z" fill="#73CFFE"/>
<path d="M397.225 266.133C396.672 266.122 396.119 266.094 395.574 266.036C395.481 266.026 395.388 266.016 395.296 266.004C394.691 265.931 394.097 265.827 393.516 265.695C393.406 265.67 393.298 265.643 393.188 265.615C392.662 265.485 392.153 265.327 391.663 265.15C391.574 265.118 391.479 265.092 391.391 265.058C390.8 264.83 390.238 264.568 389.719 264.269C389.309 264.033 388.923 263.774 388.57 263.493L354.287 236.31C352.84 235.161 352.133 233.818 352.135 232.482L351.719 330.422C351.715 331.758 352.423 333.101 353.87 334.25L388.153 361.432C388.508 361.713 388.892 361.972 389.304 362.209C389.798 362.494 390.328 362.748 390.889 362.968C390.917 362.979 390.948 362.986 390.976 362.997C391.065 363.031 391.159 363.056 391.247 363.088C391.573 363.206 391.898 363.325 392.239 363.423C392.413 363.473 392.596 363.51 392.774 363.555C392.884 363.582 392.992 363.61 393.103 363.635C393.205 363.659 393.303 363.688 393.407 363.71C393.773 363.786 394.144 363.85 394.519 363.904C394.638 363.92 394.76 363.93 394.88 363.944C394.973 363.955 395.066 363.965 395.16 363.976C395.309 363.991 395.458 364.013 395.608 364.025C395.974 364.056 396.342 364.075 396.712 364.085C396.811 364.088 396.913 364.082 397.012 364.084C397.084 364.084 397.156 364.084 397.227 364.082V266.133H397.225Z" fill="#8CE2FE"/>
<path d="M301.154 236.143L267.433 263.463C263.439 266.699 255.369 267.079 250.487 264.262L215.67 244.16C213.819 243.091 212.767 241.754 212.473 240.379C212.093 242.266 213.123 244.246 215.67 245.717L250.487 265.82C255.369 268.637 263.439 268.258 267.433 265.021L301.154 237.7C302.825 236.348 303.463 234.731 303.138 233.176C302.92 234.218 302.27 235.24 301.154 236.143Z" fill="#DCFBFF"/>
<path d="M443.281 239.949C443.27 240.068 443.262 240.185 443.241 240.305C443.223 240.399 443.196 240.493 443.171 240.587C443.142 240.698 443.114 240.81 443.075 240.921C443.043 241.012 443 241.102 442.962 241.192C442.912 241.307 442.861 241.423 442.8 241.537C442.754 241.621 442.701 241.703 442.65 241.786C442.57 241.915 442.485 242.043 442.391 242.169C442.334 242.246 442.272 242.322 442.21 242.396C442.067 242.568 441.909 242.737 441.739 242.903C441.677 242.963 441.621 243.024 441.556 243.083C441.45 243.179 441.332 243.271 441.216 243.364C441.112 243.447 441.012 243.532 440.902 243.612C440.777 243.703 440.637 243.791 440.503 243.878C440.362 243.969 440.227 244.065 440.075 244.153L405.485 264.255C404.993 264.541 404.457 264.782 403.908 265.003C403.767 265.06 403.623 265.114 403.477 265.166C403.135 265.29 402.777 265.388 402.419 265.488C402.055 265.589 401.69 265.686 401.313 265.763C400.845 265.859 400.373 265.946 399.892 266.004C399.799 266.015 399.709 266.033 399.616 266.043C398.987 266.109 398.352 266.14 397.717 266.142C397.621 266.142 397.524 266.144 397.429 266.144C396.807 266.138 396.187 266.101 395.575 266.036C395.482 266.026 395.389 266.016 395.297 266.004C394.692 265.931 394.098 265.827 393.518 265.695C393.407 265.67 393.299 265.643 393.189 265.615C392.663 265.485 392.154 265.327 391.664 265.15C391.575 265.118 391.48 265.092 391.392 265.058C390.801 264.83 390.239 264.568 389.72 264.269C389.31 264.033 388.924 263.774 388.571 263.493L354.288 236.31C352.841 235.161 352.134 233.818 352.136 232.482L351.72 330.422C351.716 331.758 352.424 333.101 353.871 334.25L388.154 361.432C388.509 361.713 388.893 361.972 389.305 362.209C389.799 362.494 390.329 362.748 390.89 362.969C390.918 362.98 390.949 362.987 390.977 362.998C391.066 363.033 391.16 363.058 391.248 363.09C391.574 363.207 391.899 363.328 392.24 363.425C392.414 363.474 392.597 363.512 392.775 363.556C392.885 363.584 392.993 363.611 393.104 363.636C393.206 363.66 393.304 363.689 393.408 363.711C393.774 363.787 394.145 363.851 394.52 363.905C394.639 363.922 394.761 363.931 394.881 363.945C394.974 363.956 395.067 363.966 395.161 363.977C395.31 363.994 395.459 364.014 395.609 364.027C395.975 364.057 396.343 364.077 396.713 364.086C396.813 364.089 396.914 364.084 397.013 364.085C397.11 364.086 397.206 364.085 397.303 364.084C397.488 364.082 397.672 364.088 397.858 364.081C398.272 364.067 398.686 364.039 399.097 363.998C399.133 363.994 399.166 363.987 399.202 363.983C399.295 363.973 399.385 363.955 399.478 363.944C399.824 363.902 400.171 363.861 400.512 363.8C400.645 363.776 400.768 363.731 400.899 363.704C401.277 363.627 401.641 363.531 402.006 363.429C402.208 363.372 402.422 363.34 402.619 363.276C402.771 363.227 402.912 363.163 403.062 363.109C403.207 363.056 403.35 363.002 403.492 362.946C404.043 362.725 404.578 362.485 405.069 362.198L439.66 342.096C439.705 342.07 439.751 342.042 439.795 342.016C439.899 341.953 439.988 341.885 440.086 341.822C440.222 341.733 440.36 341.646 440.486 341.554C440.597 341.474 440.697 341.39 440.8 341.307C440.917 341.214 441.034 341.121 441.141 341.026C441.162 341.008 441.188 340.99 441.207 340.97C441.252 340.93 441.281 340.886 441.324 340.846C441.494 340.68 441.652 340.512 441.794 340.339C441.825 340.302 441.868 340.267 441.897 340.23C441.927 340.191 441.947 340.151 441.976 340.112C442.07 339.986 442.154 339.857 442.235 339.728C442.268 339.674 442.312 339.622 442.343 339.566C442.359 339.537 442.369 339.507 442.384 339.478C442.445 339.363 442.496 339.248 442.546 339.133C442.575 339.067 442.614 339.002 442.639 338.934C442.649 338.909 442.651 338.885 442.66 338.86C442.699 338.75 442.726 338.637 442.755 338.525C442.775 338.452 442.804 338.38 442.818 338.307C442.822 338.286 442.82 338.265 442.825 338.244C442.847 338.125 442.855 338.005 442.866 337.886C442.873 337.812 442.89 337.739 442.891 337.666C442.892 337.632 442.892 337.601 442.892 337.567L443.309 239.628C443.308 239.736 443.291 239.842 443.281 239.949Z" fill="#53A5F8"/>
<path d="M440.035 235.031C444.312 237.501 444.478 241.599 440.075 244.157L405.485 264.259C401.075 266.822 394.001 266.742 389.721 264.272C389.312 264.035 388.925 263.776 388.572 263.495L354.289 236.313C351.051 233.742 351.515 230.192 355.375 227.949L376.971 215.399C380.814 213.166 386.908 212.876 391.358 214.724L438.634 234.346C439.141 234.556 439.607 234.786 440.035 235.031Z" fill="#A7EAFD"/>
<path d="M397.625 260.47C395.331 260.47 393.037 259.966 391.286 258.954C390.944 258.756 390.621 258.539 390.325 258.303L364.475 237.806C363.139 236.746 362.459 235.407 362.557 234.034C362.665 232.543 363.672 231.174 365.388 230.174L381.672 220.711C384.787 218.899 389.649 218.667 393.232 220.155L428.878 234.95C429.294 235.123 429.676 235.312 430.028 235.515C431.85 236.567 432.897 238.079 432.899 239.666C432.901 241.258 431.893 242.723 430.06 243.789L403.978 258.944C402.228 259.962 399.927 260.47 397.625 260.47ZM388.017 220.793C385.986 220.793 383.972 221.237 382.481 222.104L366.197 231.568C364.954 232.289 364.231 233.209 364.162 234.152C364.101 234.989 364.555 235.817 365.474 236.547L391.322 257.042C391.559 257.227 391.816 257.402 392.092 257.561C395.101 259.297 400.174 259.294 403.17 257.553L429.251 242.396C430.567 241.632 431.291 240.664 431.289 239.669C431.288 238.672 430.535 237.667 429.222 236.908H429.221C428.929 236.738 428.61 236.581 428.263 236.437L392.616 221.642C391.243 221.073 389.624 220.793 388.017 220.793Z" fill="#53A5F8"/>
<path d="M440.075 244.157L405.484 264.259C401.075 266.822 394 266.741 389.721 264.271C389.31 264.035 388.925 263.774 388.571 263.495L354.288 236.313C353.127 235.392 352.452 234.345 352.228 233.279C351.899 234.858 352.564 236.502 354.288 237.87L388.571 265.052C388.925 265.333 389.31 265.592 389.721 265.829C394 268.3 401.075 268.379 405.484 265.817L440.075 245.714C442.601 244.247 443.615 242.271 443.219 240.387C442.936 241.759 441.908 243.092 440.075 244.157Z" fill="#DCFBFF"/>
<path d="M258.192 139.849C255.964 139.754 253.674 140.172 251.951 141.174L227.116 155.606C223.95 157.445 224.069 160.389 227.14 162.161C227.446 162.338 227.781 162.503 228.146 162.654L258.192 175.123V139.849Z" fill="#73CFFE"/>
<path d="M424.517 284.646C424.517 286.206 423.422 288.101 422.072 288.882C420.721 289.662 419.627 289.03 419.627 287.47C419.627 285.911 420.722 284.014 422.072 283.235C423.422 282.454 424.517 283.087 424.517 284.646Z" fill="#A7EAFD"/>
<path opacity="0.8" d="M424.517 293.801C424.517 295.36 423.422 297.256 422.072 298.036C420.721 298.815 419.627 298.184 419.627 296.624C419.627 295.065 420.722 293.168 422.072 292.389C423.422 291.609 424.517 292.24 424.517 293.801Z" fill="#A7EAFD"/>
<path opacity="0.6" d="M424.517 302.952C424.517 304.513 423.422 306.408 422.072 307.189C420.721 307.968 419.627 307.337 419.627 305.777C419.627 304.216 420.722 302.321 422.072 301.542C423.422 300.761 424.517 301.393 424.517 302.952Z" fill="#A7EAFD"/>
<path opacity="0.3" d="M424.517 312.11C424.517 313.669 423.422 315.566 422.072 316.345C420.721 317.124 419.627 316.493 419.627 314.933C419.627 313.374 420.722 311.477 422.072 310.698C423.422 309.917 424.517 310.55 424.517 312.11Z" fill="#A7EAFD"/>
<path opacity="0.1" d="M424.517 321.261C424.517 322.821 423.422 324.717 422.072 325.498C420.721 326.277 419.627 325.646 419.627 324.085C419.627 322.527 420.722 320.63 422.072 319.85C423.422 319.07 424.517 319.701 424.517 321.261Z" fill="#A7EAFD"/>
<path d="M202.781 138.993C202.781 140.554 201.686 142.449 200.337 143.23C198.985 144.009 197.892 143.378 197.892 141.818C197.892 140.259 198.987 138.362 200.337 137.583C201.686 136.802 202.781 137.434 202.781 138.993Z" fill="#A7EAFD"/>
<path opacity="0.8" d="M202.781 148.15C202.781 149.709 201.686 151.605 200.337 152.385C198.985 153.164 197.892 152.533 197.892 150.973C197.892 149.412 198.987 147.517 200.337 146.736C201.686 145.956 202.781 146.591 202.781 148.15Z" fill="#A7EAFD"/>
<path opacity="0.6" d="M202.781 157.303C202.781 158.862 201.686 160.759 200.337 161.538C198.985 162.318 197.892 161.686 197.892 160.126C197.892 158.567 198.987 156.671 200.337 155.89C201.686 155.112 202.781 155.743 202.781 157.303Z" fill="#A7EAFD"/>
<path opacity="0.3" d="M202.781 166.457C202.781 168.016 201.686 169.912 200.337 170.692C198.985 171.471 197.892 170.84 197.892 169.28C197.892 167.721 198.987 165.824 200.337 165.045C201.686 164.265 202.781 164.898 202.781 166.457Z" fill="#A7EAFD"/>
<path opacity="0.1" d="M202.781 175.611C202.781 177.171 201.686 179.066 200.337 179.847C198.985 180.627 197.892 179.995 197.892 178.435C197.892 176.876 198.987 174.98 200.337 174.2C201.686 173.419 202.781 174.051 202.781 175.611Z" fill="#A7EAFD"/>
<path d="M204.435 288.827C195.606 283.73 190.744 276.934 190.745 269.692C190.745 262.448 195.607 255.651 204.436 250.556C222.533 240.105 251.983 240.103 270.082 250.554L269.761 251.111C251.839 240.764 222.68 240.765 204.758 251.112C196.138 256.091 191.39 262.688 191.39 269.692C191.39 276.696 196.138 283.292 204.757 288.271L204.435 288.827Z" fill="url(#paint5_linear_3397_28264)"/>
<path d="M204.435 304.608C195.607 299.512 190.745 292.716 190.745 285.474C190.745 278.23 195.607 271.433 204.436 266.336C222.533 255.885 251.985 255.885 270.082 266.336L269.761 266.893C251.839 256.547 222.68 256.547 204.758 266.893C196.138 271.871 191.39 278.47 191.39 285.474C191.392 292.478 196.138 299.074 204.757 304.051L204.435 304.608Z" fill="url(#paint6_linear_3397_28264)"/>
<path d="M204.435 320.388C195.607 315.292 190.745 308.496 190.745 301.252C190.745 294.009 195.607 287.213 204.436 282.116C222.535 271.665 251.985 271.664 270.082 282.115L269.761 282.672C251.841 272.327 222.681 272.328 204.758 282.673C196.138 287.651 191.39 294.248 191.39 301.252C191.39 308.256 196.138 314.854 204.757 319.831L204.435 320.388Z" fill="url(#paint7_linear_3397_28264)"/>
<path d="M204.435 336.172C195.607 331.076 190.745 324.28 190.745 317.038C190.745 309.795 195.607 302.997 204.436 297.901C222.533 287.45 251.985 287.45 270.082 297.901L269.761 298.457C251.839 288.111 222.68 288.111 204.758 298.457C196.138 303.436 191.39 310.034 191.39 317.038C191.392 324.042 196.138 330.639 204.757 335.616L204.435 336.172Z" fill="url(#paint8_linear_3397_28264)"/>
<path d="M203.257 288.548C203.257 289.287 203.856 289.887 204.597 289.887C205.336 289.887 205.936 289.287 205.936 288.548C205.936 287.808 205.336 287.209 204.597 287.209C203.856 287.209 203.257 287.808 203.257 288.548Z" fill="#A7EAFD"/>
<path d="M204.598 305.67C205.337 305.67 205.936 305.07 205.936 304.331C205.936 303.592 205.337 302.992 204.598 302.992C203.858 302.992 203.259 303.592 203.259 304.331C203.259 305.07 203.858 305.67 204.598 305.67Z" fill="#A7EAFD"/>
<path d="M204.598 321.451C205.337 321.451 205.936 320.852 205.936 320.112C205.936 319.373 205.337 318.773 204.598 318.773C203.858 318.773 203.259 319.373 203.259 320.112C203.259 320.852 203.858 321.451 204.598 321.451Z" fill="#A7EAFD"/>
<path d="M204.598 337.23C205.337 337.23 205.936 336.631 205.936 335.891C205.936 335.152 205.337 334.553 204.598 334.553C203.858 334.553 203.259 335.152 203.259 335.891C203.259 336.631 203.858 337.23 204.598 337.23Z" fill="#A7EAFD"/>
<path d="M483.914 343.477C485.297 343.477 486.679 344.566 487.003 345.915C487.328 347.269 486.463 348.369 485.07 348.369C483.678 348.369 482.293 347.269 481.977 345.915C481.663 344.566 482.531 343.477 483.914 343.477Z" fill="#81DAFE"/>
<path opacity="0.8" d="M482.082 335.736C483.449 335.736 484.814 336.801 485.129 338.119C485.446 339.442 484.589 340.518 483.213 340.518C481.837 340.518 480.469 339.442 480.162 338.119C479.854 336.8 480.716 335.736 482.082 335.736Z" fill="#81DAFE"/>
<path opacity="0.6" d="M480.292 328.162C481.644 328.162 482.991 329.203 483.299 330.492C483.609 331.785 482.759 332.837 481.398 332.837C480.038 332.837 478.689 331.785 478.387 330.492C478.087 329.203 478.941 328.162 480.292 328.162Z" fill="#81DAFE"/>
<path opacity="0.4" d="M478.54 320.762C479.877 320.762 481.205 321.779 481.507 323.039C481.811 324.305 480.967 325.333 479.621 325.333C478.275 325.333 476.943 324.305 476.65 323.039C476.356 321.781 477.204 320.762 478.54 320.762Z" fill="#81DAFE"/>
<path opacity="0.2" d="M476.83 313.52C478.152 313.52 479.463 314.515 479.759 315.748C480.057 316.986 479.219 317.993 477.887 317.993C476.557 317.993 475.243 316.986 474.955 315.748C474.667 314.516 475.506 313.52 476.83 313.52Z" fill="#81DAFE"/>
<path d="M463.578 343.477C464.961 343.477 466.311 344.566 466.595 345.915C466.88 347.269 465.983 348.369 464.59 348.369C463.197 348.369 461.845 347.269 461.571 345.915C461.297 344.566 462.196 343.477 463.578 343.477Z" fill="#81DAFE"/>
<path opacity="0.8" d="M461.977 335.736C463.343 335.736 464.677 336.801 464.954 338.119C465.232 339.442 464.343 340.518 462.966 340.518C461.589 340.518 460.255 339.442 459.986 338.119C459.718 336.8 460.609 335.736 461.977 335.736Z" fill="#81DAFE"/>
<path opacity="0.6" d="M460.412 328.162C461.763 328.162 463.078 329.203 463.349 330.492C463.622 331.785 462.74 332.837 461.378 332.837C460.017 332.837 458.699 331.785 458.436 330.492C458.176 329.203 459.06 328.162 460.412 328.162Z" fill="#81DAFE"/>
<path opacity="0.4" d="M458.881 320.762C460.218 320.762 461.516 321.779 461.781 323.039C462.047 324.305 461.174 325.333 459.826 325.333C458.481 325.333 457.181 324.305 456.923 323.039C456.667 321.781 457.545 320.762 458.881 320.762Z" fill="#81DAFE"/>
<path opacity="0.2" d="M457.384 313.52C458.707 313.52 459.989 314.515 460.247 315.748C460.508 316.986 459.641 317.993 458.309 317.993C456.979 317.993 455.694 316.986 455.443 315.748C455.193 314.516 456.062 313.52 457.384 313.52Z" fill="#81DAFE"/>
<path d="M180.348 343.477C181.731 343.477 182.629 344.566 182.357 345.915C182.081 347.269 180.729 348.369 179.336 348.369C177.943 348.369 177.046 347.269 177.331 345.915C177.615 344.566 178.965 343.477 180.348 343.477Z" fill="#81DAFE"/>
<path opacity="0.8" d="M181.949 335.736C183.315 335.736 184.208 336.801 183.94 338.119C183.671 339.442 182.336 340.518 180.959 340.518C179.581 340.518 178.693 339.441 178.971 338.119C179.251 336.8 180.582 335.736 181.949 335.736Z" fill="#81DAFE"/>
<path opacity="0.6" d="M183.514 328.162C184.865 328.162 185.75 329.203 185.488 330.492C185.225 331.785 183.909 332.837 182.548 332.837C181.187 332.837 180.305 331.785 180.576 330.492C180.848 329.203 182.163 328.162 183.514 328.162Z" fill="#81DAFE"/>
<path opacity="0.4" d="M185.045 320.762C186.382 320.762 187.258 321.779 187.002 323.039C186.745 324.305 185.445 325.333 184.099 325.333C182.753 325.333 181.878 324.305 182.144 323.039C182.41 321.781 183.707 320.762 185.045 320.762Z" fill="#81DAFE"/>
<path opacity="0.2" d="M186.542 313.52C187.864 313.52 188.734 314.515 188.483 315.748C188.231 316.986 186.948 317.993 185.617 317.993C184.285 317.993 183.419 316.986 183.679 315.748C183.939 314.516 185.22 313.52 186.542 313.52Z" fill="#81DAFE"/>
<path d="M160.013 343.477C161.396 343.477 162.262 344.566 161.948 345.915C161.633 347.269 160.248 348.369 158.855 348.369C157.463 348.369 156.599 347.269 156.924 345.915C157.247 344.566 158.63 343.477 160.013 343.477Z" fill="#81DAFE"/>
<path opacity="0.8" d="M161.844 335.736C163.21 335.736 164.072 336.801 163.764 338.119C163.455 339.442 162.089 340.518 160.713 340.518C159.337 340.518 158.478 339.441 158.797 338.119C159.114 336.8 160.478 335.736 161.844 335.736Z" fill="#81DAFE"/>
<path opacity="0.6" d="M163.635 328.162C164.986 328.162 165.84 329.203 165.54 330.492C165.239 331.785 163.889 332.837 162.529 332.837C161.168 332.837 160.316 331.785 160.628 330.492C160.938 329.203 162.284 328.162 163.635 328.162Z" fill="#81DAFE"/>
<path opacity="0.4" d="M165.383 320.762C166.721 320.762 167.567 321.779 167.273 323.039C166.978 324.305 165.648 325.333 164.302 325.333C162.956 325.333 162.112 324.305 162.415 323.039C162.718 321.781 164.046 320.762 165.383 320.762Z" fill="#81DAFE"/>
<path opacity="0.2" d="M167.098 313.52C168.42 313.52 169.26 314.515 168.972 315.748C168.684 316.986 167.37 317.993 166.04 317.993C164.708 317.993 163.872 316.986 164.168 315.748C164.464 314.516 165.775 313.52 167.098 313.52Z" fill="#81DAFE"/>
<defs>
<linearGradient id="paint0_linear_3397_28264" x1="40.7328" y1="460.262" x2="609.069" y2="460.262" gradientUnits="userSpaceOnUse">
<stop stop-color="#2D0244"/>
<stop offset="0.3433" stop-color="#53A5F8"/>
<stop offset="0.3807" stop-color="#6ABDFA"/>
<stop offset="0.4236" stop-color="#7DD2FC"/>
<stop offset="0.4663" stop-color="#88DEFE"/>
<stop offset="0.5079" stop-color="#8CE2FE"/>
<stop offset="0.5578" stop-color="#79CEFC"/>
<stop offset="0.6687" stop-color="#53A5F8"/>
<stop offset="0.7337" stop-color="#497CCA"/>
<stop offset="0.8246" stop-color="#3D4891"/>
<stop offset="0.9025" stop-color="#342267"/>
<stop offset="0.9635" stop-color="#2F0B4E"/>
<stop offset="1" stop-color="#2D0244"/>
</linearGradient>
<radialGradient id="paint1_radial_3397_28264" cx="0" cy="0" r="1" gradientUnits="userSpaceOnUse" gradientTransform="translate(324.901 290.164) scale(289.704)">
<stop stop-color="#53A5F8"/>
<stop offset="0.3113" stop-color="#4875C3"/>
<stop offset="1" stop-color="#2D0244"/>
</radialGradient>
<radialGradient id="paint2_radial_3397_28264" cx="0" cy="0" r="1" gradientUnits="userSpaceOnUse" gradientTransform="translate(321.963 290.165) scale(287.106)">
<stop stop-color="#76D6FD"/>
<stop offset="0.0226" stop-color="#73CFF6"/>
<stop offset="0.2224" stop-color="#5D91BF"/>
<stop offset="0.4141" stop-color="#4B5E91"/>
<stop offset="0.5926" stop-color="#3D366E"/>
<stop offset="0.7552" stop-color="#321A54"/>
<stop offset="0.8962" stop-color="#2C0845"/>
<stop offset="1" stop-color="#2A023F"/>
</radialGradient>
<radialGradient id="paint3_radial_3397_28264" cx="0" cy="0" r="1" gradientUnits="userSpaceOnUse" gradientTransform="translate(135.593 278.744) rotate(-90) scale(343.757 463.347)">
<stop stop-color="#3E068D"/>
<stop offset="1" stop-color="#29013E"/>
</radialGradient>
<radialGradient id="paint4_radial_3397_28264" cx="0" cy="0" r="1" gradientUnits="userSpaceOnUse" gradientTransform="translate(440.065 270.269) scale(152.928 152.929)">
<stop stop-color="#8CE2FE"/>
<stop offset="0.1237" stop-color="#79CEFC"/>
<stop offset="0.3988" stop-color="#53A5F8"/>
<stop offset="0.488" stop-color="#4F93E4"/>
<stop offset="0.6715" stop-color="#4463AF"/>
<stop offset="0.9309" stop-color="#32175B"/>
<stop offset="1" stop-color="#2D0244"/>
</radialGradient>
<linearGradient id="paint5_linear_3397_28264" x1="270.082" y1="265.771" x2="190.745" y2="265.771" gradientUnits="userSpaceOnUse">
<stop stop-color="#2D0244"/>
<stop offset="0.1206" stop-color="#2E0648"/>
<stop offset="0.2442" stop-color="#301154"/>
<stop offset="0.3691" stop-color="#352369"/>
<stop offset="0.495" stop-color="#3B3D86"/>
<stop offset="0.6218" stop-color="#435FAB"/>
<stop offset="0.7474" stop-color="#4C88D7"/>
<stop offset="0.8274" stop-color="#53A5F8"/>
<stop offset="0.9465" stop-color="#79CEFC"/>
<stop offset="1" stop-color="#8CE2FE"/>
</linearGradient>
<linearGradient id="paint6_linear_3397_28264" x1="270.082" y1="281.553" x2="190.745" y2="281.553" gradientUnits="userSpaceOnUse">
<stop stop-color="#2D0244"/>
<stop offset="0.1206" stop-color="#2E0648"/>
<stop offset="0.2442" stop-color="#301154"/>
<stop offset="0.3691" stop-color="#352369"/>
<stop offset="0.495" stop-color="#3B3D86"/>
<stop offset="0.6218" stop-color="#435FAB"/>
<stop offset="0.7474" stop-color="#4C88D7"/>
<stop offset="0.8274" stop-color="#53A5F8"/>
<stop offset="0.9465" stop-color="#79CEFC"/>
<stop offset="1" stop-color="#8CE2FE"/>
</linearGradient>
<linearGradient id="paint7_linear_3397_28264" x1="270.082" y1="297.333" x2="190.745" y2="297.333" gradientUnits="userSpaceOnUse">
<stop stop-color="#2D0244"/>
<stop offset="0.1206" stop-color="#2E0648"/>
<stop offset="0.2442" stop-color="#301154"/>
<stop offset="0.3691" stop-color="#352369"/>
<stop offset="0.495" stop-color="#3B3D86"/>
<stop offset="0.6218" stop-color="#435FAB"/>
<stop offset="0.7474" stop-color="#4C88D7"/>
<stop offset="0.8274" stop-color="#53A5F8"/>
<stop offset="0.9465" stop-color="#79CEFC"/>
<stop offset="1" stop-color="#8CE2FE"/>
</linearGradient>
<linearGradient id="paint8_linear_3397_28264" x1="270.082" y1="313.117" x2="190.745" y2="313.117" gradientUnits="userSpaceOnUse">
<stop stop-color="#2D0244"/>
<stop offset="0.1206" stop-color="#2E0648"/>
<stop offset="0.2442" stop-color="#301154"/>
<stop offset="0.3691" stop-color="#352369"/>
<stop offset="0.495" stop-color="#3B3D86"/>
<stop offset="0.6218" stop-color="#435FAB"/>
<stop offset="0.7474" stop-color="#4C88D7"/>
<stop offset="0.8274" stop-color="#53A5F8"/>
<stop offset="0.9465" stop-color="#79CEFC"/>
<stop offset="1" stop-color="#8CE2FE"/>
</linearGradient>
</defs>
</svg>
