<svg width="580" height="508" viewBox="0 0 580 508" fill="none" xmlns="http://www.w3.org/2000/svg">
<path d="M120.847 249.208C112.749 257.31 112.749 270.447 120.847 278.549C128.946 286.652 142.076 286.652 150.174 278.549C158.273 270.447 158.273 257.31 150.174 249.208C142.076 241.105 128.947 241.105 120.847 249.208Z" fill="url(#paint0_linear_3350_34634)"/>
<path d="M226.265 321.355L210.331 299.006C214.022 290.891 216.351 282.366 217.35 273.749L242.534 262.84L239.571 238.541L212.506 234.01C209.466 225.886 205.156 218.171 199.623 211.181L209.72 185.656L190.451 170.569L168.114 186.51C160.003 182.817 151.482 180.487 142.869 179.487L131.966 154.291L107.679 157.255L103.15 184.335C95.0292 187.377 87.3187 191.688 80.3315 197.224L54.8189 187.123L39.7399 206.401L55.6733 228.749C51.9819 236.864 49.6533 245.389 48.6534 254.007L23.4697 264.915L26.4326 289.214L53.498 293.745C56.5382 301.87 60.8469 309.584 66.3808 316.574L56.284 342.1L75.5524 357.186L97.8899 341.245C106.001 344.938 114.522 347.268 123.135 348.268L134.038 373.464L158.325 370.5L162.854 343.421C170.975 340.379 178.685 336.067 185.672 330.532L211.185 340.634L226.265 321.355ZM166.037 289.741C151.76 307.993 125.397 311.211 107.153 296.927C88.9095 282.643 85.6938 256.267 99.9708 238.014C114.248 219.762 140.611 216.544 158.855 230.828C177.097 245.112 180.313 271.488 166.037 289.741Z" fill="url(#paint1_linear_3350_34634)"/>
<path d="M463.151 164.907C457.799 168.44 456.324 175.646 459.857 181C463.388 186.354 470.59 187.831 475.942 184.296C481.294 180.763 482.769 173.557 479.236 168.204C475.703 162.848 468.503 161.373 463.151 164.907Z" fill="url(#paint2_linear_3350_34634)"/>
<path d="M517.059 172.9C516.89 168.046 515.975 163.183 514.281 158.489L524.181 146.736L516.636 135.297L501.943 139.782C498.294 136.377 494.186 133.624 489.792 131.561L488.485 116.245L475.067 113.494L467.846 127.062C462.995 127.231 458.135 128.147 453.442 129.842L441.695 119.937L430.263 127.486L434.746 142.185C431.343 145.837 428.591 149.947 426.527 154.343L411.219 155.65L408.47 169.075L422.031 176.299C422.2 181.153 423.115 186.016 424.809 190.711L414.909 202.463L422.455 213.902L437.147 209.417C440.797 212.822 444.905 215.575 449.299 217.638L450.605 232.954L464.024 235.705L471.244 222.137C476.095 221.968 480.956 221.052 485.648 219.357L497.395 229.261L508.828 221.712L504.345 207.012C507.749 203.361 510.5 199.251 512.563 194.855L527.871 193.548L530.621 180.121L517.059 172.9ZM482.481 194.21C471.656 201.358 457.09 198.371 449.946 187.542C442.803 176.711 445.787 162.139 456.611 154.991C467.436 147.844 482.001 150.829 489.146 161.659C496.289 172.489 493.305 187.063 482.481 194.21Z" fill="url(#paint3_linear_3350_34634)"/>
<path d="M184.363 382.268L215.153 367.885L152.24 233.092L121.451 247.475L184.363 382.268Z" fill="url(#paint4_linear_3350_34634)"/>
<path d="M52.5625 305.785L81.6801 329.084L143.924 251.215L114.806 227.916L52.5625 305.785Z" fill="url(#paint5_linear_3350_34634)"/>
<path d="M62.5376 335.077L32.1043 353.98L24.6035 399.336L9.25977 339.915L47.773 324.889L62.5376 335.077Z" fill="url(#paint6_linear_3350_34634)"/>
<path d="M62.5381 335.074L87.9236 360.36L85.0013 406.24L113.351 351.814L79.2184 328.482L62.5381 335.074Z" fill="url(#paint7_linear_3350_34634)"/>
<path d="M63.6059 349.798C78.0782 349.798 89.8103 338.06 89.8103 323.581C89.8103 309.101 78.0782 297.363 63.6059 297.363C49.1335 297.363 37.4014 309.101 37.4014 323.581C37.4014 338.06 49.1335 349.798 63.6059 349.798Z" fill="url(#paint8_linear_3350_34634)"/>
<path d="M93.7461 470.569H309.411V413.398H93.7461V470.569Z" fill="url(#paint9_linear_3350_34634)"/>
<path d="M317.777 457.365H85.3789V474.774H317.777V457.365Z" fill="url(#paint10_linear_3350_34634)"/>
<path d="M201.579 344.551C180.369 344.551 163.177 361.752 163.177 382.971V413.401H239.981V382.971C239.981 361.752 222.788 344.551 201.579 344.551Z" fill="url(#paint11_linear_3350_34634)"/>
<path d="M133.683 271.398C154.383 271.398 171.163 254.61 171.163 233.899C171.163 213.189 154.383 196.4 133.683 196.4C112.983 196.4 96.2021 213.189 96.2021 233.899C96.2021 254.61 112.983 271.398 133.683 271.398Z" fill="url(#paint12_linear_3350_34634)"/>
<path d="M201.579 392.685C209.694 392.685 216.272 386.103 216.272 377.984C216.272 369.865 209.694 363.283 201.579 363.283C193.463 363.283 186.885 369.865 186.885 377.984C186.885 386.103 193.463 392.685 201.579 392.685Z" fill="url(#paint13_linear_3350_34634)"/>
<path d="M133.896 248.599C142.011 248.599 148.59 242.017 148.59 233.898C148.59 225.779 142.011 219.197 133.896 219.197C125.781 219.197 119.202 225.779 119.202 233.898C119.202 242.017 125.781 248.599 133.896 248.599Z" fill="url(#paint14_linear_3350_34634)"/>
<path d="M277.872 151.905H48.4815C34.346 151.905 22.8877 140.441 22.8877 126.298V75.0595C22.8877 60.9171 34.346 49.4531 48.4815 49.4531H277.872C292.008 49.4531 303.466 60.9171 303.466 75.0595V126.298C303.466 140.441 292.008 151.905 277.872 151.905Z" stroke="white" stroke-width="1.31106" stroke-miterlimit="10" stroke-linecap="round" stroke-linejoin="round" stroke-dasharray="6.56 6.56"/>
<path d="M519.805 462.109H290.416C276.281 462.109 264.822 450.645 264.822 436.503V385.263C264.822 371.12 276.281 359.656 290.416 359.656H519.807C533.942 359.656 545.4 371.12 545.4 385.263V436.502C545.4 450.644 533.941 462.109 519.805 462.109Z" stroke="white" stroke-width="1.31106" stroke-miterlimit="10" stroke-linecap="round" stroke-linejoin="round" stroke-dasharray="6.56 6.56"/>
<path d="M435.702 89.8184H195.723C189.796 89.8184 184.992 94.6247 184.992 100.555V485.478C184.992 491.407 189.796 496.214 195.723 496.214H435.702C441.629 496.214 446.433 491.407 446.433 485.478V100.555C446.433 94.626 441.628 89.8184 435.702 89.8184Z" fill="url(#paint15_linear_3350_34634)"/>
<path d="M433.701 105.944V457.174C433.701 459.042 432.176 460.568 430.308 460.568H201.122C199.242 460.568 197.729 459.042 197.729 457.174V105.944C197.729 104.075 199.242 102.562 201.122 102.562H430.308C432.176 102.562 433.701 104.075 433.701 105.944Z" fill="url(#paint16_linear_3350_34634)"/>
<path d="M390.876 366.145H242.75C230.402 366.145 220.393 376.16 220.393 388.513C220.393 400.867 230.403 410.881 242.75 410.881H390.876C403.224 410.881 413.233 400.865 413.233 388.513C413.233 376.16 403.223 366.145 390.876 366.145Z" fill="url(#paint17_linear_3350_34634)"/>
<path d="M240.951 376.646H236.82V400.381H240.951V376.646Z" fill="url(#paint18_linear_3350_34634)"/>
<path d="M250.556 381.537H246.426V395.489H250.556V381.537Z" fill="url(#paint19_linear_3350_34634)"/>
<path d="M275.236 400.381H279.367V376.646H275.236V400.381Z" fill="url(#paint20_linear_3350_34634)"/>
<path d="M265.632 395.489H269.762V381.537H265.632V395.489Z" fill="url(#paint21_linear_3350_34634)"/>
<path d="M260.159 384.426H256.028V392.604H260.159V384.426Z" fill="url(#paint22_linear_3350_34634)"/>
<path d="M313.648 400.381H317.78V376.646H313.648V400.381Z" fill="url(#paint23_linear_3350_34634)"/>
<path d="M304.046 395.489H308.176V381.537H304.046V395.489Z" fill="url(#paint24_linear_3350_34634)"/>
<path d="M288.968 381.537H284.838V395.489H288.968V381.537Z" fill="url(#paint25_linear_3350_34634)"/>
<path d="M294.442 392.604H298.573V384.426H294.442V392.604Z" fill="url(#paint26_linear_3350_34634)"/>
<path d="M390.479 400.381H394.61V376.646H390.479V400.381Z" fill="url(#paint27_linear_3350_34634)"/>
<path d="M380.874 395.489H385.004V381.537H380.874V395.489Z" fill="url(#paint28_linear_3350_34634)"/>
<path d="M356.195 376.646H352.064V400.381H356.195V376.646Z" fill="url(#paint29_linear_3350_34634)"/>
<path d="M365.799 381.537H361.669V395.489H365.799V381.537Z" fill="url(#paint30_linear_3350_34634)"/>
<path d="M371.271 392.604H375.402V384.426H371.271V392.604Z" fill="url(#paint31_linear_3350_34634)"/>
<path d="M327.384 381.537H323.254V395.489H327.384V381.537Z" fill="url(#paint32_linear_3350_34634)"/>
<path d="M342.46 395.489H346.59V381.537H342.46V395.489Z" fill="url(#paint33_linear_3350_34634)"/>
<path d="M336.988 384.426H332.857V392.604H336.988V384.426Z" fill="url(#paint34_linear_3350_34634)"/>
<path d="M343.678 94.832H291C290.282 94.832 289.699 95.4141 289.699 96.1339C289.699 96.8524 290.281 97.4358 291 97.4358H343.678C344.396 97.4358 344.979 96.8537 344.979 96.1339C344.979 95.4141 344.396 94.832 343.678 94.832Z" fill="url(#paint35_linear_3350_34634)"/>
<path d="M392.179 102.562L197.729 410.881V346.673L351.669 102.562H392.179Z" fill="url(#paint36_linear_3350_34634)"/>
<path d="M433.701 105.944V174.558L253.333 460.567H201.122C199.242 460.567 197.729 459.041 197.729 457.172V431.652L405.261 102.562H430.308C432.176 102.562 433.701 104.075 433.701 105.944Z" fill="url(#paint37_linear_3350_34634)"/>
<path d="M372.522 146.334H258.902V182.114H372.522V146.334Z" fill="url(#paint38_linear_3350_34634)"/>
<path d="M409.204 81.082H399.343V120.268H409.204C413.84 120.268 417.597 116.508 417.597 111.871V89.4807C417.598 84.8422 413.84 81.082 409.204 81.082Z" fill="url(#paint39_linear_3350_34634)"/>
<path d="M222.22 81.082H232.081V120.268H222.22C217.585 120.268 213.827 116.508 213.827 111.871V89.4807C213.827 84.8422 217.584 81.082 222.22 81.082Z" fill="url(#paint40_linear_3350_34634)"/>
<path d="M375.875 42.5352H255.55C237.547 42.5352 222.954 57.1365 222.954 75.1465V126.207C222.954 144.219 237.547 158.819 255.55 158.819H375.875C393.878 158.819 408.47 144.217 408.47 126.207V75.1465C408.472 57.1352 393.878 42.5352 375.875 42.5352Z" fill="url(#paint41_linear_3350_34634)"/>
<path d="M376.011 64.5234H255.411C247.052 64.5234 240.275 71.3029 240.275 79.6662V91.1236C240.275 99.4869 247.052 106.266 255.411 106.266H376.011C384.371 106.266 391.147 99.4869 391.147 91.1236V79.6662C391.148 71.3029 384.371 64.5234 376.011 64.5234Z" fill="url(#paint42_linear_3350_34634)"/>
<path d="M408.464 199.771V251.021C408.464 275.302 394.036 296.187 373.279 305.561C365.771 308.957 357.449 310.858 348.683 310.858H282.742C279.414 310.858 276.138 310.582 272.953 310.058C269.835 309.547 266.795 308.786 263.859 307.79C263.636 307.737 263.414 307.659 263.191 307.58C261.474 306.977 259.784 306.308 258.146 305.561C257.202 305.141 256.272 304.683 255.368 304.211C250.506 301.706 246.024 298.56 242.067 294.863C240.311 293.237 238.647 291.493 237.1 289.658C228.281 279.248 222.961 265.757 222.961 251.021V199.771C222.961 181.141 238.044 166.051 256.678 166.051H374.76C383.068 166.051 390.682 169.066 396.552 174.061C398.662 175.858 400.562 177.903 402.174 180.171C406.145 185.691 408.464 192.469 408.464 199.771Z" fill="url(#paint43_linear_3350_34634)"/>
<path d="M373.285 219.575V305.567C365.778 308.962 357.454 310.855 348.685 310.855H282.747C273.978 310.855 265.654 308.974 258.146 305.567V219.575C258.146 204.25 270.559 191.818 285.876 191.818H345.555C360.874 191.818 373.285 204.25 373.285 219.575Z" fill="url(#paint44_linear_3350_34634)"/>
<path d="M365.934 73.0566H355.896V97.7374H365.934V73.0566Z" fill="url(#paint45_linear_3350_34634)"/>
<path d="M275.531 73.0566H265.493V97.7374H275.531V73.0566Z" fill="url(#paint46_linear_3350_34634)"/>
<path d="M346.141 166.051L263.86 307.79C263.637 307.737 263.414 307.659 263.191 307.58C261.475 306.977 259.784 306.308 258.146 305.561C257.203 305.141 256.272 304.683 255.368 304.211C250.507 301.706 246.025 298.56 242.067 294.863L316.827 166.051H346.141Z" fill="url(#paint47_linear_3350_34634)"/>
<path d="M396.553 174.061L317.155 310.858H282.743C279.414 310.858 276.138 310.582 272.954 310.058L356.507 166.051H374.761C383.069 166.051 390.682 169.066 396.553 174.061Z" fill="url(#paint48_linear_3350_34634)"/>
<path d="M539.946 263.877V346.032C539.946 352.494 534.718 357.724 528.272 357.724H433.228C426.782 357.724 421.554 352.493 421.554 346.032V263.877H539.946Z" fill="url(#paint49_linear_3350_34634)"/>
<path d="M518.01 307.142C517.138 309.009 515.606 310.558 513.75 311.451C516.231 314.266 517.104 318.41 515.97 321.988C515.877 322.282 515.758 322.591 515.508 322.771C514.953 323.169 514.134 322.645 513.949 321.987C513.765 321.33 513.982 320.638 514.113 319.968C514.644 317.261 513.636 314.304 511.564 312.483C509.786 313.094 507.832 313.184 506.004 312.743C505.066 312.516 503.955 311.652 504.437 310.814C504.85 310.097 505.913 310.335 506.713 310.536C509.926 311.34 513.458 309.756 515.429 307.095C516.087 306.207 516.589 305.211 516.941 304.164C518.334 300.013 517.495 295.413 514.772 292.011C513.509 290.432 511.907 289.125 510.106 288.207C509.208 287.75 508.262 287.389 507.285 287.143C506.797 287.02 506.302 286.925 505.803 286.861C505.644 286.84 504.391 286.84 504.352 286.764C505.607 289.231 506.05 292.185 505.179 294.812C504.306 297.44 501.998 299.639 499.256 300.011C499.624 302.469 498.737 305.082 496.951 306.809C496.537 307.209 496.046 307.576 495.476 307.644C494.905 307.711 494.255 307.374 494.153 306.807C494.017 306.042 494.833 305.5 495.434 305.009C496.656 304.008 497.312 302.358 497.111 300.792C496.909 299.227 495.858 297.795 494.423 297.137C493.513 296.72 492.212 296.148 492.527 295.198C492.787 294.409 493.925 294.44 494.695 294.751C496.248 295.376 497.595 296.5 498.49 297.914C500.822 297.731 502.736 295.691 503.243 293.408C503.752 291.126 503.056 288.706 501.84 286.707C499.886 283.497 496.554 281.156 492.871 280.409C489.188 279.662 485.111 280.388 482.159 282.714C481.1 283.548 480.76 284.487 480.747 284.525C480.734 284.487 480.395 283.548 479.336 282.714C476.384 280.388 472.306 279.662 468.623 280.409C464.941 281.156 461.609 283.497 459.655 286.707C458.439 288.706 457.744 291.124 458.251 293.408C458.76 295.691 460.674 297.731 463.004 297.914C463.899 296.5 465.246 295.376 466.799 294.751C467.57 294.44 468.707 294.409 468.968 295.198C469.282 296.148 467.981 296.719 467.072 297.137C465.637 297.795 464.585 299.226 464.384 300.792C464.182 302.359 464.839 304.008 466.06 305.009C466.662 305.502 467.479 306.043 467.342 306.807C467.241 307.374 466.59 307.712 466.018 307.644C465.447 307.577 464.957 307.209 464.544 306.809C462.757 305.082 461.871 302.469 462.239 300.011C459.496 299.639 457.189 297.441 456.316 294.812C455.443 292.185 455.887 289.231 457.143 286.764C457.103 286.84 455.852 286.841 455.692 286.861C455.193 286.925 454.697 287.02 454.21 287.143C453.234 287.389 452.286 287.75 451.389 288.207C449.588 289.125 447.985 290.434 446.722 292.011C443.999 295.413 443.16 300.015 444.553 304.164C444.905 305.211 445.408 306.207 446.066 307.095C448.038 309.757 451.568 311.34 454.781 310.536C455.583 310.335 456.646 310.097 457.057 310.814C457.54 311.652 456.43 312.514 455.49 312.743C453.662 313.184 451.71 313.094 449.93 312.483C447.858 314.304 446.851 317.259 447.381 319.968C447.512 320.638 447.73 321.33 447.545 321.987C447.36 322.644 446.54 323.169 445.987 322.771C445.737 322.591 445.618 322.282 445.524 321.988C444.391 318.41 445.264 314.267 447.744 311.451C445.889 310.557 444.357 309.007 443.484 307.142C439.971 309.852 438.003 314.444 438.464 318.859C438.925 323.273 441.799 327.36 445.796 329.286C447.384 330.05 449.192 330.504 450.947 330.782C453.328 331.159 455.965 331.509 458.296 330.704C460.052 330.098 461.686 328.803 461.998 326.875C462.063 326.466 462.08 326.012 462.358 325.705C462.815 325.2 463.738 325.464 464.076 326.056C464.414 326.649 464.312 327.394 464.096 328.04C463.458 329.954 461.917 331.493 460.104 332.38C458.292 333.266 456.228 333.545 454.213 333.456C457.824 337.613 464.181 339.109 469.265 336.996C472.614 339.167 476.846 339.939 480.745 339.091C484.643 339.939 488.876 339.168 492.224 336.996C497.308 339.109 503.665 337.615 507.277 333.456C505.261 333.545 503.197 333.266 501.385 332.38C499.573 331.492 498.033 329.954 497.394 328.04C497.179 327.394 497.076 326.648 497.413 326.056C497.751 325.464 498.674 325.2 499.131 325.705C499.409 326.012 499.425 326.466 499.492 326.875C499.803 328.803 501.438 330.097 503.193 330.704C505.525 331.509 508.161 331.16 510.542 330.782C512.297 330.504 514.105 330.051 515.694 329.286C519.692 327.36 522.564 323.274 523.025 318.859C523.492 314.444 521.525 309.852 518.01 307.142ZM473.923 289.816C474.351 289.387 475.067 289.396 475.496 289.816C476.364 290.663 477.448 291.409 478.533 291.796C478.855 291.911 479.185 292.004 479.521 292.074C479.599 292.089 479.678 292.104 479.757 292.118C479.778 292.122 479.789 292.125 479.8 292.126C479.806 292.127 479.809 292.127 479.817 292.127C479.975 292.146 480.134 292.156 480.294 292.162C480.446 292.167 480.597 292.164 480.749 292.156C480.899 292.164 481.051 292.167 481.202 292.162C481.362 292.156 481.52 292.146 481.679 292.127C481.687 292.126 481.689 292.126 481.696 292.126C481.707 292.125 481.718 292.122 481.739 292.118C481.818 292.104 481.898 292.091 481.976 292.074C482.312 292.006 482.642 291.911 482.965 291.796C484.05 291.409 485.133 290.663 486.001 289.816C486.431 289.396 487.146 289.387 487.575 289.816C487.997 290.238 488.006 290.97 487.575 291.391C485.79 293.133 483.274 294.485 480.747 294.381C480.747 295.018 480.747 296.298 480.747 296.298C480.747 295.658 480.747 295.018 480.747 294.381C478.221 294.485 475.705 293.133 473.92 291.391C473.491 290.97 473.501 290.238 473.923 289.816ZM494.845 319.97C494.597 320.53 494.032 320.884 493.461 321.107C492.28 321.57 490.94 321.612 489.733 321.225C487.744 323.942 483.979 325.209 480.753 324.25C480.747 324.25 480.753 324.25 480.747 324.25C477.521 325.208 473.757 323.94 471.767 321.225C470.559 321.612 469.218 321.57 468.039 321.107C467.469 320.884 466.904 320.53 466.655 319.97C466.407 319.411 466.621 318.623 467.205 318.438C467.724 318.274 468.25 318.615 468.743 318.847C469.803 319.345 471.135 319.335 472.087 318.652C473.039 317.97 473.471 316.574 472.912 315.543C472.696 315.143 472.342 314.783 472.332 314.328C472.315 313.656 473.134 313.199 473.781 313.375C474.428 313.55 474.875 314.152 475.13 314.773C475.873 316.585 475.274 318.855 473.727 320.071C475.317 322.13 478.354 322.916 480.743 321.887C480.743 321.577 480.758 321.577 480.758 321.887C483.147 322.915 486.184 322.13 487.774 320.071C486.227 318.855 485.629 316.585 486.372 314.773C486.626 314.152 487.073 313.55 487.72 313.375C488.367 313.199 489.186 313.656 489.169 314.328C489.158 314.783 488.805 315.143 488.589 315.543C488.031 316.574 488.462 317.97 489.414 318.652C490.367 319.333 491.7 319.345 492.759 318.847C493.251 318.615 493.777 318.274 494.296 318.438C494.879 318.623 495.092 319.411 494.845 319.97Z" fill="url(#paint50_linear_3350_34634)"/>
<path d="M533.604 244.58H427.893C424.392 244.58 421.555 247.42 421.555 250.923V263.88H539.943V250.923C539.943 247.42 537.105 244.58 533.604 244.58Z" fill="url(#paint51_linear_3350_34634)"/>
<path d="M429.315 255.934C430.256 255.934 431.018 255.171 431.018 254.23C431.018 253.288 430.256 252.525 429.315 252.525C428.374 252.525 427.611 253.288 427.611 254.23C427.611 255.171 428.374 255.934 429.315 255.934Z" fill="white"/>
<path d="M437.444 255.934C438.385 255.934 439.147 255.171 439.147 254.23C439.147 253.288 438.385 252.525 437.444 252.525C436.503 252.525 435.74 253.288 435.74 254.23C435.74 255.171 436.503 255.934 437.444 255.934Z" fill="white"/>
<path d="M445.572 255.934C446.513 255.934 447.275 255.171 447.275 254.23C447.275 253.288 446.513 252.525 445.572 252.525C444.631 252.525 443.868 253.288 443.868 254.23C443.868 255.171 444.631 255.934 445.572 255.934Z" fill="white"/>
<path d="M517.756 263.877L458.565 357.724H437.119L496.311 263.877H517.756Z" fill="url(#paint52_linear_3350_34634)"/>
<path d="M539.946 263.877V301.676L504.602 357.724H465.496L524.688 263.877H539.946Z" fill="url(#paint53_linear_3350_34634)"/>
<path d="M172.548 54.3477V136.503C172.548 142.965 167.319 148.195 160.873 148.195H65.8298C59.3825 148.195 54.1553 142.964 54.1553 136.503V54.3477H172.548Z" fill="url(#paint54_linear_3350_34634)"/>
<path d="M115.999 122.678C115.132 122.805 114.254 122.868 113.357 122.868C112.458 122.868 111.581 122.805 110.715 122.678V129.306H97.4326V135.777H129.272V129.306H116L115.999 122.678Z" fill="url(#paint55_linear_3350_34634)"/>
<path d="M121.894 91.2386H129.808V86.92H121.894C120.504 86.92 119.375 85.7924 119.375 84.4001C119.375 83.0077 120.502 81.8802 121.894 81.8802H129.74C129.052 73.4199 121.985 66.7637 113.35 66.7637C104.716 66.7637 97.6487 73.4186 96.9607 81.8802H104.806C106.197 81.8802 107.325 83.0077 107.325 84.4001C107.325 85.7924 106.198 86.92 104.806 86.92H96.8926V91.2386H104.806C106.197 91.2386 107.325 92.3661 107.325 93.7585C107.325 95.1495 106.198 96.2783 104.806 96.2783H96.8926V100.597H104.806C106.197 100.597 107.325 101.724 107.325 103.117C107.325 104.509 106.198 105.637 104.806 105.637H96.9607C97.6487 114.097 104.717 120.753 113.35 120.753C121.985 120.753 129.052 114.098 129.74 105.637H121.894C120.504 105.637 119.375 104.509 119.375 103.117C119.375 101.724 120.502 100.597 121.894 100.597H129.808V96.2783H121.894C120.504 96.2783 119.375 95.1508 119.375 93.7585C119.377 92.3661 120.504 91.2386 121.894 91.2386Z" fill="url(#paint56_linear_3350_34634)"/>
<path d="M166.206 35.0508H60.4957C56.9943 35.0508 54.1572 37.8905 54.1572 41.3924V54.3496H172.546V41.3924C172.545 37.8905 169.708 35.0508 166.206 35.0508Z" fill="url(#paint57_linear_3350_34634)"/>
<path d="M61.9164 46.4049C62.8573 46.4049 63.62 45.6418 63.62 44.7005C63.62 43.7592 62.8573 42.9961 61.9164 42.9961C60.9756 42.9961 60.2129 43.7592 60.2129 44.7005C60.2129 45.6418 60.9756 46.4049 61.9164 46.4049Z" fill="white"/>
<path d="M70.0453 46.4049C70.9862 46.4049 71.7489 45.6418 71.7489 44.7005C71.7489 43.7592 70.9862 42.9961 70.0453 42.9961C69.1045 42.9961 68.3418 43.7592 68.3418 44.7005C68.3418 45.6418 69.1045 46.4049 70.0453 46.4049Z" fill="white"/>
<path d="M78.1743 46.4049C79.1151 46.4049 79.8778 45.6418 79.8778 44.7005C79.8778 43.7592 79.1151 42.9961 78.1743 42.9961C77.2334 42.9961 76.4707 43.7592 76.4707 44.7005C76.4707 45.6418 77.2334 46.4049 78.1743 46.4049Z" fill="white"/>
<path d="M150.357 54.3477L91.1667 148.195H69.7217L128.912 54.3477H150.357Z" fill="url(#paint58_linear_3350_34634)"/>
<path d="M172.548 54.3477V92.1469L137.204 148.195H98.0986L157.289 54.3477H172.548Z" fill="url(#paint59_linear_3350_34634)"/>
<path d="M264.346 400.402H141.881C136.977 400.402 133.004 404.379 133.004 409.285V508H273.224V409.285C273.223 404.379 269.248 400.402 264.346 400.402Z" fill="url(#paint60_linear_3350_34634)"/>
<path d="M260.128 347.621H156.776V469.954H260.128V347.621Z" fill="url(#paint61_linear_3350_34634)"/>
<path d="M192.074 395.397V389.932H186.612C186.612 387.356 184.524 385.268 181.95 385.268C179.375 385.268 177.287 387.356 177.287 389.932H171.825V410.191H177.287C177.287 412.767 179.375 414.856 181.95 414.856C184.524 414.856 186.612 412.767 186.612 410.191H192.074V404.726C189.499 404.726 187.411 402.638 187.411 400.062C187.411 397.485 189.499 395.397 192.074 395.397Z" fill="url(#paint62_linear_3350_34634)"/>
<path d="M186.613 389.936H192.075V384.472C194.65 384.472 196.737 382.383 196.737 379.807C196.737 377.231 194.65 375.142 192.075 375.142V369.678H171.828V375.142C169.253 375.142 167.165 377.231 167.165 379.807C167.165 382.383 169.253 384.472 171.828 384.472V389.936H177.289C177.289 387.36 179.377 385.272 181.952 385.272C184.527 385.272 186.613 387.36 186.613 389.936Z" fill="url(#paint63_linear_3350_34634)"/>
<path d="M197.536 389.934H192.075V395.398C189.5 395.398 187.412 397.487 187.412 400.063C187.412 402.639 189.5 404.728 192.075 404.728V410.192H212.323V404.728C214.898 404.728 216.986 402.639 216.986 400.063C216.986 397.487 214.898 395.398 212.323 395.398V389.934H206.861C206.861 392.51 204.774 394.598 202.199 394.598C199.624 394.598 197.536 392.51 197.536 389.934Z" fill="url(#paint64_linear_3350_34634)"/>
<path d="M192.075 384.47V389.935H197.537C197.537 392.511 199.625 394.6 202.2 394.6C204.774 394.6 206.862 392.511 206.862 389.935H212.324V369.676H206.862C206.862 367.1 204.774 365.012 202.2 365.012C199.625 365.012 197.537 367.1 197.537 369.676H192.075V375.141C194.65 375.141 196.738 377.23 196.738 379.806C196.738 382.382 194.65 384.47 192.075 384.47Z" fill="url(#paint65_linear_3350_34634)"/>
<path d="M249.737 420.09H170.259V421.904H249.737V420.09Z" fill="url(#paint66_linear_3350_34634)"/>
<path d="M249.738 409.867H223.296V411.682H249.738V409.867Z" fill="url(#paint67_linear_3350_34634)"/>
<path d="M249.738 399.648H223.296V401.463H249.738V399.648Z" fill="url(#paint68_linear_3350_34634)"/>
<path d="M249.738 389.426H223.296V391.24H249.738V389.426Z" fill="url(#paint69_linear_3350_34634)"/>
<path d="M249.738 379.205H223.296V381.02H249.738V379.205Z" fill="url(#paint70_linear_3350_34634)"/>
<path d="M249.738 368.986H223.296V370.801H249.738V368.986Z" fill="url(#paint71_linear_3350_34634)"/>
<path d="M249.737 430.311H170.259V432.125H249.737V430.311Z" fill="url(#paint72_linear_3350_34634)"/>
<path d="M249.737 440.529H170.259V442.344H249.737V440.529Z" fill="url(#paint73_linear_3350_34634)"/>
<path d="M249.737 450.752H170.259V452.566H249.737V450.752Z" fill="url(#paint74_linear_3350_34634)"/>
<path d="M246.644 338.682H143.292V461.014H246.644V338.682Z" fill="url(#paint75_linear_3350_34634)"/>
<path d="M178.589 386.457V380.993H173.128C173.128 378.417 171.04 376.328 168.465 376.328C165.89 376.328 163.803 378.417 163.803 380.993H158.341V401.251H163.803C163.803 403.828 165.89 405.916 168.465 405.916C171.04 405.916 173.128 403.828 173.128 401.251H178.589V395.787C176.014 395.787 173.927 393.698 173.927 391.122C173.927 388.546 176.014 386.457 178.589 386.457Z" fill="url(#paint76_linear_3350_34634)"/>
<path d="M173.129 380.993H178.591V375.528C181.166 375.528 183.253 373.44 183.253 370.864C183.253 368.287 181.166 366.199 178.591 366.199V360.734H158.342V366.199C155.767 366.199 153.68 368.287 153.68 370.864C153.68 373.44 155.767 375.528 158.342 375.528V380.993H163.804C163.804 378.417 165.891 376.328 168.466 376.328C171.041 376.328 173.129 378.417 173.129 380.993Z" fill="url(#paint77_linear_3350_34634)"/>
<path d="M184.052 380.994H178.59V386.459C176.015 386.459 173.928 388.547 173.928 391.123C173.928 393.7 176.015 395.788 178.59 395.788V401.253H198.839V395.788C201.414 395.788 203.501 393.7 203.501 391.123C203.501 388.547 201.414 386.459 198.839 386.459V380.994H193.377C193.377 383.57 191.289 385.659 188.715 385.659C186.14 385.659 184.052 383.57 184.052 380.994Z" fill="url(#paint78_linear_3350_34634)"/>
<path d="M178.59 375.53V380.994H184.052C184.052 383.571 186.139 385.659 188.714 385.659C191.289 385.659 193.377 383.571 193.377 380.994H198.838V360.737H193.377C193.377 358.161 191.289 356.072 188.714 356.072C186.139 356.072 184.052 358.161 184.052 360.737H178.59V366.202C181.165 366.202 183.252 368.29 183.252 370.866C183.252 373.441 181.165 375.53 178.59 375.53Z" fill="url(#paint79_linear_3350_34634)"/>
<path d="M236.255 411.148H156.776V412.963H236.255V411.148Z" fill="url(#paint80_linear_3350_34634)"/>
<path d="M236.253 400.928H209.812V402.742H236.253V400.928Z" fill="url(#paint81_linear_3350_34634)"/>
<path d="M236.253 390.707H209.812V392.522H236.253V390.707Z" fill="url(#paint82_linear_3350_34634)"/>
<path d="M236.253 380.484H209.812V382.299H236.253V380.484Z" fill="url(#paint83_linear_3350_34634)"/>
<path d="M236.253 370.266H209.812V372.08H236.253V370.266Z" fill="url(#paint84_linear_3350_34634)"/>
<path d="M236.253 360.043H209.812V361.857H236.253V360.043Z" fill="url(#paint85_linear_3350_34634)"/>
<path d="M236.255 421.369H156.776V423.184H236.255V421.369Z" fill="url(#paint86_linear_3350_34634)"/>
<path d="M236.255 431.588H156.776V433.402H236.255V431.588Z" fill="url(#paint87_linear_3350_34634)"/>
<path d="M236.255 441.811H156.776V443.625H236.255V441.811Z" fill="url(#paint88_linear_3350_34634)"/>
<path d="M252.486 417.977H130.021C125.119 417.977 121.667 421.953 122.313 426.858L133.002 508.001H273.223L262.533 426.858C261.887 421.953 257.389 417.977 252.486 417.977Z" fill="url(#paint89_linear_3350_34634)"/>
<path d="M281.037 0H241.231C234.106 0 228.331 5.77917 228.331 12.9074C228.331 20.0357 234.107 25.8148 241.231 25.8148H242.89L241.416 30.6094L250.354 25.8148H281.039C288.164 25.8148 293.939 20.0357 293.939 12.9074C293.939 5.77917 288.162 0 281.037 0ZM246.774 9.68089C248.555 9.68089 249.999 11.1257 249.999 12.9074C249.999 14.6892 248.555 16.1339 246.774 16.1339C244.993 16.1339 243.549 14.6892 243.549 12.9074C243.549 11.1257 244.992 9.68089 246.774 9.68089ZM261.134 16.1339C259.353 16.1339 257.909 14.6892 257.909 12.9074C257.909 11.1257 259.353 9.68089 261.134 9.68089C262.914 9.68089 264.358 11.1257 264.358 12.9074C264.36 14.6892 262.916 16.1339 261.134 16.1339ZM275.494 16.1339C273.714 16.1339 272.269 14.6892 272.269 12.9074C272.269 11.1257 273.714 9.68089 275.494 9.68089C277.275 9.68089 278.719 11.1257 278.719 12.9074C278.719 14.6892 277.275 16.1339 275.494 16.1339Z" fill="white"/>
<path d="M577.717 198.098H536.634C535.374 198.098 534.352 199.12 534.352 200.382V223.847C534.352 225.108 535.374 226.131 536.634 226.131H577.717C578.978 226.131 580 225.108 580 223.847V200.382C580 199.12 578.978 198.098 577.717 198.098ZM577.328 201.829L559.01 215.592C558.459 216.005 557.812 216.213 557.165 216.213C556.525 216.213 555.886 216.011 555.339 215.607L536.713 201.833C536.303 201.53 536.215 200.949 536.519 200.539C536.823 200.127 537.401 200.041 537.812 200.345L556.439 214.119C556.878 214.443 557.463 214.441 557.899 214.114L576.217 200.35C576.626 200.045 577.205 200.126 577.512 200.535C577.82 200.943 577.736 201.522 577.328 201.829Z" fill="white"/>
<path d="M450.862 403.534C450.862 411.581 457.383 418.105 465.426 418.105H500.069L510.16 423.517L508.496 418.105H510.369C518.412 418.105 524.933 411.581 524.933 403.534C524.933 395.487 518.412 388.963 510.369 388.963H465.426C457.383 388.962 450.862 395.485 450.862 403.534ZM507.752 403.534C507.752 405.547 506.121 407.177 504.11 407.177C502.098 407.177 500.468 405.547 500.468 403.534C500.468 401.522 502.098 399.891 504.11 399.891C506.121 399.891 507.752 401.522 507.752 403.534ZM484.257 403.534C484.257 401.522 485.887 399.891 487.897 399.891C489.909 399.891 491.539 401.522 491.539 403.534C491.539 405.547 489.909 407.177 487.897 407.177C485.887 407.176 484.257 405.545 484.257 403.534ZM468.045 403.534C468.045 401.522 469.675 399.891 471.686 399.891C473.698 399.891 475.328 401.522 475.328 403.534C475.328 405.547 473.698 407.177 471.686 407.177C469.675 407.176 468.045 405.545 468.045 403.534Z" fill="white"/>
<path d="M22.4963 194.907C33.7061 194.907 42.7934 185.815 42.7934 174.6C42.7934 163.385 33.7061 154.293 22.4963 154.293C11.2865 154.293 2.19922 163.385 2.19922 174.6C2.19922 185.815 11.2865 194.907 22.4963 194.907Z" stroke="white" stroke-width="2.62213" stroke-miterlimit="10"/>
<path d="M22.4959 194.907C27.3941 194.907 31.3648 185.815 31.3648 174.6C31.3648 163.385 27.3941 154.293 22.4959 154.293C17.5977 154.293 13.627 163.385 13.627 174.6C13.627 185.815 17.5977 194.907 22.4959 194.907Z" stroke="white" stroke-width="2.62213" stroke-miterlimit="10"/>
<path d="M2.19922 174.598H42.7934H43.5771" stroke="white" stroke-width="2.62213" stroke-miterlimit="10"/>
<path d="M22.4961 154.293V194.908" stroke="white" stroke-width="2.62213" stroke-miterlimit="10"/>
<path d="M8.35547 159.713C8.35547 159.713 22.3403 162.293 36.3054 159.713" stroke="white" stroke-width="2.62213" stroke-miterlimit="10"/>
<path d="M36.3054 189.483C36.3054 189.483 22.3206 186.903 8.35547 189.483" stroke="white" stroke-width="2.62213" stroke-miterlimit="10"/>
<path d="M526.615 28.7724C524.422 28.4696 522.295 28.5574 520.281 28.9573C517.379 14.6732 504.757 3.92383 489.624 3.92383C476.538 3.92383 465.334 11.9646 460.665 23.3761C457.508 21.7792 453.935 20.8903 450.146 20.9309C437.579 21.0686 427.612 31.6397 427.612 44.2128V57.5568C427.612 64.2655 433.048 69.7038 439.753 69.7038H530.811C537.516 69.7038 542.952 64.2655 542.952 57.5568V47.9546C542.95 38.4166 536.059 30.0756 526.615 28.7724Z" fill="url(#paint90_linear_3350_34634)"/>
<path d="M549.455 91.0856C548.42 90.9427 547.415 90.9847 546.462 91.1735C545.09 84.4241 539.126 79.3438 531.976 79.3438C525.792 79.3438 520.497 83.1432 518.291 88.5356C516.799 87.7818 515.11 87.3609 513.32 87.3806C507.383 87.4461 502.672 92.4413 502.672 98.3817V104.688C502.672 107.858 505.24 110.428 508.409 110.428H551.437C554.605 110.428 557.174 107.858 557.174 104.688V100.15C557.175 95.6429 553.918 91.7005 549.455 91.0856Z" fill="url(#paint91_linear_3350_34634)"/>
<defs>
<linearGradient id="paint0_linear_3350_34634" x1="37.6642" y1="-136.307" x2="283.394" y2="867.719" gradientUnits="userSpaceOnUse">
<stop stop-color="#EDE8FF"/>
<stop offset="0.2566" stop-color="#DBD2FF"/>
<stop offset="1" stop-color="#A793FF"/>
</linearGradient>
<linearGradient id="paint1_linear_3350_34634" x1="35.2981" y1="-135.728" x2="281.028" y2="868.298" gradientUnits="userSpaceOnUse">
<stop stop-color="#EDE8FF"/>
<stop offset="0.2566" stop-color="#DBD2FF"/>
<stop offset="1" stop-color="#A793FF"/>
</linearGradient>
<linearGradient id="paint2_linear_3350_34634" x1="375.647" y1="-209.435" x2="549.495" y2="500.89" gradientUnits="userSpaceOnUse">
<stop stop-color="#EDE8FF"/>
<stop offset="0.2566" stop-color="#DBD2FF"/>
<stop offset="1" stop-color="#A793FF"/>
</linearGradient>
<linearGradient id="paint3_linear_3350_34634" x1="375.647" y1="-209.434" x2="549.495" y2="500.89" gradientUnits="userSpaceOnUse">
<stop stop-color="#EDE8FF"/>
<stop offset="0.2566" stop-color="#DBD2FF"/>
<stop offset="1" stop-color="#A793FF"/>
</linearGradient>
<linearGradient id="paint4_linear_3350_34634" x1="171.736" y1="129.167" x2="89.2778" y2="324.984" gradientUnits="userSpaceOnUse">
<stop stop-color="#DBCCFF"/>
<stop offset="0.5" stop-color="#6744FF"/>
<stop offset="1" stop-color="#240068"/>
</linearGradient>
<linearGradient id="paint5_linear_3350_34634" x1="23.0912" y1="438.256" x2="143.249" y2="205.455" gradientUnits="userSpaceOnUse">
<stop stop-color="#DBCCFF"/>
<stop offset="0.5" stop-color="#6744FF"/>
<stop offset="1" stop-color="#240068"/>
</linearGradient>
<linearGradient id="paint6_linear_3350_34634" x1="-56.1518" y1="410.351" x2="84.1186" y2="332.262" gradientUnits="userSpaceOnUse">
<stop stop-color="#DBCCFF"/>
<stop offset="0.5" stop-color="#6744FF"/>
<stop offset="1" stop-color="#240068"/>
</linearGradient>
<linearGradient id="paint7_linear_3350_34634" x1="161.191" y1="435.203" x2="42.1413" y2="327.467" gradientUnits="userSpaceOnUse">
<stop stop-color="#DBCCFF"/>
<stop offset="0.5" stop-color="#6744FF"/>
<stop offset="1" stop-color="#240068"/>
</linearGradient>
<linearGradient id="paint8_linear_3350_34634" x1="67.3441" y1="265.737" x2="59.3297" y2="389.62" gradientUnits="userSpaceOnUse">
<stop stop-color="#FF7D71"/>
<stop offset="0.5317" stop-color="#BD1F00"/>
<stop offset="1" stop-color="#741000"/>
</linearGradient>
<linearGradient id="paint9_linear_3350_34634" x1="201.579" y1="254.012" x2="201.579" y2="480.926" gradientUnits="userSpaceOnUse">
<stop stop-color="#DBCCFF"/>
<stop offset="0.5" stop-color="#6744FF"/>
<stop offset="1" stop-color="#240068"/>
</linearGradient>
<linearGradient id="paint10_linear_3350_34634" x1="201.579" y1="431.253" x2="201.579" y2="520.327" gradientUnits="userSpaceOnUse">
<stop stop-color="#DBCCFF"/>
<stop offset="0.5" stop-color="#6744FF"/>
<stop offset="1" stop-color="#240068"/>
</linearGradient>
<linearGradient id="paint11_linear_3350_34634" x1="201.579" y1="133.743" x2="201.579" y2="451.045" gradientUnits="userSpaceOnUse">
<stop stop-color="#FF7D71"/>
<stop offset="0.5317" stop-color="#BD1F00"/>
<stop offset="1" stop-color="#741000"/>
</linearGradient>
<linearGradient id="paint12_linear_3350_34634" x1="131.657" y1="149.103" x2="134.824" y2="281.506" gradientUnits="userSpaceOnUse">
<stop stop-color="#FF7D71"/>
<stop offset="0.5317" stop-color="#BD1F00"/>
<stop offset="1" stop-color="#741000"/>
</linearGradient>
<linearGradient id="paint13_linear_3350_34634" x1="201.578" y1="319.181" x2="201.578" y2="469.625" gradientUnits="userSpaceOnUse">
<stop stop-color="#DBCCFF"/>
<stop offset="0.5" stop-color="#6744FF"/>
<stop offset="1" stop-color="#240068"/>
</linearGradient>
<linearGradient id="paint14_linear_3350_34634" x1="133.895" y1="175.095" x2="133.895" y2="325.539" gradientUnits="userSpaceOnUse">
<stop stop-color="#DBCCFF"/>
<stop offset="0.5" stop-color="#6744FF"/>
<stop offset="1" stop-color="#240068"/>
</linearGradient>
<linearGradient id="paint15_linear_3350_34634" x1="116.406" y1="-277.86" x2="600.686" y2="1107.91" gradientUnits="userSpaceOnUse">
<stop stop-color="#DBCCFF"/>
<stop offset="0.5" stop-color="#6744FF"/>
<stop offset="1" stop-color="#240068"/>
</linearGradient>
<linearGradient id="paint16_linear_3350_34634" x1="233.642" y1="52.4372" x2="400.292" y2="517.22" gradientUnits="userSpaceOnUse">
<stop stop-color="#EDE8FF"/>
<stop offset="0.2566" stop-color="#DBD2FF"/>
<stop offset="1" stop-color="#A793FF"/>
</linearGradient>
<linearGradient id="paint17_linear_3350_34634" x1="206.02" y1="126.101" x2="469.427" y2="749.372" gradientUnits="userSpaceOnUse">
<stop stop-color="#EDE8FF"/>
<stop offset="0.2566" stop-color="#DBD2FF"/>
<stop offset="1" stop-color="#A793FF"/>
</linearGradient>
<linearGradient id="paint18_linear_3350_34634" x1="238.886" y1="315.52" x2="238.886" y2="398.145" gradientUnits="userSpaceOnUse">
<stop stop-color="#F4DC73"/>
<stop offset="1" stop-color="#E57300"/>
</linearGradient>
<linearGradient id="paint19_linear_3350_34634" x1="248.49" y1="315.519" x2="248.49" y2="398.144" gradientUnits="userSpaceOnUse">
<stop stop-color="#F4DC73"/>
<stop offset="1" stop-color="#E57300"/>
</linearGradient>
<linearGradient id="paint20_linear_3350_34634" x1="277.301" y1="315.52" x2="277.301" y2="398.145" gradientUnits="userSpaceOnUse">
<stop stop-color="#F4DC73"/>
<stop offset="1" stop-color="#E57300"/>
</linearGradient>
<linearGradient id="paint21_linear_3350_34634" x1="267.697" y1="315.519" x2="267.697" y2="398.144" gradientUnits="userSpaceOnUse">
<stop stop-color="#F4DC73"/>
<stop offset="1" stop-color="#E57300"/>
</linearGradient>
<linearGradient id="paint22_linear_3350_34634" x1="258.094" y1="315.52" x2="258.094" y2="398.146" gradientUnits="userSpaceOnUse">
<stop stop-color="#F4DC73"/>
<stop offset="1" stop-color="#E57300"/>
</linearGradient>
<linearGradient id="paint23_linear_3350_34634" x1="315.714" y1="315.52" x2="315.714" y2="398.145" gradientUnits="userSpaceOnUse">
<stop stop-color="#F4DC73"/>
<stop offset="1" stop-color="#E57300"/>
</linearGradient>
<linearGradient id="paint24_linear_3350_34634" x1="306.111" y1="315.519" x2="306.111" y2="398.144" gradientUnits="userSpaceOnUse">
<stop stop-color="#F4DC73"/>
<stop offset="1" stop-color="#E57300"/>
</linearGradient>
<linearGradient id="paint25_linear_3350_34634" x1="286.904" y1="315.519" x2="286.904" y2="398.144" gradientUnits="userSpaceOnUse">
<stop stop-color="#F4DC73"/>
<stop offset="1" stop-color="#E57300"/>
</linearGradient>
<linearGradient id="paint26_linear_3350_34634" x1="296.508" y1="315.52" x2="296.508" y2="398.146" gradientUnits="userSpaceOnUse">
<stop stop-color="#F4DC73"/>
<stop offset="1" stop-color="#E57300"/>
</linearGradient>
<linearGradient id="paint27_linear_3350_34634" x1="392.545" y1="315.52" x2="392.545" y2="398.145" gradientUnits="userSpaceOnUse">
<stop stop-color="#F4DC73"/>
<stop offset="1" stop-color="#E57300"/>
</linearGradient>
<linearGradient id="paint28_linear_3350_34634" x1="382.939" y1="315.519" x2="382.939" y2="398.144" gradientUnits="userSpaceOnUse">
<stop stop-color="#F4DC73"/>
<stop offset="1" stop-color="#E57300"/>
</linearGradient>
<linearGradient id="paint29_linear_3350_34634" x1="354.13" y1="315.52" x2="354.13" y2="398.145" gradientUnits="userSpaceOnUse">
<stop stop-color="#F4DC73"/>
<stop offset="1" stop-color="#E57300"/>
</linearGradient>
<linearGradient id="paint30_linear_3350_34634" x1="363.734" y1="315.519" x2="363.734" y2="398.144" gradientUnits="userSpaceOnUse">
<stop stop-color="#F4DC73"/>
<stop offset="1" stop-color="#E57300"/>
</linearGradient>
<linearGradient id="paint31_linear_3350_34634" x1="373.336" y1="315.52" x2="373.336" y2="398.146" gradientUnits="userSpaceOnUse">
<stop stop-color="#F4DC73"/>
<stop offset="1" stop-color="#E57300"/>
</linearGradient>
<linearGradient id="paint32_linear_3350_34634" x1="325.319" y1="315.519" x2="325.319" y2="398.144" gradientUnits="userSpaceOnUse">
<stop stop-color="#F4DC73"/>
<stop offset="1" stop-color="#E57300"/>
</linearGradient>
<linearGradient id="paint33_linear_3350_34634" x1="344.526" y1="315.519" x2="344.526" y2="398.144" gradientUnits="userSpaceOnUse">
<stop stop-color="#F4DC73"/>
<stop offset="1" stop-color="#E57300"/>
</linearGradient>
<linearGradient id="paint34_linear_3350_34634" x1="334.922" y1="315.52" x2="334.922" y2="398.146" gradientUnits="userSpaceOnUse">
<stop stop-color="#F4DC73"/>
<stop offset="1" stop-color="#E57300"/>
</linearGradient>
<linearGradient id="paint35_linear_3350_34634" x1="318.291" y1="47.3734" x2="316.663" y2="130.657" gradientUnits="userSpaceOnUse">
<stop stop-color="#DBCCFF"/>
<stop offset="0.5" stop-color="#6744FF"/>
<stop offset="1" stop-color="#240068"/>
</linearGradient>
<linearGradient id="paint36_linear_3350_34634" x1="492.4" y1="-120.847" x2="208.86" y2="374.769" gradientUnits="userSpaceOnUse">
<stop stop-color="white"/>
<stop offset="1" stop-color="white" stop-opacity="0"/>
</linearGradient>
<linearGradient id="paint37_linear_3350_34634" x1="541.85" y1="-92.5565" x2="258.311" y2="403.058" gradientUnits="userSpaceOnUse">
<stop stop-color="white"/>
<stop offset="1" stop-color="white" stop-opacity="0"/>
</linearGradient>
<linearGradient id="paint38_linear_3350_34634" x1="315.713" y1="121.39" x2="315.713" y2="163.721" gradientUnits="userSpaceOnUse">
<stop stop-color="#DBCCFF"/>
<stop offset="0.5" stop-color="#6744FF"/>
<stop offset="1" stop-color="#240068"/>
</linearGradient>
<linearGradient id="paint39_linear_3350_34634" x1="431.715" y1="96.2251" x2="401.725" y2="101.146" gradientUnits="userSpaceOnUse">
<stop stop-color="#FF7D71"/>
<stop offset="0.5317" stop-color="#BD1F00"/>
<stop offset="1" stop-color="#741000"/>
</linearGradient>
<linearGradient id="paint40_linear_3350_34634" x1="199.709" y1="96.2251" x2="229.699" y2="101.146" gradientUnits="userSpaceOnUse">
<stop stop-color="#FF7D71"/>
<stop offset="0.5317" stop-color="#BD1F00"/>
<stop offset="1" stop-color="#741000"/>
</linearGradient>
<linearGradient id="paint41_linear_3350_34634" x1="304.471" y1="-81.899" x2="352.851" y2="703.055" gradientUnits="userSpaceOnUse">
<stop stop-color="#DBCCFF"/>
<stop offset="0.5" stop-color="#6744FF"/>
<stop offset="1" stop-color="#240068"/>
</linearGradient>
<linearGradient id="paint42_linear_3350_34634" x1="313.98" y1="-16.8144" x2="319.598" y2="314.486" gradientUnits="userSpaceOnUse">
<stop stop-color="#DBCCFF"/>
<stop offset="0.5" stop-color="#6744FF"/>
<stop offset="1" stop-color="#240068"/>
</linearGradient>
<linearGradient id="paint43_linear_3350_34634" x1="230.135" y1="-41.9525" x2="394.886" y2="476.156" gradientUnits="userSpaceOnUse">
<stop stop-color="#DBCCFF"/>
<stop offset="0.5" stop-color="#6744FF"/>
<stop offset="1" stop-color="#240068"/>
</linearGradient>
<linearGradient id="paint44_linear_3350_34634" x1="196.139" y1="86.6837" x2="591.274" y2="652.912" gradientUnits="userSpaceOnUse">
<stop stop-color="#DBCCFF"/>
<stop offset="0.5" stop-color="#6744FF"/>
<stop offset="1" stop-color="#240068"/>
</linearGradient>
<linearGradient id="paint45_linear_3350_34634" x1="355.761" y1="41.9761" x2="365.438" y2="123.43" gradientUnits="userSpaceOnUse">
<stop stop-color="#F4DC73"/>
<stop offset="1" stop-color="#E57300"/>
</linearGradient>
<linearGradient id="paint46_linear_3350_34634" x1="265.358" y1="41.9761" x2="275.036" y2="123.43" gradientUnits="userSpaceOnUse">
<stop stop-color="#F4DC73"/>
<stop offset="1" stop-color="#E57300"/>
</linearGradient>
<linearGradient id="paint47_linear_3350_34634" x1="424.567" y1="84.961" x2="271.917" y2="257.612" gradientUnits="userSpaceOnUse">
<stop stop-color="white"/>
<stop offset="1" stop-color="white" stop-opacity="0"/>
</linearGradient>
<linearGradient id="paint48_linear_3350_34634" x1="451.43" y1="108.712" x2="298.78" y2="281.363" gradientUnits="userSpaceOnUse">
<stop stop-color="white"/>
<stop offset="1" stop-color="white" stop-opacity="0"/>
</linearGradient>
<linearGradient id="paint49_linear_3350_34634" x1="464.988" y1="210.831" x2="488.816" y2="353.726" gradientUnits="userSpaceOnUse">
<stop stop-color="#EDE8FF"/>
<stop offset="0.2566" stop-color="#DBD2FF"/>
<stop offset="1" stop-color="#A793FF"/>
</linearGradient>
<linearGradient id="paint50_linear_3350_34634" x1="480.75" y1="220.191" x2="480.75" y2="364.716" gradientUnits="userSpaceOnUse">
<stop stop-color="#FF7D71"/>
<stop offset="0.5317" stop-color="#BD1F00"/>
<stop offset="1" stop-color="#741000"/>
</linearGradient>
<linearGradient id="paint51_linear_3350_34634" x1="473.7" y1="210.703" x2="486.284" y2="293.552" gradientUnits="userSpaceOnUse">
<stop stop-color="#F4DC73"/>
<stop offset="1" stop-color="#E57300"/>
</linearGradient>
<linearGradient id="paint52_linear_3350_34634" x1="576.997" y1="243.067" x2="493.918" y2="299.533" gradientUnits="userSpaceOnUse">
<stop stop-color="white"/>
<stop offset="1" stop-color="white" stop-opacity="0"/>
</linearGradient>
<linearGradient id="paint53_linear_3350_34634" x1="588.761" y1="260.377" x2="505.683" y2="316.842" gradientUnits="userSpaceOnUse">
<stop stop-color="white"/>
<stop offset="1" stop-color="white" stop-opacity="0"/>
</linearGradient>
<linearGradient id="paint54_linear_3350_34634" x1="97.5905" y1="1.30139" x2="121.418" y2="144.196" gradientUnits="userSpaceOnUse">
<stop stop-color="#EDE8FF"/>
<stop offset="0.2566" stop-color="#DBD2FF"/>
<stop offset="1" stop-color="#A793FF"/>
</linearGradient>
<linearGradient id="paint55_linear_3350_34634" x1="85.0179" y1="27.71" x2="120.635" y2="159.36" gradientUnits="userSpaceOnUse">
<stop stop-color="#FF7D71"/>
<stop offset="0.5317" stop-color="#BD1F00"/>
<stop offset="1" stop-color="#741000"/>
</linearGradient>
<linearGradient id="paint56_linear_3350_34634" x1="94.7848" y1="25.0649" x2="130.401" y2="156.715" gradientUnits="userSpaceOnUse">
<stop stop-color="#FF7D71"/>
<stop offset="0.5317" stop-color="#BD1F00"/>
<stop offset="1" stop-color="#741000"/>
</linearGradient>
<linearGradient id="paint57_linear_3350_34634" x1="106.302" y1="1.17306" x2="118.886" y2="84.0221" gradientUnits="userSpaceOnUse">
<stop stop-color="#F4DC73"/>
<stop offset="1" stop-color="#E57300"/>
</linearGradient>
<linearGradient id="paint58_linear_3350_34634" x1="199.06" y1="21.3694" x2="90.2461" y2="118.941" gradientUnits="userSpaceOnUse">
<stop stop-color="white"/>
<stop offset="1" stop-color="white" stop-opacity="0"/>
</linearGradient>
<linearGradient id="paint59_linear_3350_34634" x1="215.652" y1="39.873" x2="106.838" y2="137.444" gradientUnits="userSpaceOnUse">
<stop stop-color="white"/>
<stop offset="1" stop-color="white" stop-opacity="0"/>
</linearGradient>
<linearGradient id="paint60_linear_3350_34634" x1="252.289" y1="362.94" x2="212.973" y2="438.511" gradientUnits="userSpaceOnUse">
<stop stop-color="#F4DC73"/>
<stop offset="1" stop-color="#E57300"/>
</linearGradient>
<linearGradient id="paint61_linear_3350_34634" x1="281.136" y1="312.452" x2="193.141" y2="428.965" gradientUnits="userSpaceOnUse">
<stop stop-color="#EDE8FF"/>
<stop offset="0.2566" stop-color="#DBD2FF"/>
<stop offset="1" stop-color="#A793FF"/>
</linearGradient>
<linearGradient id="paint62_linear_3350_34634" x1="163.831" y1="374.121" x2="225.682" y2="462.587" gradientUnits="userSpaceOnUse">
<stop stop-color="#DBCCFF"/>
<stop offset="0.5" stop-color="#6744FF"/>
<stop offset="1" stop-color="#240068"/>
</linearGradient>
<linearGradient id="paint63_linear_3350_34634" x1="171.462" y1="358.089" x2="202.125" y2="421.517" gradientUnits="userSpaceOnUse">
<stop stop-color="#FF7D71"/>
<stop offset="0.5317" stop-color="#BD1F00"/>
<stop offset="1" stop-color="#741000"/>
</linearGradient>
<linearGradient id="paint64_linear_3350_34634" x1="186.545" y1="370.044" x2="218.54" y2="431.338" gradientUnits="userSpaceOnUse">
<stop stop-color="#F4DC73"/>
<stop offset="1" stop-color="#E57300"/>
</linearGradient>
<linearGradient id="paint65_linear_3350_34634" x1="177.831" y1="326.925" x2="215.693" y2="409.008" gradientUnits="userSpaceOnUse">
<stop stop-color="#DBCCFF"/>
<stop offset="0.5" stop-color="#6744FF"/>
<stop offset="1" stop-color="#240068"/>
</linearGradient>
<linearGradient id="paint66_linear_3350_34634" x1="196.483" y1="331.593" x2="213.624" y2="444.868" gradientUnits="userSpaceOnUse">
<stop stop-color="#DBCCFF"/>
<stop offset="0.5" stop-color="#6744FF"/>
<stop offset="1" stop-color="#240068"/>
</linearGradient>
<linearGradient id="paint67_linear_3350_34634" x1="230.839" y1="373.211" x2="238.04" y2="420.804" gradientUnits="userSpaceOnUse">
<stop stop-color="#DBCCFF"/>
<stop offset="0.5" stop-color="#6744FF"/>
<stop offset="1" stop-color="#240068"/>
</linearGradient>
<linearGradient id="paint68_linear_3350_34634" x1="230.839" y1="362.991" x2="238.04" y2="410.585" gradientUnits="userSpaceOnUse">
<stop stop-color="#DBCCFF"/>
<stop offset="0.5" stop-color="#6744FF"/>
<stop offset="1" stop-color="#240068"/>
</linearGradient>
<linearGradient id="paint69_linear_3350_34634" x1="230.839" y1="352.769" x2="238.04" y2="400.362" gradientUnits="userSpaceOnUse">
<stop stop-color="#DBCCFF"/>
<stop offset="0.5" stop-color="#6744FF"/>
<stop offset="1" stop-color="#240068"/>
</linearGradient>
<linearGradient id="paint70_linear_3350_34634" x1="230.839" y1="342.548" x2="238.04" y2="390.142" gradientUnits="userSpaceOnUse">
<stop stop-color="#DBCCFF"/>
<stop offset="0.5" stop-color="#6744FF"/>
<stop offset="1" stop-color="#240068"/>
</linearGradient>
<linearGradient id="paint71_linear_3350_34634" x1="230.839" y1="332.33" x2="238.04" y2="379.923" gradientUnits="userSpaceOnUse">
<stop stop-color="#DBCCFF"/>
<stop offset="0.5" stop-color="#6744FF"/>
<stop offset="1" stop-color="#240068"/>
</linearGradient>
<linearGradient id="paint72_linear_3350_34634" x1="196.483" y1="341.815" x2="213.623" y2="455.088" gradientUnits="userSpaceOnUse">
<stop stop-color="#DBCCFF"/>
<stop offset="0.5" stop-color="#6744FF"/>
<stop offset="1" stop-color="#240068"/>
</linearGradient>
<linearGradient id="paint73_linear_3350_34634" x1="196.483" y1="352.032" x2="213.624" y2="465.307" gradientUnits="userSpaceOnUse">
<stop stop-color="#DBCCFF"/>
<stop offset="0.5" stop-color="#6744FF"/>
<stop offset="1" stop-color="#240068"/>
</linearGradient>
<linearGradient id="paint74_linear_3350_34634" x1="196.483" y1="362.254" x2="213.624" y2="475.53" gradientUnits="userSpaceOnUse">
<stop stop-color="#DBCCFF"/>
<stop offset="0.5" stop-color="#6744FF"/>
<stop offset="1" stop-color="#240068"/>
</linearGradient>
<linearGradient id="paint75_linear_3350_34634" x1="150.492" y1="334.771" x2="369.825" y2="655.388" gradientUnits="userSpaceOnUse">
<stop stop-color="#EDE8FF"/>
<stop offset="0.2566" stop-color="#DBD2FF"/>
<stop offset="1" stop-color="#A793FF"/>
</linearGradient>
<linearGradient id="paint76_linear_3350_34634" x1="150.347" y1="365.181" x2="212.198" y2="453.647" gradientUnits="userSpaceOnUse">
<stop stop-color="#DBCCFF"/>
<stop offset="0.5" stop-color="#6744FF"/>
<stop offset="1" stop-color="#240068"/>
</linearGradient>
<linearGradient id="paint77_linear_3350_34634" x1="157.978" y1="349.145" x2="188.641" y2="412.573" gradientUnits="userSpaceOnUse">
<stop stop-color="#FF7D71"/>
<stop offset="0.5317" stop-color="#BD1F00"/>
<stop offset="1" stop-color="#741000"/>
</linearGradient>
<linearGradient id="paint78_linear_3350_34634" x1="173.06" y1="361.104" x2="205.056" y2="422.398" gradientUnits="userSpaceOnUse">
<stop stop-color="#F4DC73"/>
<stop offset="1" stop-color="#E57300"/>
</linearGradient>
<linearGradient id="paint79_linear_3350_34634" x1="164.346" y1="317.983" x2="202.208" y2="400.067" gradientUnits="userSpaceOnUse">
<stop stop-color="#DBCCFF"/>
<stop offset="0.5" stop-color="#6744FF"/>
<stop offset="1" stop-color="#240068"/>
</linearGradient>
<linearGradient id="paint80_linear_3350_34634" x1="183" y1="322.65" x2="200.141" y2="435.927" gradientUnits="userSpaceOnUse">
<stop stop-color="#DBCCFF"/>
<stop offset="0.5" stop-color="#6744FF"/>
<stop offset="1" stop-color="#240068"/>
</linearGradient>
<linearGradient id="paint81_linear_3350_34634" x1="217.354" y1="364.27" x2="224.556" y2="411.865" gradientUnits="userSpaceOnUse">
<stop stop-color="#DBCCFF"/>
<stop offset="0.5" stop-color="#6744FF"/>
<stop offset="1" stop-color="#240068"/>
</linearGradient>
<linearGradient id="paint82_linear_3350_34634" x1="217.354" y1="354.051" x2="224.556" y2="401.644" gradientUnits="userSpaceOnUse">
<stop stop-color="#DBCCFF"/>
<stop offset="0.5" stop-color="#6744FF"/>
<stop offset="1" stop-color="#240068"/>
</linearGradient>
<linearGradient id="paint83_linear_3350_34634" x1="217.354" y1="343.826" x2="224.556" y2="391.421" gradientUnits="userSpaceOnUse">
<stop stop-color="#DBCCFF"/>
<stop offset="0.5" stop-color="#6744FF"/>
<stop offset="1" stop-color="#240068"/>
</linearGradient>
<linearGradient id="paint84_linear_3350_34634" x1="217.354" y1="333.608" x2="224.556" y2="381.202" gradientUnits="userSpaceOnUse">
<stop stop-color="#DBCCFF"/>
<stop offset="0.5" stop-color="#6744FF"/>
<stop offset="1" stop-color="#240068"/>
</linearGradient>
<linearGradient id="paint85_linear_3350_34634" x1="217.354" y1="323.386" x2="224.556" y2="370.979" gradientUnits="userSpaceOnUse">
<stop stop-color="#DBCCFF"/>
<stop offset="0.5" stop-color="#6744FF"/>
<stop offset="1" stop-color="#240068"/>
</linearGradient>
<linearGradient id="paint86_linear_3350_34634" x1="183" y1="332.873" x2="200.14" y2="446.147" gradientUnits="userSpaceOnUse">
<stop stop-color="#DBCCFF"/>
<stop offset="0.5" stop-color="#6744FF"/>
<stop offset="1" stop-color="#240068"/>
</linearGradient>
<linearGradient id="paint87_linear_3350_34634" x1="183" y1="343.091" x2="200.141" y2="456.367" gradientUnits="userSpaceOnUse">
<stop stop-color="#DBCCFF"/>
<stop offset="0.5" stop-color="#6744FF"/>
<stop offset="1" stop-color="#240068"/>
</linearGradient>
<linearGradient id="paint88_linear_3350_34634" x1="183" y1="353.313" x2="200.141" y2="466.589" gradientUnits="userSpaceOnUse">
<stop stop-color="#DBCCFF"/>
<stop offset="0.5" stop-color="#6744FF"/>
<stop offset="1" stop-color="#240068"/>
</linearGradient>
<linearGradient id="paint89_linear_3350_34634" x1="173.372" y1="363.125" x2="220.559" y2="564.477" gradientUnits="userSpaceOnUse">
<stop stop-color="#F4DC73"/>
<stop offset="1" stop-color="#E57300"/>
</linearGradient>
<linearGradient id="paint90_linear_3350_34634" x1="475.872" y1="-69.7548" x2="501.41" y2="262.077" gradientUnits="userSpaceOnUse">
<stop stop-color="#DBCCFF"/>
<stop offset="0.5" stop-color="#6744FF"/>
<stop offset="1" stop-color="#240068"/>
</linearGradient>
<linearGradient id="paint91_linear_3350_34634" x1="529.924" y1="-0.827615" x2="529.924" y2="152.326" gradientUnits="userSpaceOnUse">
<stop stop-color="#DBCCFF"/>
<stop offset="0.5" stop-color="#6744FF"/>
<stop offset="1" stop-color="#240068"/>
</linearGradient>
</defs>
</svg>
