<svg width="63" height="66" viewBox="0 0 63 66" fill="none" xmlns="http://www.w3.org/2000/svg">
<rect x="0.5" y="0.5" width="61.7757" height="64.8" rx="14.5" fill="#6C63FF"/>
<rect x="0.5" y="0.5" width="61.7757" height="64.8" rx="14.5" stroke="#EBEBEB"/>
<path d="M45.743 26.6898C45.9144 26.7167 46.0785 26.7752 46.2259 26.862C48.4487 28.1703 49.7757 30.4274 49.7757 32.9C49.7757 35.3727 48.4487 37.6297 46.2259 38.938L24.5276 51.7081C23.2928 52.435 21.9201 52.8 20.5441 52.8C19.2925 52.8 18.0382 52.498 16.8808 51.8918C14.4507 50.6191 13 48.2932 13 45.6701V40.0667H14.2803H15.6454V45.6703C15.6454 47.3727 16.5871 48.8825 18.1643 49.7087C19.7414 50.5346 21.5969 50.4903 23.1276 49.5894L31.3642 44.7419L33.9459 43.2225L44.8259 36.8194C46.2687 35.9701 47.1298 34.5051 47.1298 32.9002C47.1298 31.2953 46.2687 29.8303 44.8259 28.9811C44.6785 28.8943 44.5506 28.781 44.4496 28.6476C44.3486 28.5142 44.2764 28.3633 44.2372 28.2035C44.1979 28.0438 44.1924 27.8783 44.2209 27.7166C44.2494 27.5548 44.3114 27.3999 44.4033 27.2608C44.4953 27.1217 44.6153 27.001 44.7567 26.9056C44.898 26.8103 45.0579 26.7421 45.2271 26.7051C45.3963 26.6681 45.5717 26.6629 45.743 26.6898Z" fill="white"/>
<path d="M15.6454 40.0667V29.7587V20.1299C15.6454 18.4275 16.5871 16.9177 18.1643 16.0915C19.7414 15.2656 21.5969 15.3099 23.1276 16.2108L35.7589 23.6447C35.9064 23.7315 36.0704 23.79 36.2418 23.8169C36.4132 23.8439 36.5885 23.8386 36.7577 23.8016C36.927 23.7646 37.0868 23.6964 37.2282 23.6011C37.3695 23.5058 37.4896 23.3851 37.5815 23.2459C37.6734 23.1068 37.7354 22.9519 37.7639 22.7902C37.7924 22.6284 37.7869 22.4629 37.7477 22.3032C37.7084 22.1435 37.6363 21.9926 37.5352 21.8592C37.4342 21.7258 37.3064 21.6124 37.1589 21.5257L24.5276 14.0919C22.1695 12.7041 19.311 12.6352 16.8805 13.9082C14.4507 15.1809 13 17.5068 13 20.1299V29.2141V40.0667H15.6454Z" fill="white"/>
<path d="M24.2417 42.0646C23.8129 42.0646 23.4692 41.9361 23.2104 41.679C22.9516 41.422 22.8223 41.0732 22.8223 40.6325V27.7443C22.8223 27.3184 22.9443 26.9879 23.1882 26.7529C23.4322 26.5179 23.7686 26.4004 24.1974 26.4004H29.6534C31.3242 26.4004 32.6254 26.8153 33.5569 27.6452C34.4885 28.475 34.9542 29.639 34.9542 31.1371C34.9542 32.6352 34.4885 33.8029 33.5569 34.6401C32.6254 35.4772 31.3242 35.8958 29.6534 35.8958H25.6834V40.6325C25.6834 41.0732 25.554 41.422 25.2952 41.679C25.0365 41.9361 24.6853 42.0646 24.2417 42.0646ZM29.2986 33.7147C31.2651 33.7147 32.2484 32.8629 32.2484 31.1591C32.2484 29.4554 31.2651 28.6035 29.2986 28.6035H25.6834V33.7147H29.2986Z" fill="white"/>
</svg>
