<svg width="347" height="205" viewBox="0 0 347 205" fill="none" xmlns="http://www.w3.org/2000/svg">
<path opacity="0.3" fill-rule="evenodd" clip-rule="evenodd" d="M84.3154 145.357C84.3154 156.436 91.9233 167.061 105.465 174.895C133.646 191.197 179.405 191.197 207.586 174.895C221.128 167.061 228.736 156.436 228.736 145.357H192.631C192.631 150.897 188.827 156.209 182.056 160.126C167.966 168.277 145.086 168.277 130.995 160.126C124.225 156.209 120.421 150.897 120.421 145.357H84.3154Z" fill="#CFCEFF"/>
<path fill-rule="evenodd" clip-rule="evenodd" d="M105.27 75.3082V132.245L139.386 139.081C141.174 136.095 144.11 133.382 147.972 131.148C156.422 126.26 168.505 124.107 180.244 125.398L186.986 104.879V47.9425C163.507 45.3607 139.341 49.6666 122.442 59.4424C114.717 63.9116 108.845 69.3364 105.27 75.3082Z" fill="white"/>
<path fill-rule="evenodd" clip-rule="evenodd" d="M105.27 75.3082V132.245L139.386 139.081C141.174 136.095 144.11 133.382 147.972 131.148C156.422 126.26 168.505 124.107 180.244 125.398L186.986 104.879V47.9425C163.507 45.3607 139.341 49.6666 122.442 59.4424C114.717 63.9116 108.845 69.3364 105.27 75.3082Z" stroke="#475467" stroke-width="0.680392" stroke-linecap="round" stroke-linejoin="round"/>
<path fill-rule="evenodd" clip-rule="evenodd" d="M186.986 47.9425C163.507 45.3607 139.341 49.6666 122.442 59.4424C114.717 63.9116 108.845 69.3364 105.27 75.3082L139.386 82.1441C141.174 79.1582 144.11 76.4458 147.972 74.2114C156.422 69.3234 168.505 67.1703 180.244 68.4614L186.986 47.9425Z" fill="white"/>
<path fill-rule="evenodd" clip-rule="evenodd" d="M186.986 47.9425C163.507 45.3607 139.341 49.6666 122.442 59.4424C114.717 63.9116 108.845 69.3364 105.27 75.3082L139.386 82.1441C141.174 79.1582 144.11 76.4458 147.972 74.2114C156.422 69.3234 168.505 67.1703 180.244 68.4614L186.986 47.9425Z" stroke="#475467" stroke-width="0.680392" stroke-linecap="round" stroke-linejoin="round"/>
<path fill-rule="evenodd" clip-rule="evenodd" d="M105.27 132.245V75.3086L139.386 82.1445V139.081L105.27 132.245Z" fill="#CFCEFF"/>
<path fill-rule="evenodd" clip-rule="evenodd" d="M105.27 132.245V75.3086L139.386 82.1445V139.081L105.27 132.245Z" stroke="#475467" stroke-width="0.680392" stroke-linecap="round" stroke-linejoin="round"/>
<path fill-rule="evenodd" clip-rule="evenodd" d="M186.986 104.878V47.9414L180.244 68.4603V125.397L186.986 104.878Z" fill="white"/>
<path fill-rule="evenodd" clip-rule="evenodd" d="M186.986 104.878V47.9414L180.244 68.4603V125.397L186.986 104.878Z" stroke="#475467" stroke-width="0.680392" stroke-linecap="round" stroke-linejoin="round"/>
<path fill-rule="evenodd" clip-rule="evenodd" d="M242.748 98.5102C239.332 91.8284 233.08 85.7474 224.563 80.8203C216.046 75.8933 205.534 72.277 193.983 70.3008L173.503 110.358L242.748 98.5102Z" fill="white"/>
<path fill-rule="evenodd" clip-rule="evenodd" d="M242.748 98.5102C239.332 91.8284 233.08 85.7474 224.563 80.8203C216.046 75.8933 205.534 72.277 193.983 70.3008L173.503 110.358L242.748 98.5102Z" stroke="#475467" stroke-width="0.680392" stroke-linecap="round" stroke-linejoin="round"/>
<path fill-rule="evenodd" clip-rule="evenodd" d="M242.748 134.375V98.5078L173.493 110.361L173.503 146.222L242.748 134.375Z" fill="#CFCEFF"/>
<path fill-rule="evenodd" clip-rule="evenodd" d="M242.748 134.375V98.5078L173.493 110.361L173.503 146.222L242.748 134.375Z" stroke="#475467" stroke-width="0.680392" stroke-linecap="round" stroke-linejoin="round"/>
<path fill-rule="evenodd" clip-rule="evenodd" d="M101.291 123.926C101.291 135.005 108.899 145.63 122.441 153.463C150.622 169.766 196.381 169.766 224.562 153.463C238.104 145.63 245.712 135.005 245.712 123.926H209.607C209.607 129.465 205.803 134.778 199.032 138.695C184.941 146.846 162.062 146.846 147.971 138.695C141.2 134.778 137.396 129.465 137.396 123.926H101.291Z" fill="white"/>
<path fill-rule="evenodd" clip-rule="evenodd" d="M101.291 123.926C101.291 135.005 108.899 145.63 122.441 153.463C150.622 169.766 196.381 169.766 224.562 153.463C238.104 145.63 245.712 135.005 245.712 123.926H209.607C209.607 129.465 205.803 134.778 199.032 138.695C184.941 146.846 162.062 146.846 147.971 138.695C141.2 134.778 137.396 129.465 137.396 123.926H101.291Z" stroke="#475467" stroke-width="0.680392" stroke-linecap="round" stroke-linejoin="round"/>
<path opacity="0.3" fill-rule="evenodd" clip-rule="evenodd" d="M116.266 128.354L105.03 134.853L116.266 141.353L120.68 141.109C120.68 141.109 123.092 137.024 127.502 134.853L116.266 128.354Z" fill="#CFCEFF"/>
<path opacity="0.3" fill-rule="evenodd" clip-rule="evenodd" d="M131.701 141.348L120.465 147.847L131.701 154.347L136.115 154.103C136.115 154.103 138.527 150.018 142.937 147.847L131.701 141.348Z" fill="#CFCEFF"/>
<path opacity="0.3" fill-rule="evenodd" clip-rule="evenodd" d="M153.159 147.549L141.923 154.049L153.159 160.548L157.573 160.304C157.573 160.304 159.985 156.219 164.395 154.049L153.159 147.549Z" fill="#CFCEFF"/>
<path fill-rule="evenodd" clip-rule="evenodd" d="M245.699 145.31H245.672C246.195 156.384 239.158 167.556 224.561 176C196.376 192.305 150.611 192.305 122.427 176C107.83 167.556 100.793 156.384 101.315 145.31H101.288V123.914C101.288 134.609 108.334 145.304 122.427 153.456C150.611 169.76 196.376 169.76 224.561 153.456C238.653 145.304 245.699 134.609 245.699 123.914V145.31Z" fill="#CFCEFF"/>
<path fill-rule="evenodd" clip-rule="evenodd" d="M245.699 145.31H245.672C246.195 156.384 239.158 167.556 224.561 176C196.376 192.305 150.611 192.305 122.427 176C107.83 167.556 100.793 156.384 101.315 145.31H101.288V123.914C101.288 134.609 108.334 145.304 122.427 153.456C150.611 169.76 196.376 169.76 224.561 153.456C238.653 145.304 245.699 134.609 245.699 123.914V145.31Z" stroke="#475467" stroke-width="0.680392" stroke-linecap="round" stroke-linejoin="round"/>
<path fill-rule="evenodd" clip-rule="evenodd" d="M120.679 114.492L109.443 120.992V134.611L120.679 141.111L131.915 134.611V120.992L120.679 114.492Z" fill="#CFCEFF"/>
<path fill-rule="evenodd" clip-rule="evenodd" d="M120.679 114.492L109.443 120.992V134.611L120.679 141.111L131.915 134.611V120.992L120.679 114.492Z" stroke="#475467" stroke-width="0.680392" stroke-linecap="round" stroke-linejoin="round"/>
<path fill-rule="evenodd" clip-rule="evenodd" d="M131.915 120.99L120.68 127.49V141.109L131.915 134.61V120.99Z" fill="white"/>
<path fill-rule="evenodd" clip-rule="evenodd" d="M131.915 120.99L120.68 127.49V141.109L131.915 134.61V120.99Z" stroke="#475467" stroke-width="0.680392" stroke-linecap="round" stroke-linejoin="round"/>
<path fill-rule="evenodd" clip-rule="evenodd" d="M120.679 114.492L109.443 120.992L120.679 127.492L131.915 120.992L120.679 114.492Z" fill="white"/>
<path fill-rule="evenodd" clip-rule="evenodd" d="M120.679 114.492L109.443 120.992L120.679 127.492L131.915 120.992L120.679 114.492Z" stroke="#475467" stroke-width="0.680392" stroke-linecap="round" stroke-linejoin="round"/>
<path fill-rule="evenodd" clip-rule="evenodd" d="M136.177 114.736L124.94 121.236V147.672L136.177 154.172L147.412 147.672V121.236L136.177 114.736Z" fill="#CFCEFF"/>
<path fill-rule="evenodd" clip-rule="evenodd" d="M136.177 114.736L124.94 121.236V147.672L136.177 154.172L147.412 147.672V121.236L136.177 114.736Z" stroke="#475467" stroke-width="0.680392" stroke-linecap="round" stroke-linejoin="round"/>
<path fill-rule="evenodd" clip-rule="evenodd" d="M147.412 121.236L136.176 127.736V154.172L147.412 147.673V121.236Z" fill="white"/>
<path fill-rule="evenodd" clip-rule="evenodd" d="M147.412 121.236L136.176 127.736V154.172L147.412 147.673V121.236Z" stroke="#475467" stroke-width="0.680392" stroke-linecap="round" stroke-linejoin="round"/>
<path fill-rule="evenodd" clip-rule="evenodd" d="M136.177 114.736L124.94 121.236L136.177 127.736L147.412 121.236L136.177 114.736Z" fill="white"/>
<path fill-rule="evenodd" clip-rule="evenodd" d="M136.177 114.736L124.94 121.236L136.177 127.736L147.412 121.236L136.177 114.736Z" stroke="#475467" stroke-width="0.680392" stroke-linecap="round" stroke-linejoin="round"/>
<path fill-rule="evenodd" clip-rule="evenodd" d="M157.49 102.404L146.254 108.904V153.827L157.49 160.327L168.726 153.827V108.904L157.49 102.404Z" fill="#CFCEFF"/>
<path fill-rule="evenodd" clip-rule="evenodd" d="M157.49 102.404L146.254 108.904V153.827L157.49 160.327L168.726 153.827V108.904L157.49 102.404Z" stroke="#475467" stroke-width="0.680392" stroke-linecap="round" stroke-linejoin="round"/>
<path fill-rule="evenodd" clip-rule="evenodd" d="M168.725 108.906L157.489 115.406V160.329L168.725 153.829V108.906Z" fill="white"/>
<path fill-rule="evenodd" clip-rule="evenodd" d="M168.725 108.906L157.489 115.406V160.329L168.725 153.829V108.906Z" stroke="#475467" stroke-width="0.680392" stroke-linecap="round" stroke-linejoin="round"/>
<path fill-rule="evenodd" clip-rule="evenodd" d="M157.49 102.404L146.254 108.904L157.49 115.404L168.726 108.904L157.49 102.404Z" fill="white"/>
<path fill-rule="evenodd" clip-rule="evenodd" d="M157.49 102.404L146.254 108.904L157.49 115.404L168.726 108.904L157.49 102.404Z" stroke="#475467" stroke-width="0.680392" stroke-linecap="round" stroke-linejoin="round"/>
<path fill-rule="evenodd" clip-rule="evenodd" d="M159.473 53.5645C163.376 51.3066 169.715 51.3066 173.618 53.5645C177.522 55.8227 177.522 59.4894 173.618 61.7476C169.715 64.0055 163.376 64.0055 159.473 61.7476C155.569 59.4894 155.569 55.8227 159.473 53.5645Z" fill="#CFCEFF"/>
<path fill-rule="evenodd" clip-rule="evenodd" d="M166.545 15.8906C174.352 15.8906 180.69 22.2414 180.69 30.0635C180.69 37.886 174.352 44.2368 166.545 44.2368C158.738 44.2368 152.399 37.886 152.399 30.0635C152.399 22.2414 158.738 15.8906 166.545 15.8906Z" fill="#CFCEFF"/>
<path fill-rule="evenodd" clip-rule="evenodd" d="M166.545 15.8906C174.352 15.8906 180.69 22.2414 180.69 30.0635C180.69 37.886 174.352 44.2368 166.545 44.2368C158.738 44.2368 152.399 37.886 152.399 30.0635C152.399 22.2414 158.738 15.8906 166.545 15.8906Z" stroke="white" stroke-width="0.680392" stroke-linecap="round" stroke-linejoin="round"/>
</svg>
