<svg width="430" height="392" viewBox="0 0 430 392" fill="none" xmlns="http://www.w3.org/2000/svg">
<path opacity="0.3" fill-rule="evenodd" clip-rule="evenodd" d="M39.4856 285.09L7.04785 303.781L39.4856 322.472L52.578 322.438L65.3777 303.781L39.4856 285.09Z" fill="#CFCEFF"/>
<path opacity="0.3" fill-rule="evenodd" clip-rule="evenodd" d="M75.1121 312.676L42.6738 331.367L75.1121 350.058L101.297 350.024L114.096 331.367L75.1121 312.676Z" fill="#CFCEFF"/>
<path opacity="0.3" fill-rule="evenodd" clip-rule="evenodd" d="M120.62 342.695L88.1826 361.387L120.62 380.078L153.351 380.044L166.151 361.387L120.62 342.695Z" fill="#CFCEFF"/>
<path fill-rule="evenodd" clip-rule="evenodd" d="M35.7695 163.374V173.037L86.7275 202.4L35.7695 231.763V241.426C35.7695 241.426 187.424 328.812 237.33 357.569C240.57 359.436 244.563 359.436 247.804 357.569L247.82 357.56V357.56C247.82 357.56 400.322 269.685 403.562 267.818C406.803 265.951 408.799 262.5 408.799 258.765C408.799 244.044 408.799 223.687 408.799 210.889C408.799 203.42 404.806 196.518 398.325 192.783C354.933 167.78 191.528 73.623 191.528 73.623L35.7695 163.374Z" fill="white"/>
<path fill-rule="evenodd" clip-rule="evenodd" d="M35.7695 163.374V173.037L86.7275 202.4L35.7695 231.763V241.426C35.7695 241.426 187.424 328.812 237.33 357.569C240.57 359.436 244.563 359.436 247.804 357.569L247.82 357.56C247.82 357.56 400.322 269.685 403.562 267.818C406.803 265.951 408.799 262.5 408.799 258.765C408.799 244.044 408.799 223.687 408.799 210.889C408.799 203.42 404.806 196.518 398.325 192.783C354.933 167.78 191.528 73.623 191.528 73.623L35.7695 163.374Z" stroke="#475467" stroke-width="1.30667" stroke-linecap="round" stroke-linejoin="round"/>
<path fill-rule="evenodd" clip-rule="evenodd" d="M35.7695 173.036L234.806 287.725C239.668 290.526 242.662 295.702 242.662 301.304C242.662 312.342 242.662 330.886 242.662 341.924C242.662 343.791 241.664 345.517 240.043 346.451C238.423 347.384 236.427 347.384 234.806 346.451L35.7695 231.762V241.425C35.7695 241.425 187.424 328.811 237.33 357.568C240.57 359.435 244.563 359.435 247.804 357.568C251.044 355.701 253.041 352.25 253.041 348.515C253.041 333.794 253.041 313.437 253.041 300.639C253.041 293.169 249.048 286.268 242.567 282.533C199.174 257.529 35.7695 163.373 35.7695 163.373V173.036Z" fill="#CFCEFF"/>
<path fill-rule="evenodd" clip-rule="evenodd" d="M35.7695 173.036L234.806 287.725C239.668 290.526 242.662 295.702 242.662 301.304C242.662 312.342 242.662 330.886 242.662 341.924C242.662 343.791 241.664 345.517 240.043 346.451C238.423 347.384 236.427 347.384 234.806 346.451L35.7695 231.762V241.425C35.7695 241.425 187.424 328.811 237.33 357.568C240.57 359.435 244.563 359.435 247.804 357.568C251.044 355.701 253.041 352.25 253.041 348.515C253.041 333.794 253.041 313.437 253.041 300.639C253.041 293.169 249.048 286.268 242.567 282.533C199.174 257.529 35.7695 163.373 35.7695 163.373V173.036Z" stroke="#475467" stroke-width="1.30667" stroke-linecap="round" stroke-linejoin="round"/>
<path fill-rule="evenodd" clip-rule="evenodd" d="M66.3775 190.674C66.3775 190.674 52.6934 198.56 43.6243 203.785C42.0035 204.719 41.0059 206.445 41.0059 208.312C41.0059 210.179 42.0035 211.905 43.6243 212.838C75.008 230.922 190.956 297.733 217.047 312.767C220.287 314.635 224.28 314.635 227.521 312.767C233.558 309.288 242.661 304.043 242.661 304.043C242.661 304.043 242.653 302.858 242.642 301.239C242.604 295.644 239.598 290.487 234.744 287.689C200.579 268.003 66.3775 190.674 66.3775 190.674Z" fill="#CFCEFF"/>
<path fill-rule="evenodd" clip-rule="evenodd" d="M168.898 134.49C198.861 117.225 247.512 117.225 277.475 134.49C307.437 151.755 307.437 179.789 277.475 197.054C247.512 214.319 198.861 214.319 168.898 197.054C138.935 179.789 138.935 151.755 168.898 134.49Z" fill="white"/>
<path fill-rule="evenodd" clip-rule="evenodd" d="M168.898 134.49C198.861 117.225 247.512 117.225 277.475 134.49C307.437 151.755 307.437 179.789 277.475 197.054C247.512 214.319 198.861 214.319 168.898 197.054C138.935 179.789 138.935 151.755 168.898 134.49Z" stroke="#475467" stroke-width="1.30667" stroke-linecap="round" stroke-linejoin="round"/>
<path fill-rule="evenodd" clip-rule="evenodd" d="M324.384 145.991C342.287 135.675 371.357 135.675 389.26 145.991C407.163 156.306 407.163 173.057 389.26 183.373C371.357 193.69 342.287 193.69 324.384 183.373C306.481 173.057 306.481 156.306 324.384 145.991Z" fill="white"/>
<path fill-rule="evenodd" clip-rule="evenodd" d="M324.384 145.991C342.287 135.675 371.357 135.675 389.26 145.991C407.163 156.306 407.163 173.057 389.26 183.373C371.357 193.69 342.287 193.69 324.384 183.373C306.481 173.057 306.481 156.306 324.384 145.991Z" stroke="#475467" stroke-width="1.30667" stroke-linecap="round" stroke-linejoin="round"/>
<path fill-rule="evenodd" clip-rule="evenodd" d="M337.605 145.708C348.21 139.597 365.432 139.597 376.038 145.708C386.644 151.82 386.644 161.743 376.038 167.854C365.432 173.965 348.21 173.965 337.605 167.854C326.999 161.743 326.999 151.82 337.605 145.708Z" fill="white"/>
<path fill-rule="evenodd" clip-rule="evenodd" d="M337.605 145.708C348.21 139.597 365.432 139.597 376.038 145.708C386.644 151.82 386.644 161.743 376.038 167.854C365.432 173.965 348.21 173.965 337.605 167.854C326.999 161.743 326.999 151.82 337.605 145.708Z" stroke="#475467" stroke-width="1.30667" stroke-linecap="round" stroke-linejoin="round"/>
<path fill-rule="evenodd" clip-rule="evenodd" d="M348.235 145.556C352.974 142.825 360.671 142.825 365.411 145.556C370.151 148.288 370.151 152.722 365.411 155.453C360.671 158.185 352.974 158.185 348.235 155.453C343.495 152.722 343.495 148.288 348.235 145.556Z" fill="white"/>
<path fill-rule="evenodd" clip-rule="evenodd" d="M348.235 145.556C352.974 142.825 360.671 142.825 365.411 145.556C370.151 148.288 370.151 152.722 365.411 155.453C360.671 158.185 352.974 158.185 348.235 155.453C343.495 152.722 343.495 148.288 348.235 145.556Z" stroke="#475467" stroke-width="1.30667" stroke-linecap="round" stroke-linejoin="round"/>
<path fill-rule="evenodd" clip-rule="evenodd" d="M299.947 184.105H299.918C300.474 195.832 292.993 207.662 277.475 216.603C247.512 233.868 198.861 233.868 168.898 216.603C153.38 207.662 145.899 195.832 146.455 184.105H146.426V165.771C146.426 177.096 153.917 188.421 168.898 197.053C198.861 214.318 247.512 214.318 277.475 197.053C292.456 188.421 299.947 177.096 299.947 165.771V184.105Z" fill="#CFCEFF"/>
<path fill-rule="evenodd" clip-rule="evenodd" d="M299.947 184.105H299.918C300.474 195.832 292.993 207.662 277.475 216.603C247.512 233.868 198.861 233.868 168.898 216.603C153.38 207.662 145.899 195.832 146.455 184.105H146.426V165.771C146.426 177.096 153.917 188.421 168.898 197.053C198.861 214.318 247.512 214.318 277.475 197.053C292.456 188.421 299.947 177.096 299.947 165.771V184.105Z" stroke="#475467" stroke-width="1.30667" stroke-linecap="round" stroke-linejoin="round"/>
<path fill-rule="evenodd" clip-rule="evenodd" d="M402.688 175.638H402.67C403.002 182.645 398.533 189.713 389.261 195.056C371.357 205.373 342.287 205.373 324.384 195.056C315.113 189.713 310.642 182.645 310.974 175.638H310.957V164.684C310.957 171.45 315.433 178.217 324.384 183.375C342.287 193.691 371.357 193.691 389.261 183.375C398.212 178.217 402.688 171.45 402.688 164.684V175.638Z" fill="#CFCEFF"/>
<path fill-rule="evenodd" clip-rule="evenodd" d="M402.688 175.638H402.67C403.002 182.645 398.533 189.713 389.261 195.056C371.357 205.373 342.287 205.373 324.384 195.056C315.113 189.713 310.642 182.645 310.974 175.638H310.957V164.684C310.957 171.45 315.433 178.217 324.384 183.375C342.287 193.691 371.357 193.691 389.261 183.375C398.212 178.217 402.688 171.45 402.688 164.684V175.638Z" stroke="#475467" stroke-width="1.30667" stroke-linecap="round" stroke-linejoin="round"/>
<path fill-rule="evenodd" clip-rule="evenodd" d="M383.992 163.271H383.982C384.178 167.421 381.53 171.609 376.038 174.774C365.432 180.885 348.21 180.885 337.605 174.774C332.112 171.609 329.464 167.421 329.661 163.271H329.65V156.781C329.65 160.79 332.302 164.798 337.605 167.854C348.21 173.965 365.432 173.965 376.038 167.854C381.341 164.798 383.992 160.79 383.992 156.781V163.271Z" fill="#CFCEFF"/>
<path fill-rule="evenodd" clip-rule="evenodd" d="M383.992 163.271H383.982C384.178 167.421 381.53 171.609 376.038 174.774C365.432 180.885 348.21 180.885 337.605 174.774C332.112 171.609 329.464 167.421 329.661 163.271H329.65V156.781C329.65 160.79 332.302 164.798 337.605 167.854C348.21 173.965 365.432 173.965 376.038 167.854C381.341 164.798 383.992 160.79 383.992 156.781V163.271Z" stroke="#475467" stroke-width="1.30667" stroke-linecap="round" stroke-linejoin="round"/>
<path fill-rule="evenodd" clip-rule="evenodd" d="M368.966 153.406H368.961C369.049 155.261 367.866 157.133 365.411 158.547C360.671 161.279 352.974 161.279 348.235 158.547C345.78 157.133 344.597 155.261 344.684 153.406H344.68V150.506C344.68 152.297 345.865 154.089 348.235 155.454C352.974 158.186 360.671 158.186 365.411 155.454C367.781 154.089 368.966 152.297 368.966 150.506V153.406Z" fill="#CFCEFF"/>
<path fill-rule="evenodd" clip-rule="evenodd" d="M368.966 153.406H368.961C369.049 155.261 367.866 157.133 365.411 158.547C360.671 161.279 352.974 161.279 348.235 158.547C345.78 157.133 344.597 155.261 344.684 153.406H344.68V150.506C344.68 152.297 345.865 154.089 348.235 155.454C352.974 158.186 360.671 158.186 365.411 155.454C367.781 154.089 368.966 152.297 368.966 150.506V153.406Z" stroke="#475467" stroke-width="1.30667" stroke-linecap="round" stroke-linejoin="round"/>
<path fill-rule="evenodd" clip-rule="evenodd" d="M160.091 34.1758L186.508 19.5019C197.284 13.4082 212.226 14.3928 228.731 23.9027C261.549 42.8135 288.192 88.3175 288.192 125.456C288.192 143.646 281.8 156.477 271.418 162.614L243.903 177.908C254.658 171.928 261.314 158.946 261.314 140.385C261.314 103.247 234.67 57.7421 201.852 38.8321C185.584 29.458 170.833 28.3676 160.091 34.1758Z" fill="white"/>
<path fill-rule="evenodd" clip-rule="evenodd" d="M160.091 34.1758L186.508 19.5019C197.284 13.4082 212.226 14.3928 228.731 23.9027C261.549 42.8135 288.192 88.3175 288.192 125.456C288.192 143.646 281.8 156.477 271.418 162.614L243.903 177.908C254.658 171.928 261.314 158.946 261.314 140.385C261.314 103.247 234.67 57.7421 201.852 38.8321C185.584 29.458 170.833 28.3676 160.091 34.1758Z" stroke="#475467" stroke-width="1.30667" stroke-linecap="round" stroke-linejoin="round"/>
<path fill-rule="evenodd" clip-rule="evenodd" d="M201.852 38.8342C234.67 57.7443 261.313 103.249 261.313 140.387C261.313 177.525 234.67 192.324 201.852 173.414C169.034 154.503 142.39 108.999 142.39 71.8609C142.39 34.7228 169.034 19.9241 201.852 38.8342ZM201.852 65.4229C221.702 76.8608 237.818 104.384 237.818 126.849C237.818 149.312 221.702 158.264 201.852 146.825C182.001 135.387 165.885 107.863 165.885 85.3992C165.885 62.9357 182.001 53.9844 201.852 65.4229Z" fill="#CFCEFF"/>
<path fill-rule="evenodd" clip-rule="evenodd" d="M201.852 38.8342C234.67 57.7443 261.313 103.249 261.313 140.387C261.313 177.525 234.67 192.324 201.852 173.414C169.034 154.503 142.39 108.999 142.39 71.8609C142.39 34.7228 169.034 19.9241 201.852 38.8342ZM201.852 65.4229C221.702 76.8608 237.818 104.384 237.818 126.849C237.818 149.312 221.702 158.264 201.852 146.825C182.001 135.387 165.885 107.863 165.885 85.3992C165.885 62.9357 182.001 53.9844 201.852 65.4229Z" stroke="#475467" stroke-width="1.30667" stroke-linecap="round" stroke-linejoin="round"/>
<path fill-rule="evenodd" clip-rule="evenodd" d="M236.468 137.143C232.203 151.773 218.311 156.308 201.851 146.824C182.001 135.386 165.885 107.862 165.885 85.398C165.885 67.0315 176.658 57.6979 191.437 61.156C190.558 64.1725 190.088 67.6149 190.088 71.4519C190.088 93.9155 206.204 121.439 226.054 132.878C229.675 134.964 233.172 136.372 236.468 137.143Z" fill="white"/>
<path fill-rule="evenodd" clip-rule="evenodd" d="M236.468 137.143C232.203 151.773 218.311 156.308 201.851 146.824C182.001 135.386 165.885 107.862 165.885 85.398C165.885 67.0315 176.658 57.6979 191.437 61.156C190.558 64.1725 190.088 67.6149 190.088 71.4519C190.088 93.9155 206.204 121.439 226.054 132.878C229.675 134.964 233.172 136.372 236.468 137.143Z" stroke="#475467" stroke-width="1.30667" stroke-linecap="round" stroke-linejoin="round"/>
<path fill-rule="evenodd" clip-rule="evenodd" d="M52.5782 245.889L20.1406 264.58V303.745L52.5782 322.436L85.0164 303.745V264.58L52.5782 245.889Z" fill="#CFCEFF"/>
<path fill-rule="evenodd" clip-rule="evenodd" d="M52.5782 245.889L20.1406 264.58V303.745L52.5782 322.436L85.0164 303.745V264.58L52.5782 245.889Z" stroke="#475467" stroke-width="1.30667" stroke-linecap="round" stroke-linejoin="round"/>
<path fill-rule="evenodd" clip-rule="evenodd" d="M85.0154 264.582L52.5771 283.273V322.439L85.0154 303.747V264.582Z" fill="white"/>
<path fill-rule="evenodd" clip-rule="evenodd" d="M85.0154 264.582L52.5771 283.273V322.439L85.0154 303.747V264.582Z" stroke="#475467" stroke-width="1.30667" stroke-linecap="round" stroke-linejoin="round"/>
<path fill-rule="evenodd" clip-rule="evenodd" d="M52.5782 245.889L20.1406 264.58L52.5782 283.271L85.0164 264.58L52.5782 245.889Z" fill="white"/>
<path fill-rule="evenodd" clip-rule="evenodd" d="M52.5782 245.889L20.1406 264.58L52.5782 283.271L85.0164 264.58L52.5782 245.889Z" stroke="#475467" stroke-width="1.30667" stroke-linecap="round" stroke-linejoin="round"/>
<path fill-rule="evenodd" clip-rule="evenodd" d="M100.778 236.805L68.3398 255.497V331.519L100.778 350.21L133.216 331.519V255.497L100.778 236.805Z" fill="#CFCEFF"/>
<path fill-rule="evenodd" clip-rule="evenodd" d="M100.778 236.805L68.3398 255.497V331.519L100.778 350.21L133.216 331.519V255.497L100.778 236.805Z" stroke="#475467" stroke-width="1.30667" stroke-linecap="round" stroke-linejoin="round"/>
<path fill-rule="evenodd" clip-rule="evenodd" d="M133.217 255.498L100.778 274.189V350.212L133.217 331.52V255.498Z" fill="white"/>
<path fill-rule="evenodd" clip-rule="evenodd" d="M133.217 255.498L100.778 274.189V350.212L133.217 331.52V255.498Z" stroke="#475467" stroke-width="1.30667" stroke-linecap="round" stroke-linejoin="round"/>
<path fill-rule="evenodd" clip-rule="evenodd" d="M100.778 236.805L68.3398 255.497L100.778 274.188L133.216 255.497L100.778 236.805Z" fill="white"/>
<path fill-rule="evenodd" clip-rule="evenodd" d="M100.778 236.805L68.3398 255.497L100.778 274.188L133.216 255.497L100.778 236.805Z" stroke="#475467" stroke-width="1.30667" stroke-linecap="round" stroke-linejoin="round"/>
<path fill-rule="evenodd" clip-rule="evenodd" d="M152.696 213.561L120.259 232.252V361.436L152.696 380.128L185.135 361.436V232.252L152.696 213.561Z" fill="#CFCEFF"/>
<path fill-rule="evenodd" clip-rule="evenodd" d="M152.696 213.561L120.259 232.252V361.436L152.696 380.128L185.135 361.436V232.252L152.696 213.561Z" stroke="#475467" stroke-width="1.30667" stroke-linecap="round" stroke-linejoin="round"/>
<path fill-rule="evenodd" clip-rule="evenodd" d="M185.136 232.252L152.697 250.943V380.128L185.136 361.437V232.252Z" fill="white"/>
<path fill-rule="evenodd" clip-rule="evenodd" d="M185.136 232.252L152.697 250.943V380.128L185.136 361.437V232.252Z" stroke="#475467" stroke-width="1.30667" stroke-linecap="round" stroke-linejoin="round"/>
<path fill-rule="evenodd" clip-rule="evenodd" d="M152.696 213.561L120.259 232.252L152.696 250.943L185.135 232.252L152.696 213.561Z" fill="white"/>
<path fill-rule="evenodd" clip-rule="evenodd" d="M152.696 213.561L120.259 232.252L152.696 250.943L185.135 232.252L152.696 213.561Z" stroke="#475467" stroke-width="1.30667" stroke-linecap="round" stroke-linejoin="round"/>
</svg>
