<svg width="351" height="206" viewBox="0 0 351 206" fill="none" xmlns="http://www.w3.org/2000/svg">
<g clip-path="url(#clip0_3397_29039)">
<path opacity="0.3" d="M223.944 122.409C230.021 118.9 239.889 118.9 245.966 122.409C252.043 125.917 252.043 131.614 245.966 135.123C242.389 137.187 237.5 138.037 232.844 137.671L199.427 156.957C212.427 166.424 211.352 180.241 196.2 188.989C181.044 197.739 157.102 198.358 140.705 190.845L98.9248 214.957C99.231 215.654 99.3945 216.384 99.3945 217.135C99.3944 222.065 92.4008 226.062 83.7734 226.062C75.1459 226.062 68.1515 222.065 68.1514 217.135C68.1514 212.205 75.1458 208.209 83.7734 208.209C85.0687 208.209 86.3268 208.3 87.5303 208.47L130.266 183.808C121.248 174.607 123.525 162.703 137.098 154.867C150.675 147.028 171.304 145.714 187.241 150.926L220.318 131.837C218.323 128.657 219.532 124.956 223.944 122.409Z" fill="#CFCEFF"/>
<path fill-rule="evenodd" clip-rule="evenodd" d="M146.189 125.605C162.499 116.189 188.981 116.189 205.291 125.605C221.601 135.022 221.601 150.311 205.291 159.728C188.981 169.144 162.499 169.144 146.189 159.728C129.88 150.311 129.88 135.022 146.189 125.605Z" fill="white"/>
<path fill-rule="evenodd" clip-rule="evenodd" d="M146.189 125.605C162.499 116.189 188.981 116.189 205.291 125.605C221.601 135.022 221.601 150.311 205.291 159.728C188.981 169.144 162.499 169.144 146.189 159.728C129.88 150.311 129.88 135.022 146.189 125.605Z" stroke="#475467" stroke-width="0.686667" stroke-linecap="round" stroke-linejoin="round"/>
<path fill-rule="evenodd" clip-rule="evenodd" d="M194.281 136.055C194.314 136.125 194.345 136.195 194.376 136.266L194.378 136.27C195.973 139.932 194.292 143.974 189.334 146.837C181.832 151.168 169.65 151.168 162.148 146.837C157.19 143.974 155.509 139.932 157.104 136.27L157.105 136.266C157.136 136.196 157.168 136.125 157.201 136.055L175.741 106.996L194.281 136.055Z" fill="white"/>
<path fill-rule="evenodd" clip-rule="evenodd" d="M194.281 136.055C194.314 136.125 194.345 136.195 194.376 136.266L194.378 136.27C195.973 139.932 194.292 143.974 189.334 146.837C181.832 151.168 169.65 151.168 162.148 146.837C157.19 143.974 155.509 139.932 157.104 136.27L157.105 136.266C157.136 136.196 157.168 136.125 157.201 136.055L175.741 106.996L194.281 136.055Z" stroke="#475467" stroke-width="0.686667" stroke-linecap="round" stroke-linejoin="round"/>
<path fill-rule="evenodd" clip-rule="evenodd" d="M162.148 131.139C169.65 126.808 181.831 126.808 189.334 131.139C196.836 135.47 196.836 142.504 189.334 146.835C181.831 151.166 169.65 151.166 162.148 146.835C154.646 142.504 154.646 135.47 162.148 131.139Z" fill="white"/>
<path fill-rule="evenodd" clip-rule="evenodd" d="M162.148 131.139C169.65 126.808 181.831 126.808 189.334 131.139C196.836 135.47 196.836 142.504 189.334 146.835C181.831 151.166 169.65 151.166 162.148 146.835C154.646 142.504 154.646 135.47 162.148 131.139Z" stroke="#475467" stroke-width="0.686667" stroke-linecap="round" stroke-linejoin="round"/>
<path fill-rule="evenodd" clip-rule="evenodd" d="M133.957 142.578C133.918 148.783 137.996 154.996 146.19 159.727C162.499 169.143 188.982 169.143 205.291 159.727C213.485 154.996 217.562 148.783 217.524 142.578C217.524 142.606 217.524 142.635 217.524 142.665C217.524 165.726 198.801 184.449 175.74 184.449C152.68 184.449 133.957 165.726 133.957 142.665C133.957 142.635 133.957 142.606 133.957 142.578Z" fill="#CFCEFF"/>
<path fill-rule="evenodd" clip-rule="evenodd" d="M133.957 142.578C133.918 148.783 137.996 154.996 146.19 159.727C162.499 169.143 188.982 169.143 205.291 159.727C213.485 154.996 217.562 148.783 217.524 142.578C217.524 142.606 217.524 142.635 217.524 142.665C217.524 165.726 198.801 184.449 175.74 184.449C152.68 184.449 133.957 165.726 133.957 142.665C133.957 142.635 133.957 142.606 133.957 142.578Z" stroke="#475467" stroke-width="0.686667" stroke-linecap="round" stroke-linejoin="round"/>
<path fill-rule="evenodd" clip-rule="evenodd" d="M156.656 81.941C167.395 75.741 184.832 75.741 195.57 81.941C206.309 88.1409 206.309 98.2081 195.57 104.408C184.832 110.608 167.395 110.608 156.656 104.408C145.918 98.2081 145.918 88.1409 156.656 81.941Z" fill="white"/>
<path fill-rule="evenodd" clip-rule="evenodd" d="M156.656 81.941C167.395 75.741 184.832 75.741 195.57 81.941C206.309 88.1409 206.309 98.2081 195.57 104.408C184.832 110.608 167.395 110.608 156.656 104.408C145.918 98.2081 145.918 88.1409 156.656 81.941Z" stroke="#475467" stroke-width="0.686667" stroke-linecap="round" stroke-linejoin="round"/>
<path fill-rule="evenodd" clip-rule="evenodd" d="M203.625 101.312H203.614C203.813 105.523 201.132 109.771 195.571 112.982C184.832 119.182 167.395 119.182 156.656 112.982C151.095 109.771 148.414 105.523 148.613 101.312H148.603V93.1758C148.603 97.2426 151.287 101.309 156.656 104.409C167.395 110.609 184.832 110.609 195.571 104.409C200.94 101.309 203.625 97.2426 203.625 93.1758V101.312Z" fill="#CFCEFF"/>
<path fill-rule="evenodd" clip-rule="evenodd" d="M203.625 101.312H203.614C203.813 105.523 201.132 109.771 195.571 112.982C184.832 119.182 167.395 119.182 156.656 112.982C151.095 109.771 148.414 105.523 148.613 101.312H148.603V93.1758C148.603 97.2426 151.287 101.309 156.656 104.409C167.395 110.609 184.832 110.609 195.571 104.409C200.94 101.309 203.625 97.2426 203.625 93.1758V101.312Z" stroke="#475467" stroke-width="0.686667" stroke-linecap="round" stroke-linejoin="round"/>
<path fill-rule="evenodd" clip-rule="evenodd" d="M105.859 120.529L246.34 39.4739C247.359 38.8964 248.773 38.9898 250.334 39.8907C253.437 41.6829 255.957 45.9945 255.957 49.5137C255.957 51.2375 255.353 52.4533 254.371 53.0349L113.786 134.148C114.803 133.582 115.433 132.352 115.433 130.593C115.433 127.074 112.912 122.762 109.809 120.97C108.271 120.082 106.875 119.978 105.859 120.529Z" fill="white"/>
<path fill-rule="evenodd" clip-rule="evenodd" d="M105.859 120.529L246.34 39.4739C247.359 38.8964 248.773 38.9898 250.334 39.8907C253.437 41.6829 255.957 45.9945 255.957 49.5137C255.957 51.2375 255.353 52.4533 254.371 53.0349L113.786 134.148C114.803 133.582 115.433 132.352 115.433 130.593C115.433 127.074 112.912 122.762 109.809 120.97C108.271 120.082 106.875 119.978 105.859 120.529Z" stroke="#475467" stroke-width="0.686667" stroke-linecap="round" stroke-linejoin="round"/>
<path fill-rule="evenodd" clip-rule="evenodd" d="M109.809 120.967C112.912 122.759 115.432 127.071 115.432 130.59C115.432 134.109 112.912 135.511 109.809 133.719C106.705 131.928 104.186 127.616 104.186 124.097C104.186 120.577 106.705 119.175 109.809 120.967Z" fill="#CFCEFF"/>
<path fill-rule="evenodd" clip-rule="evenodd" d="M109.809 120.967C112.912 122.759 115.432 127.071 115.432 130.59C115.432 134.109 112.912 135.511 109.809 133.719C106.705 131.928 104.186 127.616 104.186 124.097C104.186 120.577 106.705 119.175 109.809 120.967Z" stroke="#475467" stroke-width="0.686667" stroke-linecap="round" stroke-linejoin="round"/>
<path fill-rule="evenodd" clip-rule="evenodd" d="M243.994 10.6113C253.518 10.6113 261.251 18.3439 261.251 27.8686C261.251 37.3934 253.518 45.1263 243.994 45.1263C234.469 45.1263 226.736 37.3934 226.736 27.8686C226.736 18.3439 234.469 10.6113 243.994 10.6113Z" fill="#CFCEFF"/>
<path fill-rule="evenodd" clip-rule="evenodd" d="M243.994 10.6113C253.518 10.6113 261.251 18.3439 261.251 27.8686C261.251 37.3934 253.518 45.1263 243.994 45.1263C234.469 45.1263 226.736 37.3934 226.736 27.8686C226.736 18.3439 234.469 10.6113 243.994 10.6113Z" stroke="#475467" stroke-width="0.686667" stroke-linecap="round" stroke-linejoin="round"/>
<path fill-rule="evenodd" clip-rule="evenodd" d="M85.9336 52.8616L98.3595 45.9458C103.428 43.0738 110.457 43.538 118.22 48.0199C133.657 56.9325 146.19 78.3788 146.19 95.8823C146.19 104.455 143.183 110.502 138.3 113.395L125.357 120.603C130.416 117.785 133.547 111.666 133.547 102.918C133.547 85.4147 121.014 63.9688 105.577 55.0562C97.9252 50.6382 90.9864 50.1242 85.9336 52.8616Z" fill="white"/>
<path fill-rule="evenodd" clip-rule="evenodd" d="M85.9336 52.8616L98.3595 45.9458C103.428 43.0738 110.457 43.538 118.22 48.0199C133.657 56.9325 146.19 78.3788 146.19 95.8823C146.19 104.455 143.183 110.502 138.3 113.395L125.357 120.603C130.416 117.785 133.547 111.666 133.547 102.918C133.547 85.4147 121.014 63.9688 105.577 55.0562C97.9252 50.6382 90.9864 50.1242 85.9336 52.8616Z" stroke="#475467" stroke-width="0.686667" stroke-linecap="round" stroke-linejoin="round"/>
<path fill-rule="evenodd" clip-rule="evenodd" d="M105.578 55.0551C121.015 63.9677 133.548 85.4137 133.548 102.917C133.548 120.421 121.015 127.395 105.578 118.483C90.1411 109.57 77.6084 88.124 77.6084 70.6208C77.6084 53.1174 90.1411 46.1426 105.578 55.0551ZM105.578 67.5865C114.915 72.9771 122.496 85.9493 122.496 96.5363C122.496 107.124 114.915 111.342 105.578 105.952C96.2408 100.561 88.6603 87.5887 88.6603 77.0014C88.6603 66.4143 96.2408 62.1954 105.578 67.5865Z" fill="#CFCEFF"/>
<path fill-rule="evenodd" clip-rule="evenodd" d="M105.578 55.0551C121.015 63.9677 133.548 85.4137 133.548 102.917C133.548 120.421 121.015 127.395 105.578 118.483C90.1411 109.57 77.6084 88.124 77.6084 70.6208C77.6084 53.1174 90.1411 46.1426 105.578 55.0551ZM105.578 67.5865C114.915 72.9771 122.496 85.9493 122.496 96.5363C122.496 107.124 114.915 111.342 105.578 105.952C96.2408 100.561 88.6603 87.5887 88.6603 77.0014C88.6603 66.4143 96.2408 62.1954 105.578 67.5865Z" stroke="#475467" stroke-width="0.686667" stroke-linecap="round" stroke-linejoin="round"/>
<path fill-rule="evenodd" clip-rule="evenodd" d="M243.994 10.6113C253.518 10.6113 261.251 18.3439 261.251 27.8686C261.251 37.3934 253.518 45.1263 243.994 45.1263C234.469 45.1263 226.736 37.3934 226.736 27.8686C226.736 18.3439 234.469 10.6113 243.994 10.6113Z" fill="#CFCEFF"/>
<path fill-rule="evenodd" clip-rule="evenodd" d="M243.994 10.6113C253.518 10.6113 261.251 18.3439 261.251 27.8686C261.251 37.3934 253.518 45.1263 243.994 45.1263C234.469 45.1263 226.736 37.3934 226.736 27.8686C226.736 18.3439 234.469 10.6113 243.994 10.6113Z" stroke="#475467" stroke-width="0.686667" stroke-linecap="round" stroke-linejoin="round"/>
<path fill-rule="evenodd" clip-rule="evenodd" d="M121.861 101.39C119.855 108.286 113.32 110.423 105.578 105.953C96.2406 100.562 88.6602 87.5898 88.6602 77.0025C88.6602 68.3464 93.7274 63.9476 100.68 65.577C100.266 66.9988 100.045 68.6214 100.045 70.4297C100.045 81.0167 107.625 93.9889 116.962 99.3799C118.666 100.363 120.31 101.027 121.861 101.39Z" fill="white"/>
<path fill-rule="evenodd" clip-rule="evenodd" d="M121.861 101.39C119.855 108.286 113.32 110.423 105.578 105.953C96.2406 100.562 88.6602 87.5898 88.6602 77.0025C88.6602 68.3464 93.7274 63.9476 100.68 65.577C100.266 66.9988 100.045 68.6214 100.045 70.4297C100.045 81.0167 107.625 93.9889 116.962 99.3799C118.666 100.363 120.31 101.027 121.861 101.39Z" stroke="#475467" stroke-width="0.686667" stroke-linecap="round" stroke-linejoin="round"/>
<path fill-rule="evenodd" clip-rule="evenodd" d="M175.74 24.8711L155.906 36.3223V82.7818L175.74 94.233L195.575 82.7818V36.3223L175.74 24.8711Z" fill="#CFCEFF"/>
<path fill-rule="evenodd" clip-rule="evenodd" d="M175.74 24.8711L155.906 36.3223V82.7818L175.74 94.233L195.575 82.7818V36.3223L175.74 24.8711Z" stroke="#475467" stroke-width="0.686667" stroke-linecap="round" stroke-linejoin="round"/>
<path fill-rule="evenodd" clip-rule="evenodd" d="M195.575 36.3242L175.74 47.7754V94.2349L195.575 82.7837V36.3242Z" fill="white"/>
<path fill-rule="evenodd" clip-rule="evenodd" d="M195.575 36.3242L175.74 47.7754V94.2349L195.575 82.7837V36.3242Z" stroke="#475467" stroke-width="0.686667" stroke-linecap="round" stroke-linejoin="round"/>
<path fill-rule="evenodd" clip-rule="evenodd" d="M175.74 24.8711L155.906 36.3223L175.74 47.7735L195.575 36.3223L175.74 24.8711Z" fill="white"/>
<path fill-rule="evenodd" clip-rule="evenodd" d="M175.74 24.8711L155.906 36.3223L175.74 47.7735L195.575 36.3223L175.74 24.8711Z" stroke="#475467" stroke-width="0.686667" stroke-linecap="round" stroke-linejoin="round"/>
</g>
<defs>
<clipPath id="clip0_3397_29039">
<rect width="350.2" height="206" rx="3.43333" fill="white"/>
</clipPath>
</defs>
</svg>
