<svg width="351" height="206" viewBox="0 0 351 206" fill="none" xmlns="http://www.w3.org/2000/svg">
<path opacity="0.3" fill-rule="evenodd" clip-rule="evenodd" d="M182.707 194.875H182.707C182.924 194.883 183.14 194.883 183.357 194.875H193.165V190.306L228.942 169.65C230.642 168.668 231.689 166.855 231.689 164.892C231.689 162.929 230.642 161.116 228.942 160.135C212.874 150.858 177.882 130.655 165.902 123.739C163.353 122.267 160.211 122.267 157.662 123.739C148.768 128.874 127.626 141.08 115.872 147.866C114.172 148.847 113.125 150.661 113.125 152.624C113.125 154.586 114.172 156.4 115.872 157.381C131.94 166.658 166.932 186.86 178.912 193.777C180.089 194.457 181.393 194.823 182.707 194.875Z" fill="#CFCEFF"/>
<path opacity="0.3" fill-rule="evenodd" clip-rule="evenodd" d="M83.4596 164.58C93.351 158.869 109.413 158.869 119.304 164.58C129.195 170.291 129.195 179.564 119.304 185.275C109.413 190.986 93.351 190.986 83.4596 185.275C73.5682 179.564 73.5682 170.291 83.4596 164.58Z" fill="#CFCEFF"/>
<path fill-rule="evenodd" clip-rule="evenodd" d="M201.916 68.7873C202.764 68.5161 203.699 68.6081 204.488 69.0637C215.774 75.5798 222.731 79.5965 233.466 85.7943C236.103 87.317 237.728 90.1306 237.728 93.1756C237.728 112.621 237.728 109.472 237.728 129.974C237.728 130.909 237.319 131.786 236.628 132.386C238.305 131.443 247.488 126.184 248.194 125.776C249.183 125.205 249.792 124.15 249.792 123.008C249.792 102.506 249.792 105.656 249.792 86.2101C249.792 83.1654 248.168 80.3515 245.531 78.8291C234.796 72.6313 227.838 68.6143 216.552 62.0981C215.563 61.5272 214.345 61.5272 213.356 62.0981C212.367 62.6691 201.916 68.7873 201.916 68.7873Z" fill="white"/>
<path fill-rule="evenodd" clip-rule="evenodd" d="M201.916 68.7873C202.764 68.5161 203.699 68.6081 204.488 69.0637C215.774 75.5798 222.731 79.5965 233.466 85.7943C236.103 87.317 237.728 90.1306 237.728 93.1756C237.728 112.621 237.728 109.472 237.728 129.974C237.728 130.909 237.319 131.786 236.628 132.386C238.305 131.443 247.488 126.184 248.194 125.776C249.183 125.205 249.792 124.15 249.792 123.008C249.792 102.506 249.792 105.656 249.792 86.2101C249.792 83.1654 248.168 80.3515 245.531 78.8291C234.796 72.6313 227.838 68.6143 216.552 62.0981C215.563 61.5272 214.345 61.5272 213.356 62.0981C212.367 62.6691 201.916 68.7873 201.916 68.7873Z" stroke="#475467" stroke-width="0.686667" stroke-linecap="round" stroke-linejoin="round"/>
<path fill-rule="evenodd" clip-rule="evenodd" d="M237.729 93.0112C237.729 90.0672 236.158 87.3469 233.609 85.8751C226.463 81.7496 211.819 73.2946 204.329 68.9707C203.373 68.4186 202.195 68.4186 201.239 68.9707C200.283 69.5228 199.694 70.5428 199.694 71.6466C199.694 80.9431 199.694 99.9277 199.694 108.792C199.694 111.736 201.265 114.456 203.814 115.928C210.96 120.054 225.604 128.508 233.094 132.832C234.05 133.384 235.228 133.384 236.184 132.832C237.14 132.28 237.729 131.26 237.729 130.156C237.729 120.86 237.729 101.875 237.729 93.0112Z" fill="#CFCEFF"/>
<path fill-rule="evenodd" clip-rule="evenodd" d="M237.729 93.0112C237.729 90.0672 236.158 87.3469 233.609 85.8751C226.463 81.7496 211.819 73.2946 204.329 68.9707C203.373 68.4186 202.195 68.4186 201.239 68.9707C200.283 69.5228 199.694 70.5428 199.694 71.6466C199.694 80.9431 199.694 99.9277 199.694 108.792C199.694 111.736 201.265 114.456 203.814 115.928C210.96 120.054 225.604 128.508 233.094 132.832C234.05 133.384 235.228 133.384 236.184 132.832C237.14 132.28 237.729 131.26 237.729 130.156C237.729 120.86 237.729 101.875 237.729 93.0112Z" stroke="#475467" stroke-width="0.686667" stroke-linecap="round" stroke-linejoin="round"/>
<path fill-rule="evenodd" clip-rule="evenodd" d="M176.204 114.803C173.654 113.331 170.513 113.331 167.964 114.803C159.07 119.938 137.928 132.145 126.173 138.931C124.474 139.912 123.427 141.726 123.427 143.688C123.427 145.651 124.474 147.464 126.173 148.446C142.241 157.722 177.233 177.925 189.214 184.842C191.763 186.314 194.904 186.314 197.454 184.842C206.348 179.707 227.489 167.501 239.244 160.714C240.944 159.733 241.99 157.919 241.99 155.957C241.99 153.994 240.944 152.181 239.244 151.2C223.176 141.923 188.184 121.72 176.204 114.803Z" fill="white"/>
<path fill-rule="evenodd" clip-rule="evenodd" d="M176.204 114.803C173.654 113.331 170.513 113.331 167.964 114.803C159.07 119.938 137.928 132.145 126.173 138.931C124.474 139.912 123.427 141.726 123.427 143.688C123.427 145.651 124.474 147.464 126.173 148.446C142.241 157.722 177.233 177.925 189.214 184.842C191.763 186.314 194.904 186.314 197.454 184.842C206.348 179.707 227.489 167.501 239.244 160.714C240.944 159.733 241.99 157.919 241.99 155.957C241.99 153.994 240.944 152.181 239.244 151.2C223.176 141.923 188.184 121.72 176.204 114.803Z" stroke="#475467" stroke-width="0.686667" stroke-linecap="round" stroke-linejoin="round"/>
<path fill-rule="evenodd" clip-rule="evenodd" d="M241.802 155.956V156.051C241.768 158.045 240.691 159.878 238.96 160.877C222.832 170.189 209.636 177.807 197.595 184.759C194.958 186.282 191.709 186.282 189.072 184.759C177.031 177.807 142.585 157.92 126.456 148.608C124.698 147.593 123.615 145.718 123.615 143.688C123.615 143.688 123.615 150.566 123.615 152.596C123.615 154.626 124.698 156.502 126.456 157.517C142.585 166.829 177.031 186.716 189.072 193.668C191.709 195.191 194.958 195.191 197.595 193.668C209.636 186.716 222.832 179.097 238.96 169.786C240.719 168.771 241.802 166.895 241.802 164.865V155.956Z" fill="#CFCEFF"/>
<path fill-rule="evenodd" clip-rule="evenodd" d="M241.802 155.956V156.051C241.768 158.045 240.691 159.878 238.96 160.877C222.832 170.189 209.636 177.807 197.595 184.759C194.958 186.282 191.709 186.282 189.072 184.759C177.031 177.807 142.585 157.92 126.456 148.608C124.698 147.593 123.615 145.718 123.615 143.688C123.615 143.688 123.615 150.566 123.615 152.596C123.615 154.626 124.698 156.502 126.456 157.517C142.585 166.829 177.031 186.716 189.072 193.668C191.709 195.191 194.958 195.191 197.595 193.668C209.636 186.716 222.832 179.097 238.96 169.786C240.719 168.771 241.802 166.895 241.802 164.865V155.956Z" stroke="#475467" stroke-width="0.686667" stroke-linecap="round" stroke-linejoin="round"/>
<path fill-rule="evenodd" clip-rule="evenodd" d="M157.744 21.9047L152.329 18.779C151.874 18.516 151.437 18.4727 151.115 18.6588C150.793 18.8446 150.612 19.2445 150.612 19.7702C150.612 33.8221 150.612 118.219 150.612 132.271C150.612 132.797 150.793 133.406 151.115 133.964C151.437 134.521 151.874 134.982 152.329 135.245C160.507 139.966 195.45 160.141 203.628 164.862C204.083 165.125 204.52 165.168 204.842 164.983C205.164 164.797 205.345 164.397 205.345 163.871C205.345 149.819 205.345 65.4218 205.345 51.3702C205.345 50.8443 205.164 50.2355 204.842 49.6779C204.52 49.12 204.083 48.6593 203.628 48.3963L198.214 45.2702V48.3578C198.214 48.8838 198.033 49.2835 197.711 49.4695C197.389 49.6553 196.952 49.612 196.497 49.349C189.88 45.5291 166.077 31.7862 159.46 27.9662C159.005 27.7032 158.568 27.2425 158.246 26.6846C157.924 26.127 157.744 25.5183 157.744 24.9923V21.9047Z" fill="#CFCEFF"/>
<path fill-rule="evenodd" clip-rule="evenodd" d="M157.744 21.9047L152.329 18.779C151.874 18.516 151.437 18.4727 151.115 18.6588C150.793 18.8446 150.612 19.2445 150.612 19.7702C150.612 33.8221 150.612 118.219 150.612 132.271C150.612 132.797 150.793 133.406 151.115 133.964C151.437 134.521 151.874 134.982 152.329 135.245C160.507 139.966 195.45 160.141 203.628 164.862C204.083 165.125 204.52 165.168 204.842 164.983C205.164 164.797 205.345 164.397 205.345 163.871C205.345 149.819 205.345 65.4218 205.345 51.3702C205.345 50.8443 205.164 50.2355 204.842 49.6779C204.52 49.12 204.083 48.6593 203.628 48.3963L198.214 45.2702V48.3578C198.214 48.8838 198.033 49.2835 197.711 49.4695C197.389 49.6553 196.952 49.612 196.497 49.349C189.88 45.5291 166.077 31.7862 159.46 27.9662C159.005 27.7032 158.568 27.2425 158.246 26.6846C157.924 26.127 157.744 25.5183 157.744 24.9923V21.9047Z" stroke="white" stroke-width="0.686667" stroke-linecap="round" stroke-linejoin="round"/>
<path fill-rule="evenodd" clip-rule="evenodd" d="M125.343 172.052C125.372 172.113 125.399 172.174 125.426 172.235L125.427 172.238C126.81 175.411 125.353 178.914 121.056 181.394C114.556 185.147 104.001 185.147 97.5007 181.394C93.2045 178.914 91.7474 175.411 93.1297 172.238L93.1311 172.235C93.1578 172.174 93.1853 172.113 93.2141 172.052L109.279 136.691L125.343 172.052Z" fill="#CFCEFF"/>
<path fill-rule="evenodd" clip-rule="evenodd" d="M125.343 172.052C125.372 172.113 125.399 172.174 125.426 172.235L125.427 172.238C126.81 175.411 125.353 178.914 121.056 181.394C114.556 185.147 104.001 185.147 97.5007 181.394C93.2045 178.914 91.7474 175.411 93.1297 172.238L93.1311 172.235C93.1578 172.174 93.1853 172.113 93.2141 172.052L109.279 136.691L125.343 172.052Z" stroke="#475467" stroke-width="0.686667" stroke-linecap="round" stroke-linejoin="round"/>
<path fill-rule="evenodd" clip-rule="evenodd" d="M97.5005 167.793C104.001 164.04 114.556 164.04 121.056 167.793C127.557 171.546 127.557 177.64 121.056 181.393C114.556 185.146 104.001 185.146 97.5005 181.393C90.9998 177.64 90.9998 171.546 97.5005 167.793Z" fill="#CFCEFF"/>
<path fill-rule="evenodd" clip-rule="evenodd" d="M97.5005 167.793C104.001 164.04 114.556 164.04 121.056 167.793C127.557 171.546 127.557 177.64 121.056 181.393C114.556 185.146 104.001 185.146 97.5005 181.393C90.9998 177.64 90.9998 171.546 97.5005 167.793Z" stroke="#475467" stroke-width="0.686667" stroke-linecap="round" stroke-linejoin="round"/>
<path fill-rule="evenodd" clip-rule="evenodd" d="M91.3561 113.535C101.248 107.824 117.309 107.824 127.2 113.535C137.092 119.246 137.092 128.519 127.2 134.23C117.309 139.941 101.248 139.941 91.3561 134.23C81.4646 128.519 81.4646 119.246 91.3561 113.535Z" fill="white"/>
<path fill-rule="evenodd" clip-rule="evenodd" d="M91.3561 113.535C101.248 107.824 117.309 107.824 127.2 113.535C137.092 119.246 137.092 128.519 127.2 134.23C117.309 139.941 101.248 139.941 91.3561 134.23C81.4646 128.519 81.4646 119.246 91.3561 113.535Z" stroke="#475467" stroke-width="0.686667" stroke-linecap="round" stroke-linejoin="round"/>
<path fill-rule="evenodd" clip-rule="evenodd" d="M134.619 131.377H134.61C134.793 135.256 132.323 139.169 127.2 142.127C117.309 147.838 101.248 147.838 91.3561 142.127C86.2333 139.169 83.7637 135.256 83.947 131.377H83.9375V123.883C83.9375 127.629 86.4104 131.375 91.3561 134.23C101.248 139.941 117.309 139.941 127.2 134.23C132.146 131.375 134.619 127.629 134.619 123.883V131.377Z" fill="#CFCEFF"/>
<path fill-rule="evenodd" clip-rule="evenodd" d="M134.619 131.377H134.61C134.793 135.256 132.323 139.169 127.2 142.127C117.309 147.838 101.248 147.838 91.3561 142.127C86.2333 139.169 83.7637 135.256 83.947 131.377H83.9375V123.883C83.9375 127.629 86.4104 131.375 91.3561 134.23C101.248 139.941 117.309 139.941 127.2 134.23C132.146 131.375 134.619 127.629 134.619 123.883V131.377Z" stroke="#475467" stroke-width="0.686667" stroke-linecap="round" stroke-linejoin="round"/>
<path fill-rule="evenodd" clip-rule="evenodd" d="M213.489 49.4892C213.489 46.4442 211.864 43.6306 209.227 42.1083C198.492 35.9104 170.392 19.6865 159.106 13.1704C158.117 12.5994 156.898 12.5994 155.91 13.1704C154.92 13.7414 150.612 16.3129 150.612 16.3129C150.612 16.3129 154.311 107.867 154.311 127.313C154.311 130.358 155.936 133.171 158.573 134.694C169.308 140.892 205.345 167.327 205.345 167.327C205.345 167.327 210.902 164.202 211.891 163.631C212.88 163.06 213.489 162.005 213.489 160.863C213.489 140.362 213.489 68.9353 213.489 49.4892Z" fill="white"/>
<path fill-rule="evenodd" clip-rule="evenodd" d="M213.489 49.4892C213.489 46.4442 211.864 43.6306 209.227 42.1083C198.492 35.9104 170.392 19.6865 159.106 13.1704C158.117 12.5994 156.898 12.5994 155.91 13.1704C154.92 13.7414 150.612 16.3129 150.612 16.3129C150.612 16.3129 154.311 107.867 154.311 127.313C154.311 130.358 155.936 133.171 158.573 134.694C169.308 140.892 205.345 167.327 205.345 167.327C205.345 167.327 210.902 164.202 211.891 163.631C212.88 163.06 213.489 162.005 213.489 160.863C213.489 140.362 213.489 68.9353 213.489 49.4892Z" stroke="#475467" stroke-width="0.686667" stroke-linecap="round" stroke-linejoin="round"/>
<path fill-rule="evenodd" clip-rule="evenodd" d="M207.568 52.7455C207.568 49.8017 205.997 47.0815 203.448 45.6093C192.771 39.4447 164.254 22.9805 153.026 16.498C152.069 15.946 150.892 15.946 149.936 16.498C148.979 17.0498 148.391 18.0702 148.391 19.174C148.391 39.4863 148.391 111.632 148.391 130.895C148.391 133.839 149.961 136.56 152.511 138.032C163.188 144.196 191.705 160.66 202.933 167.143C203.889 167.695 205.067 167.695 206.023 167.143C206.979 166.591 207.568 165.571 207.568 164.467C207.568 144.155 207.568 72.0089 207.568 52.7455Z" fill="#CFCEFF"/>
<path fill-rule="evenodd" clip-rule="evenodd" d="M207.568 52.7455C207.568 49.8017 205.997 47.0815 203.448 45.6093C192.771 39.4447 164.254 22.9805 153.026 16.498C152.069 15.946 150.892 15.946 149.936 16.498C148.979 17.0498 148.391 18.0702 148.391 19.174C148.391 39.4863 148.391 111.632 148.391 130.895C148.391 133.839 149.961 136.56 152.511 138.032C163.188 144.196 191.705 160.66 202.933 167.143C203.889 167.695 205.067 167.695 206.023 167.143C206.979 166.591 207.568 165.571 207.568 164.467C207.568 144.155 207.568 72.0089 207.568 52.7455Z" stroke="white" stroke-width="0.686667" stroke-linecap="round" stroke-linejoin="round"/>
<path fill-rule="evenodd" clip-rule="evenodd" d="M197.469 44.8389V51.5761C197.469 52.0836 197.198 52.5526 196.759 52.8063C196.319 53.06 195.778 53.06 195.338 52.8063C188.762 49.0094 168.78 37.473 161.329 33.1711C159.571 32.1562 158.488 30.2802 158.488 28.2504V22.3334L152.743 19.0165C152.304 18.7627 151.762 18.7627 151.323 19.0165C150.883 19.2702 150.612 19.7392 150.612 20.2466C150.612 35.206 150.612 113.876 150.612 130.972C150.612 133.002 151.696 134.877 153.453 135.893C163.134 141.482 194.702 159.708 203.214 164.622C203.654 164.876 204.195 164.876 204.635 164.622C205.074 164.368 205.345 163.899 205.345 163.392C205.345 148.432 205.345 69.7622 205.345 52.6666C205.345 50.6364 204.262 48.7608 202.504 47.7459L197.469 44.8389Z" fill="#CFCEFF"/>
<path fill-rule="evenodd" clip-rule="evenodd" d="M197.469 44.8389V51.5761C197.469 52.0836 197.198 52.5526 196.759 52.8063C196.319 53.06 195.778 53.06 195.338 52.8063C188.762 49.0094 168.78 37.473 161.329 33.1711C159.571 32.1562 158.488 30.2802 158.488 28.2504V22.3334L152.743 19.0165C152.304 18.7627 151.762 18.7627 151.323 19.0165C150.883 19.2702 150.612 19.7392 150.612 20.2466C150.612 35.206 150.612 113.876 150.612 130.972C150.612 133.002 151.696 134.877 153.453 135.893C163.134 141.482 194.702 159.708 203.214 164.622C203.654 164.876 204.195 164.876 204.635 164.622C205.074 164.368 205.345 163.899 205.345 163.392C205.345 148.432 205.345 69.7622 205.345 52.6666C205.345 50.6364 204.262 48.7608 202.504 47.7459L197.469 44.8389Z" stroke="#475467" stroke-width="0.686667" stroke-linecap="round" stroke-linejoin="round"/>
<path fill-rule="evenodd" clip-rule="evenodd" d="M142.21 115.632C143.189 115.091 144.382 115.101 145.354 115.662C154.62 121.012 174.851 132.693 183.678 137.789C186.316 139.311 187.94 142.125 187.94 145.17C187.94 148.688 187.94 153.428 187.94 157.078C187.94 158.019 187.527 158.9 186.829 159.501C189.993 157.69 199.253 152.392 200.072 151.919C201.061 151.348 201.67 150.293 201.67 149.151C201.67 145.501 201.67 140.762 201.67 137.243C201.67 134.198 200.045 131.384 197.409 129.862C188.581 124.765 168.35 113.085 159.083 107.735C158.095 107.164 156.876 107.164 155.887 107.735L142.21 115.632Z" fill="white"/>
<path fill-rule="evenodd" clip-rule="evenodd" d="M142.21 115.632C143.189 115.091 144.382 115.101 145.354 115.662C154.62 121.012 174.851 132.693 183.678 137.789C186.316 139.311 187.94 142.125 187.94 145.17C187.94 148.688 187.94 153.428 187.94 157.078C187.94 158.019 187.527 158.9 186.829 159.501C189.993 157.69 199.253 152.392 200.072 151.919C201.061 151.348 201.67 150.293 201.67 149.151C201.67 145.501 201.67 140.762 201.67 137.243C201.67 134.198 200.045 131.384 197.409 129.862C188.581 124.765 168.35 113.085 159.083 107.735C158.095 107.164 156.876 107.164 155.887 107.735L142.21 115.632Z" stroke="#475467" stroke-width="0.686667" stroke-linecap="round" stroke-linejoin="round"/>
<path fill-rule="evenodd" clip-rule="evenodd" d="M187.94 145.007C187.94 142.063 186.37 139.343 183.82 137.871C175.019 132.79 154.435 120.905 145.195 115.57C144.238 115.018 143.061 115.018 142.105 115.57C141.148 116.122 140.56 117.142 140.56 118.246C140.56 121.977 140.56 126.909 140.56 130.502C140.56 133.446 142.13 136.166 144.68 137.638C153.481 142.719 174.064 154.603 183.305 159.938C184.261 160.49 185.439 160.49 186.395 159.938C187.351 159.386 187.94 158.366 187.94 157.262C187.94 153.532 187.94 148.6 187.94 145.007Z" fill="white"/>
<path fill-rule="evenodd" clip-rule="evenodd" d="M187.94 145.007C187.94 142.063 186.37 139.343 183.82 137.871C175.019 132.79 154.435 120.905 145.195 115.57C144.238 115.018 143.061 115.018 142.105 115.57C141.148 116.122 140.56 117.142 140.56 118.246C140.56 121.977 140.56 126.909 140.56 130.502C140.56 133.446 142.13 136.166 144.68 137.638C153.481 142.719 174.064 154.603 183.305 159.938C184.261 160.49 185.439 160.49 186.395 159.938C187.351 159.386 187.94 158.366 187.94 157.262C187.94 153.532 187.94 148.6 187.94 145.007Z" stroke="#475467" stroke-width="0.686667" stroke-linecap="round" stroke-linejoin="round"/>
<path fill-rule="evenodd" clip-rule="evenodd" d="M163.421 81.8042C167.536 84.1797 170.877 89.9659 170.877 94.7173C170.877 99.4687 167.536 101.398 163.421 99.022C159.306 96.6461 155.966 90.8599 155.966 86.1086C155.966 81.3572 159.306 79.4283 163.421 81.8042Z" fill="white"/>
<path fill-rule="evenodd" clip-rule="evenodd" d="M163.421 81.8042C167.536 84.1797 170.877 89.9659 170.877 94.7173C170.877 99.4687 167.536 101.398 163.421 99.022C159.306 96.6461 155.966 90.8599 155.966 86.1086C155.966 81.3572 159.306 79.4283 163.421 81.8042Z" stroke="white" stroke-width="0.686667" stroke-linecap="round" stroke-linejoin="round"/>
<path fill-rule="evenodd" clip-rule="evenodd" d="M170.523 106.995C174.638 109.371 177.979 115.157 177.979 119.909C177.979 124.66 174.638 126.589 170.523 124.214C166.408 121.838 163.067 116.051 163.067 111.3C163.067 106.549 166.408 104.62 170.523 106.995Z" fill="#CFCEFF"/>
<path fill-rule="evenodd" clip-rule="evenodd" d="M170.523 106.995C174.638 109.371 177.979 115.157 177.979 119.909C177.979 124.66 174.638 126.589 170.523 124.214C166.408 121.838 163.067 116.051 163.067 111.3C163.067 106.549 166.408 104.62 170.523 106.995Z" stroke="#475467" stroke-width="0.686667" stroke-linecap="round" stroke-linejoin="round"/>
<path fill-rule="evenodd" clip-rule="evenodd" d="M149.274 123.796C151.814 125.262 153.876 128.834 153.876 131.767C153.876 134.7 151.814 135.89 149.274 134.424C146.734 132.958 144.672 129.386 144.672 126.453C144.672 123.52 146.734 122.329 149.274 123.796Z" fill="#CFCEFF"/>
<path fill-rule="evenodd" clip-rule="evenodd" d="M149.274 123.796C151.814 125.262 153.876 128.834 153.876 131.767C153.876 134.7 151.814 135.89 149.274 134.424C146.734 132.958 144.672 129.386 144.672 126.453C144.672 123.52 146.734 122.329 149.274 123.796Z" stroke="#475467" stroke-width="0.686667" stroke-linecap="round" stroke-linejoin="round"/>
<path fill-rule="evenodd" clip-rule="evenodd" d="M165.404 106.393L183.356 96.0291C183.462 95.9601 183.571 95.897 183.684 95.84L183.685 95.8396C185.019 95.1619 186.814 95.3109 188.788 96.4508C192.903 98.8263 196.244 104.612 196.244 109.364C196.244 111.776 195.383 113.461 193.996 114.224L175.803 124.729C177.147 123.948 177.979 122.28 177.979 119.909C177.979 115.158 174.639 109.371 170.524 106.996C168.542 105.852 166.741 105.706 165.404 106.393Z" fill="white"/>
<path fill-rule="evenodd" clip-rule="evenodd" d="M165.404 106.393L183.356 96.0291C183.462 95.9601 183.571 95.8969 183.684 95.8399C185.019 95.1618 186.814 95.3108 188.788 96.4507C192.903 98.8262 196.244 104.612 196.244 109.364C196.244 111.776 195.383 113.461 193.996 114.224L175.803 124.729C177.147 123.948 177.979 122.28 177.979 119.909C177.979 115.158 174.639 109.371 170.524 106.995C168.542 105.852 166.741 105.706 165.404 106.393Z" stroke="#475467" stroke-width="0.686667" stroke-linecap="round" stroke-linejoin="round"/>
<path fill-rule="evenodd" clip-rule="evenodd" d="M162.684 81.4199C162.927 81.5322 163.173 81.6603 163.422 81.8038C167.536 84.1793 170.877 89.9655 170.877 94.7169C170.877 95.0039 170.865 95.2806 170.841 95.5471C170.598 95.4348 170.352 95.3067 170.104 95.1632C165.989 92.7877 162.648 87.0015 162.648 82.2501C162.648 81.9631 162.661 81.6863 162.684 81.4199Z" fill="#CFCEFF"/>
<path fill-rule="evenodd" clip-rule="evenodd" d="M162.684 81.4199C162.927 81.5322 163.173 81.6603 163.422 81.8038C167.536 84.1793 170.877 89.9655 170.877 94.7169C170.877 95.0039 170.865 95.2806 170.841 95.5471C170.598 95.4348 170.352 95.3067 170.104 95.1632C165.989 92.7877 162.648 87.0015 162.648 82.2501C162.648 81.9631 162.661 81.6863 162.684 81.4199Z" stroke="white" stroke-width="0.686667" stroke-linecap="round" stroke-linejoin="round"/>
<path fill-rule="evenodd" clip-rule="evenodd" d="M163.628 26.7471C164.628 27.3239 165.439 28.7291 165.439 29.8834C165.439 31.0373 164.628 31.5057 163.628 30.9285C162.629 30.3517 161.817 28.9464 161.817 27.7925C161.817 26.6386 162.629 26.1699 163.628 26.7471Z" fill="white"/>
<path fill-rule="evenodd" clip-rule="evenodd" d="M163.628 26.7471C164.628 27.3239 165.439 28.7291 165.439 29.8834C165.439 31.0373 164.628 31.5057 163.628 30.9285C162.629 30.3517 161.817 28.9464 161.817 27.7925C161.817 26.6386 162.629 26.1699 163.628 26.7471Z" stroke="white" stroke-width="0.686667" stroke-linecap="round" stroke-linejoin="round"/>
<path fill-rule="evenodd" clip-rule="evenodd" d="M143.753 41.9999C144.732 41.4588 145.925 41.4687 146.896 42.0298C156.163 47.3796 176.394 59.0601 185.221 64.1566C187.859 65.6789 189.483 68.4929 189.483 71.5375C189.483 75.0564 189.483 79.7954 189.483 83.4461C189.483 84.3864 189.07 85.2681 188.371 85.8686C191.537 84.0579 189.076 85.5263 189.894 85.0539C190.883 84.4829 191.492 83.4279 191.492 82.2859C191.492 78.6353 191.492 73.8962 191.492 70.3778C191.492 67.3327 189.868 64.5191 187.231 62.9964C178.403 57.9 158.172 46.2194 148.906 40.8696C147.917 40.2987 146.699 40.2987 145.71 40.8696L143.753 41.9999Z" fill="white"/>
<path fill-rule="evenodd" clip-rule="evenodd" d="M143.753 41.9999C144.732 41.4588 145.925 41.4687 146.896 42.0298C156.163 47.3796 176.394 59.0601 185.221 64.1566C187.859 65.6789 189.483 68.4929 189.483 71.5375C189.483 75.0564 189.483 79.7954 189.483 83.4461C189.483 84.3864 189.07 85.2681 188.371 85.8686C191.537 84.0579 189.076 85.5263 189.894 85.0539C190.883 84.4829 191.492 83.4279 191.492 82.2859C191.492 78.6353 191.492 73.8962 191.492 70.3778C191.492 67.3327 189.868 64.5191 187.231 62.9964C178.403 57.9 158.172 46.2194 148.906 40.8696C147.917 40.2987 146.699 40.2987 145.71 40.8696L143.753 41.9999Z" stroke="#475467" stroke-width="0.686667" stroke-linecap="round" stroke-linejoin="round"/>
<path fill-rule="evenodd" clip-rule="evenodd" d="M189.483 71.5376C189.483 68.4929 187.859 65.6789 185.222 64.1566C176.395 59.0601 156.163 47.3796 146.897 42.0298C145.908 41.4588 144.69 41.4588 143.701 42.0298C142.712 42.6007 142.103 43.6558 142.103 44.7977C142.103 48.4481 142.103 53.1874 142.103 56.7059C142.103 59.7509 143.727 62.5646 146.364 64.0869C155.191 69.1833 175.423 80.8642 184.689 86.214C185.678 86.785 186.896 86.785 187.885 86.214C188.874 85.6431 189.483 84.588 189.483 83.4461C189.483 79.7954 189.483 75.0564 189.483 71.5376Z" fill="white"/>
<path fill-rule="evenodd" clip-rule="evenodd" d="M189.483 71.5376C189.483 68.4929 187.859 65.6789 185.222 64.1566C176.395 59.0601 156.163 47.3796 146.897 42.0298C145.908 41.4588 144.69 41.4588 143.701 42.0298C142.712 42.6007 142.103 43.6558 142.103 44.7977C142.103 48.4481 142.103 53.1874 142.103 56.7059C142.103 59.7509 143.727 62.5646 146.364 64.0869C155.191 69.1833 175.423 80.8642 184.689 86.214C185.678 86.785 186.896 86.785 187.885 86.214C188.874 85.6431 189.483 84.588 189.483 83.4461C189.483 79.7954 189.483 75.0564 189.483 71.5376Z" stroke="#475467" stroke-width="0.686667" stroke-linecap="round" stroke-linejoin="round"/>
<path fill-rule="evenodd" clip-rule="evenodd" d="M188.91 42.942C188.91 42.6663 188.763 42.4112 188.524 42.2735C186.248 40.9592 174.548 34.2041 170.798 32.0391C170.559 31.901 170.265 31.901 170.026 32.0391C169.787 32.1771 169.64 32.4318 169.64 32.7075C169.64 32.7384 169.64 32.7683 169.64 32.7975C169.64 33.0735 169.787 33.3283 170.026 33.466C172.302 34.7802 184.002 41.5353 187.752 43.7004C187.991 43.8384 188.285 43.8384 188.524 43.7004C188.763 43.5627 188.91 43.3076 188.91 43.0319C188.91 43.001 188.91 42.9711 188.91 42.942Z" fill="white"/>
<path fill-rule="evenodd" clip-rule="evenodd" d="M180.523 142.865L157.382 129.504V132.469L180.523 145.829V142.865Z" fill="#CFCEFF"/>
<path fill-rule="evenodd" clip-rule="evenodd" d="M180.523 142.865L157.382 129.504V132.469L180.523 145.829V142.865Z" stroke="#475467" stroke-width="0.686667" stroke-linecap="round" stroke-linejoin="round"/>
<path fill-rule="evenodd" clip-rule="evenodd" d="M168.953 141.79L157.382 135.109V138.074L168.953 144.754V141.79Z" fill="#CFCEFF"/>
<path fill-rule="evenodd" clip-rule="evenodd" d="M168.953 141.79L157.382 135.109V138.074L168.953 144.754V141.79Z" stroke="#475467" stroke-width="0.686667" stroke-linecap="round" stroke-linejoin="round"/>
</svg>
