<svg width="331" height="195" viewBox="0 0 331 195" fill="none" xmlns="http://www.w3.org/2000/svg">
<path opacity="0.3" fill-rule="evenodd" clip-rule="evenodd" d="M100.338 117.764C127.328 102.212 171.154 102.212 198.144 117.764C225.135 133.316 225.135 158.57 198.144 174.122C171.154 189.674 127.328 189.674 100.338 174.122C73.3471 158.57 73.3471 133.316 100.338 117.764Z" fill="#CFCEFF"/>
<path fill-rule="evenodd" clip-rule="evenodd" d="M116.595 96.8791C143.586 81.3268 187.412 81.3268 214.402 96.8791C241.393 112.431 241.393 137.685 214.402 153.237C187.412 168.79 143.586 168.79 116.595 153.237C89.6049 137.685 89.6049 112.431 116.595 96.8791Z" fill="white"/>
<path fill-rule="evenodd" clip-rule="evenodd" d="M116.595 96.8791C143.586 81.3268 187.412 81.3268 214.402 96.8791C241.393 112.431 241.393 137.685 214.402 153.237C187.412 168.79 143.586 168.79 116.595 153.237C89.6049 137.685 89.6049 112.431 116.595 96.8791Z" stroke="#475467" stroke-width="0.649014" stroke-linecap="round" stroke-linejoin="round"/>
<path fill-rule="evenodd" clip-rule="evenodd" d="M133.276 92.3124C151.06 82.0651 179.936 82.0651 197.72 92.3124C215.505 102.56 215.505 119.199 197.72 129.447C179.936 139.694 151.06 139.694 133.276 129.447C115.491 119.199 115.491 102.56 133.276 92.3124Z" fill="white"/>
<path fill-rule="evenodd" clip-rule="evenodd" d="M133.276 92.3124C151.06 82.0651 179.936 82.0651 197.72 92.3124C215.505 102.56 215.505 119.199 197.72 129.447C179.936 139.694 151.06 139.694 133.276 129.447C115.491 119.199 115.491 102.56 133.276 92.3124Z" stroke="#475467" stroke-width="0.649014" stroke-linecap="round" stroke-linejoin="round"/>
<path fill-rule="evenodd" clip-rule="evenodd" d="M155.597 105.174C161.061 102.025 169.934 102.025 175.398 105.174C180.862 108.322 180.862 113.435 175.398 116.583C169.934 119.732 161.061 119.732 155.597 116.583C150.133 113.435 150.133 108.322 155.597 105.174Z" fill="#CFCEFF"/>
<path fill-rule="evenodd" clip-rule="evenodd" d="M155.597 105.174C161.061 102.025 169.934 102.025 175.398 105.174C180.862 108.322 180.862 113.435 175.398 116.583C169.934 119.732 161.061 119.732 155.597 116.583C150.133 113.435 150.133 108.322 155.597 105.174Z" stroke="#475467" stroke-width="0.649014" stroke-linecap="round" stroke-linejoin="round"/>
<path fill-rule="evenodd" clip-rule="evenodd" d="M152.676 114.121C153.355 113.228 154.329 112.391 155.598 111.66C161.062 108.512 169.934 108.512 175.399 111.66C176.667 112.391 177.641 113.228 178.321 114.121C177.641 115.015 176.667 115.852 175.399 116.583C169.934 119.731 161.062 119.731 155.598 116.583C154.329 115.852 153.355 115.015 152.676 114.121Z" fill="#CFCEFF"/>
<path fill-rule="evenodd" clip-rule="evenodd" d="M152.676 114.121C153.355 113.228 154.329 112.391 155.598 111.66C161.062 108.512 169.934 108.512 175.399 111.66C176.667 112.391 177.641 113.228 178.321 114.121C177.641 115.015 176.667 115.852 175.399 116.583C169.934 119.731 161.062 119.731 155.598 116.583C154.329 115.852 153.355 115.015 152.676 114.121Z" stroke="white" stroke-width="0.649014" stroke-linecap="round" stroke-linejoin="round"/>
<path fill-rule="evenodd" clip-rule="evenodd" d="M234.645 145.467H234.619C235.119 156.031 228.38 166.688 214.402 174.742C187.412 190.295 143.586 190.295 116.595 174.742C102.617 166.688 95.8782 156.031 96.3786 145.467H96.3525V125.059C96.3525 135.26 103.1 145.461 116.595 153.237C143.586 168.79 187.412 168.79 214.402 153.237C227.897 145.461 234.645 135.26 234.645 125.059V145.467Z" fill="#CFCEFF"/>
<path fill-rule="evenodd" clip-rule="evenodd" d="M234.645 145.467H234.619C235.119 156.031 228.38 166.688 214.402 174.742C187.412 190.295 143.586 190.295 116.595 174.742C102.617 166.688 95.8782 156.031 96.3786 145.467H96.3525V125.059C96.3525 135.26 103.1 145.461 116.595 153.237C143.586 168.79 187.412 168.79 214.402 153.237C227.897 145.461 234.645 135.26 234.645 125.059V145.467Z" stroke="#475467" stroke-width="0.649014" stroke-linecap="round" stroke-linejoin="round"/>
<path fill-rule="evenodd" clip-rule="evenodd" d="M211.059 121.76H211.041C211.371 128.721 206.931 135.743 197.72 141.05C179.936 151.297 151.06 151.297 133.276 141.05C124.065 135.743 119.625 128.721 119.955 121.76H119.938V110.879C119.938 117.6 124.384 124.322 133.276 129.446C151.06 139.693 179.936 139.693 197.72 129.446C206.613 124.322 211.059 117.6 211.059 110.879V121.76Z" fill="#CFCEFF"/>
<path fill-rule="evenodd" clip-rule="evenodd" d="M211.059 121.76H211.041C211.371 128.721 206.931 135.743 197.72 141.05C179.936 151.297 151.06 151.297 133.276 141.05C124.065 135.743 119.625 128.721 119.955 121.76H119.938V110.879C119.938 117.6 124.384 124.322 133.276 129.446C151.06 139.693 179.936 139.693 197.72 129.446C206.613 124.322 211.059 117.6 211.059 110.879V121.76Z" stroke="#475467" stroke-width="0.649014" stroke-linecap="round" stroke-linejoin="round"/>
<path fill-rule="evenodd" clip-rule="evenodd" d="M165.498 25.0449V81.6113L140.903 67.4395L165.498 25.0449Z" fill="#CFCEFF"/>
<path fill-rule="evenodd" clip-rule="evenodd" d="M165.498 25.0449V81.6113L140.903 67.4395L165.498 25.0449Z" stroke="#475467" stroke-width="0.649014" stroke-linecap="round" stroke-linejoin="round"/>
<path fill-rule="evenodd" clip-rule="evenodd" d="M190.093 73.3223L165.498 115.717V87.4941L190.093 73.3223Z" fill="white"/>
<path fill-rule="evenodd" clip-rule="evenodd" d="M190.093 73.3223L165.498 115.717V87.4941L190.093 73.3223Z" stroke="#475467" stroke-width="0.649014" stroke-linecap="round" stroke-linejoin="round"/>
<path fill-rule="evenodd" clip-rule="evenodd" d="M165.498 87.4941V115.717L140.903 73.3223L165.498 87.4941Z" fill="#CFCEFF"/>
<path fill-rule="evenodd" clip-rule="evenodd" d="M165.498 87.4941V115.717L140.903 73.3223L165.498 87.4941Z" stroke="#475467" stroke-width="0.649014" stroke-linecap="round" stroke-linejoin="round"/>
<path fill-rule="evenodd" clip-rule="evenodd" d="M165.498 59.1523L140.903 73.3239L165.498 87.4957L190.092 73.3239L165.498 59.1523Z" fill="#CFCEFF"/>
<path fill-rule="evenodd" clip-rule="evenodd" d="M165.498 59.1523L140.903 73.3239L165.498 87.4957L190.092 73.3239L165.498 59.1523Z" stroke="white" stroke-width="0.649014" stroke-linecap="round" stroke-linejoin="round"/>
<path fill-rule="evenodd" clip-rule="evenodd" d="M165.498 53.2656L140.903 67.4375L165.498 81.6094L190.092 67.4375L165.498 53.2656Z" fill="white"/>
<path fill-rule="evenodd" clip-rule="evenodd" d="M165.498 53.2656L140.903 67.4375L165.498 81.6094L190.092 67.4375L165.498 53.2656Z" stroke="#475467" stroke-width="0.649014" stroke-linecap="round" stroke-linejoin="round"/>
<path fill-rule="evenodd" clip-rule="evenodd" d="M165.498 25.0449V81.6113L190.093 67.4395L165.498 25.0449Z" stroke="#475467" stroke-width="0.649014" stroke-linecap="round" stroke-linejoin="round"/>
<path fill-rule="evenodd" clip-rule="evenodd" d="M146.372 15.6361C156.928 9.55358 174.068 9.55358 184.624 15.6361C195.18 21.7187 195.18 31.5951 184.624 37.6776C174.068 43.7602 156.928 43.7602 146.372 37.6776C135.816 31.5951 135.816 21.7187 146.372 15.6361ZM151.521 18.6028C159.235 14.1577 171.761 14.1577 179.475 18.6028C187.19 23.0479 187.19 30.2659 179.475 34.711C171.761 39.1561 159.235 39.1561 151.521 34.711C143.806 30.2659 143.806 23.0479 151.521 18.6028Z" fill="white"/>
<path fill-rule="evenodd" clip-rule="evenodd" d="M146.372 15.6361C156.928 9.55358 174.068 9.55358 184.624 15.6361C195.18 21.7187 195.18 31.5951 184.624 37.6776C174.068 43.7602 156.928 43.7602 146.372 37.6776C135.816 31.5951 135.816 21.7187 146.372 15.6361ZM151.521 18.6028C159.235 14.1577 171.761 14.1577 179.475 18.6028C187.19 23.0479 187.19 30.2659 179.475 34.711C171.761 39.1561 159.235 39.1561 151.521 34.711C143.806 30.2659 143.806 23.0479 151.521 18.6028Z" stroke="#475467" stroke-width="0.649014" stroke-linecap="round" stroke-linejoin="round"/>
<path fill-rule="evenodd" clip-rule="evenodd" d="M146.42 29.6376C147.29 27.7788 148.991 26.0225 151.521 24.5645C159.235 20.1191 171.761 20.1191 179.476 24.5645C182.006 26.0225 183.707 27.7788 184.577 29.6376C183.707 31.4967 182.006 33.2529 179.476 34.7109C171.761 39.156 159.235 39.156 151.521 34.7109C148.991 33.2529 147.29 31.4967 146.42 29.6376Z" stroke="#475467" stroke-width="0.649014" stroke-linecap="round" stroke-linejoin="round"/>
<path fill-rule="evenodd" clip-rule="evenodd" d="M192.541 33.113H192.531C192.727 37.2446 190.091 41.4122 184.624 44.5625C174.068 50.6451 156.928 50.6451 146.372 44.5625C140.905 41.4122 138.269 37.2446 138.465 33.113H138.455V26.6543C138.455 30.6438 141.094 34.6336 146.372 37.6749C156.928 43.7574 174.068 43.7574 184.624 37.6749C189.902 34.6336 192.541 30.6438 192.541 26.6543V33.113Z" fill="#CFCEFF"/>
<path fill-rule="evenodd" clip-rule="evenodd" d="M192.541 33.113H192.531C192.727 37.2446 190.091 41.4122 184.624 44.5625C174.068 50.6451 156.928 50.6451 146.372 44.5625C140.905 41.4122 138.269 37.2446 138.465 33.113H138.455V26.6543C138.455 30.6438 141.094 34.6336 146.372 37.6749C156.928 43.7574 174.068 43.7574 184.624 37.6749C189.902 34.6336 192.541 30.6438 192.541 26.6543V33.113Z" stroke="#475467" stroke-width="0.649014" stroke-linecap="round" stroke-linejoin="round"/>
<path fill-rule="evenodd" clip-rule="evenodd" d="M105.571 121.671L109.872 119.283C111.625 118.291 114.058 118.451 116.745 119.999C122.086 123.078 126.423 130.484 126.423 136.53C126.423 139.491 125.383 141.579 123.693 142.578L119.214 145.068C120.965 144.095 122.048 141.981 122.048 138.96C122.048 132.915 117.711 125.507 112.369 122.43C109.721 120.904 107.32 120.726 105.571 121.671Z" fill="white"/>
<path fill-rule="evenodd" clip-rule="evenodd" d="M105.571 121.671L109.872 119.283C111.625 118.291 114.058 118.451 116.745 119.999C122.086 123.078 126.423 130.484 126.423 136.53C126.423 139.491 125.383 141.579 123.693 142.578L119.214 145.068C120.965 144.095 122.048 141.981 122.048 138.96C122.048 132.915 117.711 125.507 112.369 122.43C109.721 120.904 107.32 120.726 105.571 121.671Z" stroke="#475467" stroke-width="0.649014" stroke-linecap="round" stroke-linejoin="round"/>
<path fill-rule="evenodd" clip-rule="evenodd" d="M186.349 141.237L211.305 126.91C212.355 126.316 213.811 126.412 215.419 127.339C218.617 129.181 221.213 133.615 221.213 137.234C221.213 139.007 220.59 140.257 219.578 140.855L194.515 155.242C195.563 154.659 196.212 153.394 196.212 151.585C196.212 147.967 193.616 143.533 190.418 141.69C188.833 140.777 187.395 140.671 186.349 141.237Z" fill="white"/>
<path fill-rule="evenodd" clip-rule="evenodd" d="M186.349 141.237L211.305 126.91C212.355 126.316 213.811 126.412 215.419 127.339C218.617 129.181 221.213 133.615 221.213 137.234C221.213 139.007 220.59 140.257 219.578 140.855L194.515 155.242C195.563 154.659 196.212 153.394 196.212 151.585C196.212 147.967 193.616 143.533 190.418 141.69C188.833 140.777 187.395 140.671 186.349 141.237Z" stroke="#475467" stroke-width="0.649014" stroke-linecap="round" stroke-linejoin="round"/>
<path fill-rule="evenodd" clip-rule="evenodd" d="M112.368 122.429C117.71 125.507 122.048 132.914 122.048 138.959C122.048 145.005 117.71 147.414 112.368 144.336C107.026 141.257 102.689 133.85 102.689 127.805C102.689 121.76 107.026 119.351 112.368 122.429Z" fill="white"/>
<path fill-rule="evenodd" clip-rule="evenodd" d="M112.368 122.429C117.71 125.507 122.048 132.914 122.048 138.959C122.048 145.005 117.71 147.414 112.368 144.336C107.026 141.257 102.689 133.85 102.689 127.805C102.689 121.76 107.026 119.351 112.368 122.429Z" stroke="#475467" stroke-width="0.649014" stroke-linecap="round" stroke-linejoin="round"/>
<path fill-rule="evenodd" clip-rule="evenodd" d="M190.417 141.69C193.615 143.533 196.211 147.967 196.211 151.585C196.211 155.204 193.615 156.646 190.417 154.804C187.219 152.961 184.623 148.527 184.623 144.908C184.623 141.29 187.219 139.848 190.417 141.69Z" fill="#CFCEFF"/>
<path fill-rule="evenodd" clip-rule="evenodd" d="M190.417 141.69C193.615 143.533 196.211 147.967 196.211 151.585C196.211 155.204 193.615 156.646 190.417 154.804C187.219 152.961 184.623 148.527 184.623 144.908C184.623 141.29 187.219 139.848 190.417 141.69Z" stroke="#475467" stroke-width="0.649014" stroke-linecap="round" stroke-linejoin="round"/>
</svg>
