<svg width="38" height="38" viewBox="0 0 38 38" fill="none" xmlns="http://www.w3.org/2000/svg">
<rect x="0.5" y="0.5" width="37" height="37" rx="18.5" stroke="white" stroke-opacity="0.12"/>
<g clip-path="url(#clip0_3420_29843)">
<g clip-path="url(#clip1_3420_29843)">
<g clip-path="url(#clip2_3420_29843)">
<path opacity="0.7" d="M19.926 16.8818H23.726L23.3038 18.5707H19.926V26.1707H18.2372V18.5707H14.8594V16.8818H18.2372V15.301C18.2372 13.7954 18.3942 13.249 18.6881 12.6984C18.976 12.1545 19.4209 11.7096 19.9649 11.4216C20.5155 11.1278 21.0618 10.9707 22.5675 10.9707C23.0083 10.9707 23.395 11.0129 23.726 11.0974V12.6596H22.5675C21.4494 12.6596 21.1091 12.7255 20.762 12.9112C20.5053 13.048 20.3145 13.2389 20.1777 13.4956C19.9919 13.8427 19.926 14.183 19.926 15.301V16.8818Z" fill="white" stroke="white" stroke-width="0.8"/>
</g>
</g>
</g>
<defs>
<clipPath id="clip0_3420_29843">
<rect width="11" height="17" fill="white" transform="translate(13.5 10.5)"/>
</clipPath>
<clipPath id="clip1_3420_29843">
<rect width="11" height="17" fill="white" transform="translate(13.5 10.5)"/>
</clipPath>
<clipPath id="clip2_3420_29843">
<rect width="11" height="17" fill="white" transform="translate(13.5 10.5)"/>
</clipPath>
</defs>
</svg>
