<svg width="38" height="38" viewBox="0 0 38 38" fill="none" xmlns="http://www.w3.org/2000/svg">
<rect x="0.5" y="0.5" width="37" height="37" rx="18.5" stroke="white" stroke-opacity="0.12"/>
<g clip-path="url(#clip0_3420_29853)">
<g clip-path="url(#clip1_3420_29853)">
<path opacity="0.7" d="M23.3171 14.0711C23.1339 14.0711 22.9548 14.1254 22.8025 14.2272C22.6502 14.329 22.5314 14.4736 22.4613 14.6429C22.3912 14.8121 22.3729 14.9984 22.4086 15.178C22.4443 15.3577 22.5325 15.5227 22.6621 15.6523C22.7917 15.7818 22.9567 15.87 23.1364 15.9058C23.316 15.9415 23.5023 15.9232 23.6715 15.8531C23.8408 15.783 23.9854 15.6642 24.0872 15.5119C24.189 15.3596 24.2433 15.1805 24.2433 14.9973C24.2433 14.7517 24.1458 14.5161 23.972 14.3424C23.7983 14.1687 23.5627 14.0711 23.3171 14.0711ZM26.8677 15.939C26.8527 15.2986 26.7328 14.665 26.5126 14.0634C26.3164 13.5486 26.0109 13.0825 25.6173 12.6971C25.235 12.3015 24.7679 11.998 24.251 11.8095C23.651 11.5827 23.0167 11.46 22.3754 11.4467C21.5572 11.4004 21.2948 11.4004 19.1953 11.4004C17.0958 11.4004 16.8334 11.4004 16.0152 11.4467C15.3739 11.46 14.7395 11.5827 14.1395 11.8095C13.6237 11.9999 13.1569 12.3031 12.7733 12.6971C12.3777 13.0794 12.0741 13.5465 11.8857 14.0634C11.6588 14.6634 11.5362 15.2977 11.5229 15.939C11.4766 16.7572 11.4766 17.0196 11.4766 19.1191C11.4766 21.2187 11.4766 21.4811 11.5229 22.2993C11.5362 22.9406 11.6588 23.575 11.8857 24.175C12.0741 24.6918 12.3777 25.159 12.7733 25.5412C13.1569 25.9352 13.6237 26.2384 14.1395 26.4288C14.7395 26.6557 15.3739 26.7783 16.0152 26.7916C16.8334 26.8379 17.0958 26.8379 19.1953 26.8379C21.2948 26.8379 21.5572 26.8379 22.3754 26.7916C23.0167 26.7783 23.651 26.6557 24.251 26.4288C24.7679 26.2404 25.235 25.9368 25.6173 25.5412C26.0127 25.1572 26.3184 24.6907 26.5126 24.175C26.7328 23.5733 26.8527 22.9398 26.8677 22.2993C26.8677 21.4811 26.914 21.2187 26.914 19.1191C26.914 17.0196 26.914 16.7572 26.8677 15.939ZM25.4783 22.2067C25.4727 22.6967 25.384 23.1821 25.2159 23.6424C25.0926 23.9783 24.8947 24.2818 24.637 24.53C24.3866 24.7852 24.0837 24.9827 23.7493 25.1089C23.2891 25.277 22.8036 25.3657 22.3136 25.3714C21.5418 25.41 21.2562 25.4177 19.2262 25.4177C17.1962 25.4177 16.9106 25.4177 16.1387 25.3714C15.6299 25.3809 15.1234 25.3025 14.6412 25.1398C14.3215 25.0072 14.0325 24.8101 13.7922 24.5609C13.536 24.313 13.3405 24.0092 13.221 23.6732C13.0325 23.2064 12.928 22.7099 12.9122 22.2067C12.9122 21.4348 12.8659 21.1492 12.8659 19.1191C12.8659 17.0891 12.8659 16.8035 12.9122 16.0316C12.9157 15.5307 13.0071 15.0343 13.1824 14.5651C13.3183 14.2393 13.5269 13.9489 13.7922 13.716C14.0267 13.4506 14.3165 13.2398 14.6412 13.0985C15.1117 12.9287 15.6076 12.84 16.1078 12.8361C16.8797 12.8361 17.1653 12.7898 19.1953 12.7898C21.2253 12.7898 21.5109 12.7898 22.2828 12.8361C22.7728 12.8417 23.2582 12.9304 23.7185 13.0985C24.0692 13.2287 24.384 13.4403 24.637 13.716C24.89 13.9531 25.0876 14.243 25.2159 14.5651C25.3875 15.0351 25.4763 15.5313 25.4783 16.0316C25.5169 16.8035 25.5246 17.0891 25.5246 19.1191C25.5246 21.1492 25.5169 21.4348 25.4783 22.2067ZM19.1953 15.1594C18.4125 15.1609 17.6477 15.3945 16.9975 15.8305C16.3474 16.2665 15.841 16.8855 15.5425 17.6092C15.244 18.3328 15.1667 19.1288 15.3203 19.8964C15.474 20.664 15.8517 21.3688 16.4058 21.9218C16.9599 22.4749 17.6655 22.8513 18.4334 23.0034C19.2013 23.1556 19.997 23.0766 20.7201 22.7767C21.4432 22.4768 22.0612 21.9693 22.4959 21.3183C22.9306 20.6672 23.1627 19.902 23.1627 19.1191C23.1637 18.5982 23.0617 18.0822 22.8626 17.6008C22.6636 17.1194 22.3712 16.6822 22.0025 16.3142C21.6338 15.9462 21.1959 15.6547 20.7142 15.4565C20.2324 15.2584 19.7162 15.1574 19.1953 15.1594ZM19.1953 21.6895C18.6869 21.6895 18.19 21.5388 17.7673 21.2564C17.3446 20.9739 17.0152 20.5724 16.8206 20.1028C16.6261 19.6331 16.5752 19.1163 16.6744 18.6177C16.7735 18.1191 17.0183 17.6611 17.3778 17.3016C17.7373 16.9422 18.1953 16.6974 18.6939 16.5982C19.1925 16.499 19.7093 16.5499 20.1789 16.7445C20.6486 16.939 21.05 17.2684 21.3324 17.6911C21.6148 18.1138 21.7656 18.6108 21.7656 19.1191C21.7656 19.4567 21.6991 19.7909 21.57 20.1028C21.4408 20.4146 21.2514 20.698 21.0128 20.9366C20.7741 21.1754 20.4908 21.3647 20.1789 21.4939C19.8671 21.623 19.5329 21.6895 19.1953 21.6895Z" fill="white"/>
</g>
</g>
<defs>
<clipPath id="clip0_3420_29853">
<rect width="17" height="16" fill="white" transform="translate(10.5 11)"/>
</clipPath>
<clipPath id="clip1_3420_29853">
<rect width="17" height="16" fill="white" transform="translate(10.5 11)"/>
</clipPath>
</defs>
</svg>
